{
.appVersion = "1346";
DisplayStrings = (
abcdefghijklmnopqrstuvwxyz,
ABCDEFGHIJKLMNOPQRSTUVWXYZ,
"News/space Textura",
L,
M
);
copyright = "This font is licensed under the SIL Open Font License, v 1.1";
customParameters = (
{
name = panose;
value = (
2,
0,
5,
3,
0,
0,
0,
0,
0,
0
);
},
{
name = unicodeRanges;
value = (
0,
1,
2,
3,
6,
29,
31,
32,
33,
34,
60,
62
);
},
{
name = fsType;
value = (
);
},
{
name = blueScale;
value = 0.01667;
},
{
name = blueShift;
value = 0;
}
);
date = "2020-09-01 21:12:11 +0000";
designer = "Eli Heuer, Fredrick Brennan ";
disablesNiceNames = 1;
familyName = "News Textura";
featurePrefixes = (
{
code = "lookup lookup_0 {\012sub i by dotlessi;\012sub j by dotlessj;\012} lookup_0;\012";
name = lookup_0;
},
{
code = "lookup lookup_1 {\012sub r by uniA75B;\012} lookup_1;\012";
name = lookup_1;
}
);
features = (
{
code = "sub [i j]' lookup lookup_0 uni0364 ;\012";
name = ccmp;
},
{
code = "sub n d by nd.dlig;\012sub r d by rd.dlig;\012sub s t by st.dlig;\012sub t h by th.dlig;\012";
name = dlig;
},
{
code = "sub [b d h o p eth ograve oacute ocircumflex otilde odieresis thorn dcaron hcircumflex omacron obreve ohungarumlaut] r' lookup lookup_1 ;\012";
name = hist;
},
{
code = "sub f f l by f_f_l;\012sub f f i by f_f_i;\012sub f l by f_l;\012sub f i by f_i;\012sub f f by f_f;\012";
name = liga;
},
{
code = "sub hyphen by uni2E17.alt;\012sub uni2E17 by uni2E17.alt;\012";
name = salt;
}
);
fontMaster = (
{
alignmentZones = (
"{768, 23}",
"{716, 22}",
"{508, 12}",
"{10, -62}",
"{-174, -5}"
);
ascender = 800;
capHeight = 777;
customParameters = (
{
name = typoAscender;
value = 800;
},
{
name = typoDescender;
value = -200;
},
{
name = typoLineGap;
value = 90;
},
{
name = winAscent;
value = 1078;
},
{
name = winDescent;
value = 414;
},
{
name = hheaAscender;
value = 1078;
},
{
name = hheaDescender;
value = -414;
},
{
name = strikeoutPosition;
value = 258;
},
{
name = strikeoutSize;
value = 49;
}
);
descender = -200;
horizontalStems = (
20,
28,
35,

glyphs = (
{
color = 4;
glyphname = A;
lastChange = "2020-08-31 23:16:03 +0000";
layers = (
{
layerId = "032EDF5D-2B69-4E95-A18F-0FD11DED884D";
paths = (
{
closed = 1;
nodes = (
"63 -10 LINE",
"107 37 OFFCURVE",
"173 65 OFFCURVE",
"236 65 CURVE SMOOTH",
"291 65 OFFCURVE",
"350 44 OFFCURVE",
"394 6.77 CURVE",
"506 103 LINE",
"536 66 OFFCURVE",
"579 26 OFFCURVE",
"626 -3 CURVE",
"759 103.82 LINE",
"730 136.82 LINE",
"696 108.99 LINE",
"653 140 OFFCURVE",
"653 189 OFFCURVE",
"653 251.66 CURVE SMOOTH",
"653 643.99 LINE SMOOTH",
"653 675 OFFCURVE",
"656 712 OFFCURVE",
"676.62 734.62 CURVE SMOOTH",
"694 754 LINE",
"672.25 772.08 LINE",
"610.4 712.82 LINE",
"551 753 OFFCURVE",
"484 768 OFFCURVE",
"435 768 CURVE SMOOTH",
"299 768 OFFCURVE",
"159 673 OFFCURVE",
"159 516 CURVE SMOOTH",
"159 414 OFFCURVE",
"221 355 OFFCURVE",
"283.57 321.96 CURVE",
"174 140 LINE",
"115 108 OFFCURVE",
"67 52 OFFCURVE",
"44 -10 CURVE"
);
},
{
closed = 1;
nodes = (
"508.88 639.9 LINE",
"514.05 636.89 OFFCURVE",
"519.09 633.68 OFFCURVE",
"524 630.26 CURVE",
"524 373.99 LINE",
"348.45 373.99 LINE"
);
},
{
closed = 1;
nodes = (
"255.99 364.27 OFFCURVE",
"214 417 OFFCURVE",
"214 489 CURVE SMOOTH",
"214 578 OFFCURVE",
"279 669 OFFCURVE",
"406 669.48 CURVE SMOOTH",
"432 670 OFFCURVE",
"458.72 662.94 OFFCURVE",
"483.14 652.7 CURVE",
"292.78 337.19 LINE"
);
},
{
closed = 1;
nodes = (
"286.31 270.98 LINE",
"524 270.98 LINE",
"524 177.58 LINE",
"464 126.98 LINE",
"406 164 OFFCURVE",
"353 174 OFFCURVE",
"303 174 CURVE SMOOTH",
"277 174 OFFCURVE",
"235 166 OFFCURVE",
"218.91 159.28 CURVE"
);
}
);
width = 767;
},
{
associatedMasterId = "032EDF5D-2B69-4E95-A18F-0FD11DED884D";
layerId = "E1986BD5-0A6C-4298-80C8-0E7A869B8EED";
name = "Aug 29 20, 23:04";
paths = (
{
closed = 1;
nodes = (
"694 754 LINE",
"672.25 772.08 LINE",
"610.4 712.82 LINE",
"550.64 752.97 OFFCURVE",
"477.22 772.92 OFFCURVE",
"405.5 766.5 CURVE SMOOTH",
"332.72 759.99 OFFCURVE",
"261.85 725.88 OFFCURVE",
"215.03 669.78 CURVE SMOOTH",
"191.62 641.73 OFFCURVE",
"174.36 608.48 OFFCURVE",
"165.58 573.01 CURVE SMOOTH",
"156.8 537.55 OFFCURVE",
"156.6 499.93 OFFCURVE",
"165.5 464.5 CURVE SMOOTH",
"174.55 428.47 OFFCURVE",
"193.03 394.83 OFFCURVE",
"218.74 368.02 CURVE SMOOTH",
"237.2 348.77 OFFCURVE",
"259.34 333.09 OFFCURVE",
"283.57 321.96 CURVE",
"173.5 139.52 LINE",
"158.56 131.4 OFFCURVE",
"144.36 121.95 OFFCURVE",
"131.14 111.26 CURVE SMOOTH",
"91.96 79.6 OFFCURVE",
"61.51 37.23 OFFCURVE",
"44 -10 CURVE",
"63 -10 LINE",
"107.41 36.91 OFFCURVE",
"171.41 64.65 OFFCURVE",
"236 65 CURVE SMOOTH",
"293.35 65.31 OFFCURVE",
"350.57 44.22 OFFCURVE",
"394 6.77 CURVE",
"505.83 103.37 LINE",
"525.47 80.26 OFFCURVE",
"546.95 58.7 OFFCURVE",
"570 38.99 CURVE SMOOTH",
"587.78 23.79 OFFCURVE",
"606.49 9.68 OFFCURVE",
"626 -3.24 CURVE",
"759 103.82 LINE",
"730 136.82 LINE",
"696 108.99 LINE",
"676.11 124.4 OFFCURVE",
"662.78 147.43 OFFCURVE",
"657.33 171.99 CURVE SMOOTH",
"651.56 198.01 OFFCURVE",
"653 225.01 OFFCURVE",
"653 251.66 CURVE SMOOTH",
"653 276.49 LINE",
"653 612.99 LINE",
"653 643.99 LINE SMOOTH",
"653 659.91 OFFCURVE",
"653.35 675.96 OFFCURVE",
"656.92 691.48 CURVE SMOOTH",
"660.49 707 OFFCURVE",
"667.13 721.83 OFFCURVE",
"676.62 734.62 CURVE SMOOTH"
);
},
{
closed = 1;
nodes = (
"508.88 639.9 LINE",
"514.05 636.89 OFFCURVE",
"519.09 633.68 OFFCURVE",
"524 630.26 CURVE",
"524 373.99 LINE",
"348.45 373.99 LINE"
);
},
{
closed = 1;
nodes = (
"292.78 337.19 LINE",
"255.99 364.27 OFFCURVE",
"228.77 404.44 OFFCURVE",
"218.5 448.98 CURVE SMOOTH",
"208.26 493.42 OFFCURVE",
"215.15 541.8 OFFCURVE",
"238.5 580.98 CURVE SMOOTH",
"255.45 609.42 OFFCURVE",
"280.69 632.75 OFFCURVE",
"310.1 647.96 CURVE SMOOTH",
"339.51 663.17 OFFCURVE",
"372.9 670.34 OFFCURVE",
"406 669.48 CURVE SMOOTH",
"432.47 668.8 OFFCURVE",
"458.72 662.94 OFFCURVE",
"483.14 652.7 CURVE"
);
},
{
closed = 1;
nodes = (
"286.31 270.98 LINE",
"524 270.98 LINE",
"524 177.58 LINE",
"464 126.98 LINE",
"406.93 164.79 OFFCURVE",
"335.76 180.77 OFFCURVE",
"268 170.98 CURVE SMOOTH",
"251.33 168.57 OFFCURVE",
"234.88 164.63 OFFCURVE",
"218.91 159.28 CURVE"
);
}
);
visible = 1;
width = 767;
}
);
note = A;
unicode = 0041;
},
{
glyphname = Aacute;
layers = (
{
layerId = "032EDF5D-2B69-4E95-A18F-0FD11DED884D";
paths = (
{
closed = 1;
nodes = (
"585.67 983 LINE",
"534.34 1022.67 LINE",
"448.67 847 LINE",
"457.34 840.33 LINE"
);
},
{
closed = 1;
nodes = (
"694.01 754 LINE",
"672.26 772.08 LINE",
"610.41 712.82 LINE",
"550.65 752.97 OFFCURVE",
"477.23 772.92 OFFCURVE",
"405.51 766.5 CURVE SMOOTH",
"332.73 759.99 OFFCURVE",
"261.86 725.88 OFFCURVE",
"215.04 669.78 CURVE SMOOTH",
"191.63 641.73 OFFCURVE",
"174.37 608.48 OFFCURVE",
"165.59 573.01 CURVE SMOOTH",
"156.81 537.55 OFFCURVE",
"156.61 499.93 OFFCURVE",
"165.51 464.5 CURVE SMOOTH",
"174.56 428.47 OFFCURVE",
"193.04 394.83 OFFCURVE",
"218.75 368.02 CURVE SMOOTH",
"237.21 348.77 OFFCURVE",
"259.35 333.09 OFFCURVE",
"283.58 321.96 CURVE",
"173.51 139.52 LINE",
"158.57 131.4 OFFCURVE",
"144.37 121.95 OFFCURVE",
"131.15 111.26 CURVE SMOOTH",
"91.97 79.6 OFFCURVE",
"61.52 37.23 OFFCURVE",
"44.01 -10 CURVE",
"63.01 -10 LINE",
"107.42 36.91 OFFCURVE",
"171.42 64.65 OFFCURVE",
"236.01 65 CURVE SMOOTH",
"293.36 65.31 OFFCURVE",
"350.58 44.22 OFFCURVE",
"394.01 6.77 CURVE",
"505.84 103.37 LINE",
"525.48 80.26 OFFCURVE",
"546.96 58.7 OFFCURVE",
"570.01 38.99 CURVE SMOOTH",
"587.79 23.79 OFFCURVE",
"606.5 9.68 OFFCURVE",
"626.01 -3.24 CURVE",
"759.01 103.82 LINE",
"730.01 136.82 LINE",
"696.01 108.99 LINE",
"676.12 124.4 OFFCURVE",
"662.79 147.43 OFFCURVE",
"657.34 171.99 CURVE SMOOTH",
"651.57 198.01 OFFCURVE",
"653.01 225.01 OFFCURVE",
"653.01 251.66 CURVE SMOOTH",
"653.01 276.49 LINE",
"653.01 612.99 LINE",
"653.01 643.99 LINE SMOOTH",
"653.01 659.91 OFFCURVE",
"653.36 675.96 OFFCURVE",
"656.93 691.48 CURVE SMOOTH",
"660.5 707 OFFCURVE",
"667.14 721.83 OFFCURVE",
"676.63 734.62 CURVE SMOOTH"
);
},
{
closed = 1;
nodes = (
"508.89 639.9 LINE",
"514.06 636.89 OFFCURVE",
"519.1 633.68 OFFCURVE",
"524.01 630.26 CURVE",
"524.01 373.99 LINE",
"348.46 373.99 LINE"
);
},
{
closed = 1;
nodes = (
"292.79 337.19 LINE",
"256 364.27 OFFCURVE",
"228.78 404.44 OFFCURVE",
"218.51 448.98 CURVE SMOOTH",
"208.27 493.42 OFFCURVE",
"215.16 541.8 OFFCURVE",
"238.51 580.98 CURVE SMOOTH",
"255.46 609.42 OFFCURVE",
"280.7 632.75 OFFCURVE",
"310.11 647.96 CURVE SMOOTH",
"339.52 663.17 OFFCURVE",
"372.91 670.34 OFFCURVE",
"406.01 669.48 CURVE SMOOTH",
"432.48 668.8 OFFCURVE",
"458.73 662.94 OFFCURVE",
"483.15 652.7 CURVE"
);
},
{
closed = 1;
nodes = (
"286.32 270.98 LINE",
"524.01 270.98 LINE",
"524.01 177.58 LINE",
"464.01 126.98 LINE",
"406.94 164.79 OFFCURVE",
"335.77 180.77 OFFCURVE",
"268.01 170.98 CURVE SMOOTH",
"251.34 168.57 OFFCURVE",
"234.89 164.63 OFFCURVE",
"218.92 159.28 CURVE"
);
}
);
width = 767;
}
);
note = Aacute;
unicode = 00C1;
},
{
glyphname = Abreve;
layers = (
{
layerId = "032EDF5D-2B69-4E95-A18F-0FD11DED884D";
paths = (
{
closed = 1;
nodes = (
"411.34 867.24 OFFCURVE",
"378.81 891.7 OFFCURVE",
"355.82 923 CURVE",
"423.82 983 LINE",
"433.26 969.75 OFFCURVE",
"445.45 958.49 OFFCURVE",
"459.34 950.02 CURVE SMOOTH",
"475.62 940.09 OFFCURVE",
"494.07 933.95 OFFCURVE",
"512.92 931.09 CURVE SMOOTH",
"531.77 928.22 OFFCURVE",
"551.24 928.27 OFFCURVE",
"569.73 932.93 CURVE SMOOTH",
"579.51 935.39 OFFCURVE",
"588.99 939.29 OFFCURVE",
"597.25 945.08 CURVE SMOOTH",
"606.41 951.5 OFFCURVE",
"613.93 960.25 OFFCURVE",
"618.71 970.36 CURVE",
"644.4 957.96 LINE",
"636.78 940.94 OFFCURVE",
"627.23 924.77 OFFCURVE",
"615.81 910.02 CURVE SMOOTH",
"601.07 890.98 OFFCURVE",
"582.99 874.26 OFFCURVE",
"561.72 863 CURVE SMOOTH",
"544.49 853.88 OFFCURVE",
"525.3 848.51 OFFCURVE",
"505.84 847.33 CURVE SMOOTH",
"486.38 846.15 OFFCURVE",
"466.75 849.04 OFFCURVE",
"448.23 855.12 CURVE SMOOTH"
);
},
{
closed = 1;
nodes = (
"693.99 754 LINE",
"672.24 772.08 LINE",
"610.39 712.82 LINE",
"550.63 752.97 OFFCURVE",
"477.21 772.92 OFFCURVE",
"405.49 766.5 CURVE SMOOTH",
"332.71 759.99 OFFCURVE",
"261.84 725.88 OFFCURVE",
"215.02 669.78 CURVE SMOOTH",
"191.61 641.73 OFFCURVE",
"174.35 608.48 OFFCURVE",
"165.57 573.01 CURVE SMOOTH",
"156.79 537.55 OFFCURVE",
"156.59 499.93 OFFCURVE",
"165.49 464.5 CURVE SMOOTH",
"174.54 428.47 OFFCURVE",
"193.02 394.83 OFFCURVE",
"218.73 368.02 CURVE SMOOTH",
"237.19 348.77 OFFCURVE",
"259.33 333.09 OFFCURVE",
"283.56 321.96 CURVE",
"173.49 139.52 LINE",
"158.55 131.4 OFFCURVE",
"144.35 121.95 OFFCURVE",
"131.13 111.26 CURVE SMOOTH",
"91.95 79.6 OFFCURVE",
"61.5 37.23 OFFCURVE",
"43.99 -10 CURVE",
"62.99 -10 LINE",
"107.4 36.91 OFFCURVE",
"171.4 64.65 OFFCURVE",
"235.99 65 CURVE SMOOTH",
"293.34 65.31 OFFCURVE",
"350.56 44.22 OFFCURVE",
"393.99 6.77 CURVE",
"505.82 103.37 LINE",
"525.46 80.26 OFFCURVE",
"546.94 58.7 OFFCURVE",
"569.99 38.99 CURVE SMOOTH",
"587.77 23.79 OFFCURVE",
"606.48 9.68 OFFCURVE",
"625.99 -3.24 CURVE",
"758.99 103.82 LINE",
"729.99 136.82 LINE",
"695.99 108.99 LINE",
"676.1 124.4 OFFCURVE",
"662.77 147.43 OFFCURVE",
"657.32 171.99 CURVE SMOOTH",
"651.55 198.01 OFFCURVE",
"652.99 225.01 OFFCURVE",
"652.99 251.66 CURVE SMOOTH",
"652.99 276.49 LINE",
"652.99 612.99 LINE",
"652.99 643.99 LINE SMOOTH",
"652.99 659.91 OFFCURVE",
"653.34 675.96 OFFCURVE",
"656.91 691.48 CURVE SMOOTH",
"660.48 707 OFFCURVE",
"667.12 721.83 OFFCURVE",
"676.61 734.62 CURVE SMOOTH"
);
},
{
closed = 1;
nodes = (
"508.87 639.9 LINE",
"514.04 636.89 OFFCURVE",
"519.08 633.68 OFFCURVE",
"523.99 630.26 CURVE",
"523.99 373.99 LINE",
"348.44 373.99 LINE"
);
},
{
closed = 1;
nodes = (
"292.77 337.19 LINE",
"255.98 364.27 OFFCURVE",
"228.76 404.44 OFFCURVE",
"218.49 448.98 CURVE SMOOTH",
"208.25 493.42 OFFCURVE",
"215.14 541.8 OFFCURVE",
"238.49 580.98 CURVE SMOOTH",
"255.44 609.42 OFFCURVE",
"280.68 632.75 OFFCURVE",
"310.09 647.96 CURVE SMOOTH",
"339.5 663.17 OFFCURVE",
"372.89 670.34 OFFCURVE",
"405.99 669.48 CURVE SMOOTH",
"432.46 668.8 OFFCURVE",
"458.71 662.94 OFFCURVE",
"483.13 652.7 CURVE"
);
},
{
closed = 1;
nodes = (
"286.3 270.98 LINE",
"523.99 270.98 LINE",
"523.99 177.58 LINE",
"463.99 126.98 LINE",
"406.92 164.79 OFFCURVE",
"335.75 180.77 OFFCURVE",
"267.99 170.98 CURVE SMOOTH",
"251.32 168.57 OFFCURVE",
"234.87 164.63 OFFCURVE",
"218.9 159.28 CURVE"
);
}
);
width = 767;
}
);
note = Abreve;
unicode = 0102;
},
{
glyphname = Acircumflex;
layers = (
{
layerId = "032EDF5D-2B69-4E95-A18F-0FD11DED884D";
paths = (
{
closed = 1;
nodes = (
"351.74 821.79 LINE",
"453.74 922.79 LINE",
"562.24 821.79 LINE",
"635.71 900.71 LINE",
"511.72 1016.13 LINE",
"333.78 839.93 LINE"
);
},
{
closed = 1;
nodes = (
"694.01 754 LINE",
"672.26 772.08 LINE",
"610.41 712.82 LINE",
"550.65 752.97 OFFCURVE",
"477.23 772.92 OFFCURVE",
"405.51 766.5 CURVE SMOOTH",
"332.73 759.99 OFFCURVE",
"261.86 725.88 OFFCURVE",
"215.04 669.78 CURVE SMOOTH",
"191.63 641.73 OFFCURVE",
"174.37 608.48 OFFCURVE",
"165.59 573.01 CURVE SMOOTH",
"156.81 537.55 OFFCURVE",
"156.61 499.93 OFFCURVE",
"165.51 464.5 CURVE SMOOTH",
"174.56 428.47 OFFCURVE",
"193.04 394.83 OFFCURVE",
"218.75 368.02 CURVE SMOOTH",
"237.21 348.77 OFFCURVE",
"259.35 333.09 OFFCURVE",
"283.58 321.96 CURVE",
"173.51 139.52 LINE",
"158.57 131.4 OFFCURVE",
"144.37 121.95 OFFCURVE",
"131.15 111.26 CURVE SMOOTH",
"91.97 79.6 OFFCURVE",
"61.52 37.23 OFFCURVE",
"44.01 -10 CURVE",
"63.01 -10 LINE",
"107.42 36.91 OFFCURVE",
"171.42 64.65 OFFCURVE",
"236.01 65 CURVE SMOOTH",
"293.36 65.31 OFFCURVE",
"350.58 44.22 OFFCURVE",
"394.01 6.77 CURVE",
"505.84 103.37 LINE",
"525.48 80.26 OFFCURVE",
"546.96 58.7 OFFCURVE",
"570.01 38.99 CURVE SMOOTH",
"587.79 23.79 OFFCURVE",
"606.5 9.68 OFFCURVE",
"626.01 -3.24 CURVE",
"759.01 103.82 LINE",
"730.01 136.82 LINE",
"696.01 108.99 LINE",
"676.12 124.4 OFFCURVE",
"662.79 147.43 OFFCURVE",
"657.34 171.99 CURVE SMOOTH",
"651.57 198.01 OFFCURVE",
"653.01 225.01 OFFCURVE",
"653.01 251.66 CURVE SMOOTH",
"653.01 276.49 LINE",
"653.01 612.99 LINE",
"653.01 643.99 LINE SMOOTH",
"653.01 659.91 OFFCURVE",
"653.36 675.96 OFFCURVE",
"656.93 691.48 CURVE SMOOTH",
"660.5 707 OFFCURVE",
"667.14 721.83 OFFCURVE",
"676.63 734.62 CURVE SMOOTH"
);
},
{
closed = 1;
nodes = (
"508.89 639.9 LINE",
"514.06 636.89 OFFCURVE",
"519.1 633.68 OFFCURVE",
"524.01 630.26 CURVE",
"524.01 373.99 LINE",
"348.46 373.99 LINE"
);
},
{
closed = 1;
nodes = (
"292.79 337.19 LINE",
"256 364.27 OFFCURVE",
"228.78 404.44 OFFCURVE",
"218.51 448.98 CURVE SMOOTH",
"208.27 493.42 OFFCURVE",
"215.16 541.8 OFFCURVE",
"238.51 580.98 CURVE SMOOTH",
"255.46 609.42 OFFCURVE",
"280.7 632.75 OFFCURVE",
"310.11 647.96 CURVE SMOOTH",
"339.52 663.17 OFFCURVE",
"372.91 670.34 OFFCURVE",
"406.01 669.48 CURVE SMOOTH",
"432.48 668.8 OFFCURVE",
"458.73 662.94 OFFCURVE",
"483.15 652.7 CURVE"
);
},
{
closed = 1;
nodes = (
"286.32 270.98 LINE",
"524.01 270.98 LINE",
"524.01 177.58 LINE",
"464.01 126.98 LINE",
"406.94 164.79 OFFCURVE",
"335.77 180.77 OFFCURVE",
"268.01 170.98 CURVE SMOOTH",
"251.34 168.57 OFFCURVE",
"234.89 164.63 OFFCURVE",
"218.92 159.28 CURVE"
);
}
);
width = 767;
}
);
note = Acircumflex;
unicode = 00C2;
},
{
glyphname = Adieresis;
layers = (
{
layerId = "032EDF5D-2B69-4E95-A18F-0FD11DED884D";
paths = (
{
closed = 1;
nodes = (
"295.88 953.47 LINE",
"387.23 862.12 LINE",
"477.11 952 LINE",
"385.76 1043.35 LINE"
);
},
{
closed = 1;
nodes = (
"525.88 953.47 LINE",
"617.23 862.12 LINE",
"707.11 952 LINE",
"615.76 1043.35 LINE"
);
},
{
closed = 1;
nodes = (
"694 754 LINE",
"672.25 772.08 LINE",
"610.4 712.82 LINE",
"550.64 752.97 OFFCURVE",
"477.22 772.92 OFFCURVE",
"405.5 766.5 CURVE SMOOTH",
"332.72 759.99 OFFCURVE",
"261.85 725.88 OFFCURVE",
"215.03 669.78 CURVE SMOOTH",
"191.62 641.73 OFFCURVE",
"174.36 608.48 OFFCURVE",
"165.58 573.01 CURVE SMOOTH",
"156.8 537.55 OFFCURVE",
"156.6 499.93 OFFCURVE",
"165.5 464.5 CURVE SMOOTH",
"174.55 428.47 OFFCURVE",
"193.03 394.83 OFFCURVE",
"218.74 368.02 CURVE SMOOTH",
"237.2 348.77 OFFCURVE",
"259.34 333.09 OFFCURVE",
"283.57 321.96 CURVE",
"173.5 139.52 LINE",
"158.56 131.4 OFFCURVE",
"144.36 121.95 OFFCURVE",
"131.14 111.26 CURVE SMOOTH",
"91.96 79.6 OFFCURVE",
"61.51 37.23 OFFCURVE",
"44 -10 CURVE",
"63 -10 LINE",
"107.41 36.91 OFFCURVE",
"171.41 64.65 OFFCURVE",
"236 65 CURVE SMOOTH",
"293.35 65.31 OFFCURVE",
"350.57 44.22 OFFCURVE",
"394 6.77 CURVE",
"505.83 103.37 LINE",
"525.47 80.26 OFFCURVE",
"546.95 58.7 OFFCURVE",
"570 38.99 CURVE SMOOTH",
"587.78 23.79 OFFCURVE",
"606.49 9.68 OFFCURVE",
"626 -3.24 CURVE",
"759 103.82 LINE",
"730 136.82 LINE",
"696 108.99 LINE",
"676.11 124.4 OFFCURVE",
"662.78 147.43 OFFCURVE",
"657.33 171.99 CURVE SMOOTH",
"651.56 198.01 OFFCURVE",
"653 225.01 OFFCURVE",
"653 251.66 CURVE SMOOTH",
"653 276.49 LINE",
"653 612.99 LINE",
"653 643.99 LINE SMOOTH",
"653 659.91 OFFCURVE",
"653.35 675.96 OFFCURVE",
"656.92 691.48 CURVE SMOOTH",
"660.49 707 OFFCURVE",
"667.13 721.83 OFFCURVE",
"676.62 734.62 CURVE SMOOTH"
);
},
{
closed = 1;
nodes = (
"508.88 639.9 LINE",
"514.05 636.89 OFFCURVE",
"519.09 633.68 OFFCURVE",
"524 630.26 CURVE",
"524 373.99 LINE",
"348.45 373.99 LINE"
);
},
{
closed = 1;
nodes = (
"292.78 337.19 LINE",
"255.99 364.27 OFFCURVE",
"228.77 404.44 OFFCURVE",
"218.5 448.98 CURVE SMOOTH",
"208.26 493.42 OFFCURVE",
"215.15 541.8 OFFCURVE",
"238.5 580.98 CURVE SMOOTH",
"255.45 609.42 OFFCURVE",
"280.69 632.75 OFFCURVE",
"310.1 647.96 CURVE SMOOTH",
"339.51 663.17 OFFCURVE",
"372.9 670.34 OFFCURVE",
"406 669.48 CURVE SMOOTH",
"432.47 668.8 OFFCURVE",
"458.72 662.94 OFFCURVE",
"483.14 652.7 CURVE"
);
},
{
closed = 1;
nodes = (
"286.31 270.98 LINE",
"524 270.98 LINE",
"524 177.58 LINE",
"464 126.98 LINE",
"406.93 164.79 OFFCURVE",
"335.76 180.77 OFFCURVE",
"268 170.98 CURVE SMOOTH",
"251.33 168.57 OFFCURVE",
"234.88 164.63 OFFCURVE",
"218.91 159.28 CURVE"
);
}
);
width = 767;
}
);
note = Adieresis;
unicode = 00C4;
},
{
glyphname = Agrave;
layers = (
{
layerId = "032EDF5D-2B69-4E95-A18F-0FD11DED884D";
paths = (
{
closed = 1;
nodes = (
"448.67 983 LINE",
"500 1022.67 LINE",
"585.67 847 LINE",
"577 840.33 LINE"
);
},
{
closed = 1;
nodes = (
"694 754 LINE",
"672.25 772.08 LINE",
"610.4 712.82 LINE",
"550.64 752.97 OFFCURVE",
"477.22 772.92 OFFCURVE",
"405.5 766.5 CURVE SMOOTH",
"332.72 759.99 OFFCURVE",
"261.85 725.88 OFFCURVE",
"215.03 669.78 CURVE SMOOTH",
"191.62 641.73 OFFCURVE",
"174.36 608.48 OFFCURVE",
"165.58 573.01 CURVE SMOOTH",
"156.8 537.55 OFFCURVE",
"156.6 499.93 OFFCURVE",
"165.5 464.5 CURVE SMOOTH",
"174.55 428.47 OFFCURVE",
"193.03 394.83 OFFCURVE",
"218.74 368.02 CURVE SMOOTH",
"237.2 348.77 OFFCURVE",
"259.34 333.09 OFFCURVE",
"283.57 321.96 CURVE",
"173.5 139.52 LINE",
"158.56 131.4 OFFCURVE",
"144.36 121.95 OFFCURVE",
"131.14 111.26 CURVE SMOOTH",
"91.96 79.6 OFFCURVE",
"61.51 37.23 OFFCURVE",
"44 -10 CURVE",
"63 -10 LINE",
"107.41 36.91 OFFCURVE",
"171.41 64.65 OFFCURVE",
"236 65 CURVE SMOOTH",
"293.35 65.31 OFFCURVE",
"350.57 44.22 OFFCURVE",
"394 6.77 CURVE",
"505.83 103.37 LINE",
"525.47 80.26 OFFCURVE",
"546.95 58.7 OFFCURVE",
"570 38.99 CURVE SMOOTH",
"587.78 23.79 OFFCURVE",
"606.49 9.68 OFFCURVE",
"626 -3.24 CURVE",
"759 103.82 LINE",
"730 136.82 LINE",
"696 108.99 LINE",
"676.11 124.4 OFFCURVE",
"662.78 147.43 OFFCURVE",
"657.33 171.99 CURVE SMOOTH",
"651.56 198.01 OFFCURVE",
"653 225.01 OFFCURVE",
"653 251.66 CURVE SMOOTH",
"653 276.49 LINE",
"653 612.99 LINE",
"653 643.99 LINE SMOOTH",
"653 659.91 OFFCURVE",
"653.35 675.96 OFFCURVE",
"656.92 691.48 CURVE SMOOTH",
"660.49 707 OFFCURVE",
"667.13 721.83 OFFCURVE",
"676.62 734.62 CURVE SMOOTH"
);
},
{
closed = 1;
nodes = (
"508.88 639.9 LINE",
"514.05 636.89 OFFCURVE",
"519.09 633.68 OFFCURVE",
"524 630.26 CURVE",
"524 373.99 LINE",
"348.45 373.99 LINE"
);
},
{
closed = 1;
nodes = (
"292.78 337.19 LINE",
"255.99 364.27 OFFCURVE",
"228.77 404.44 OFFCURVE",
"218.5 448.98 CURVE SMOOTH",
"208.26 493.42 OFFCURVE",
"215.15 541.8 OFFCURVE",
"238.5 580.98 CURVE SMOOTH",
"255.45 609.42 OFFCURVE",
"280.69 632.75 OFFCURVE",
"310.1 647.96 CURVE SMOOTH",
"339.51 663.17 OFFCURVE",
"372.9 670.34 OFFCURVE",
"406 669.48 CURVE SMOOTH",
"432.47 668.8 OFFCURVE",
"458.72 662.94 OFFCURVE",
"483.14 652.7 CURVE"
);
},
{
closed = 1;
nodes = (
"286.31 270.98 LINE",
"524 270.98 LINE",
"524 177.58 LINE",
"464 126.98 LINE",
"406.93 164.79 OFFCURVE",
"335.76 180.77 OFFCURVE",
"268 170.98 CURVE SMOOTH",
"251.33 168.57 OFFCURVE",
"234.88 164.63 OFFCURVE",
"218.91 159.28 CURVE"
);
}
);
width = 767;
}
);
note = Agrave;
unicode = 00C0;
},
{
glyphname = Amacron;
layers = (
{
layerId = "032EDF5D-2B69-4E95-A18F-0FD11DED884D";
paths = (
{
closed = 1;
nodes = (
"378.87 868.22 LINE",
"651.84 867.22 LINE",
"651.84 974.22 LINE",
"378.87 975.22 LINE"
);
},
{
closed = 1;
nodes = (
"694 754 LINE",
"672.25 772.08 LINE",
"610.4 712.82 LINE",
"550.64 752.97 OFFCURVE",
"477.22 772.92 OFFCURVE",
"405.5 766.5 CURVE SMOOTH",
"332.72 759.99 OFFCURVE",
"261.85 725.88 OFFCURVE",
"215.03 669.78 CURVE SMOOTH",
"191.62 641.73 OFFCURVE",
"174.36 608.48 OFFCURVE",
"165.58 573.01 CURVE SMOOTH",
"156.8 537.55 OFFCURVE",
"156.6 499.93 OFFCURVE",
"165.5 464.5 CURVE SMOOTH",
"174.55 428.47 OFFCURVE",
"193.03 394.83 OFFCURVE",
"218.74 368.02 CURVE SMOOTH",
"237.2 348.77 OFFCURVE",
"259.34 333.09 OFFCURVE",
"283.57 321.96 CURVE",
"173.5 139.52 LINE",
"158.56 131.4 OFFCURVE",
"144.36 121.95 OFFCURVE",
"131.14 111.26 CURVE SMOOTH",
"91.96 79.6 OFFCURVE",
"61.51 37.23 OFFCURVE",
"44 -10 CURVE",
"63 -10 LINE",
"107.41 36.91 OFFCURVE",
"171.41 64.65 OFFCURVE",
"236 65 CURVE SMOOTH",
"293.35 65.31 OFFCURVE",
"350.57 44.22 OFFCURVE",
"394 6.77 CURVE",
"505.83 103.37 LINE",
"525.47 80.26 OFFCURVE",
"546.95 58.7 OFFCURVE",
"570 38.99 CURVE SMOOTH",
"587.78 23.79 OFFCURVE",
"606.49 9.68 OFFCURVE",
"626 -3.24 CURVE",
"759 103.82 LINE",
"730 136.82 LINE",
"696 108.99 LINE",
"676.11 124.4 OFFCURVE",
"662.78 147.43 OFFCURVE",
"657.33 171.99 CURVE SMOOTH",
"651.56 198.01 OFFCURVE",
"653 225.01 OFFCURVE",
"653 251.66 CURVE SMOOTH",
"653 276.49 LINE",
"653 612.99 LINE",
"653 643.99 LINE SMOOTH",
"653 659.91 OFFCURVE",
"653.35 675.96 OFFCURVE",
"656.92 691.48 CURVE SMOOTH",
"660.49 707 OFFCURVE",
"667.13 721.83 OFFCURVE",
"676.62 734.62 CURVE SMOOTH"
);
},
{
closed = 1;
nodes = (
"508.88 639.9 LINE",
"514.05 636.89 OFFCURVE",
"519.09 633.68 OFFCURVE",
"524 630.26 CURVE",
"524 373.99 LINE",
"348.45 373.99 LINE"
);
},
{
closed = 1;
nodes = (
"292.78 337.19 LINE",
"255.99 364.27 OFFCURVE",
"228.77 404.44 OFFCURVE",
"218.5 448.98 CURVE SMOOTH",
"208.26 493.42 OFFCURVE",
"215.15 541.8 OFFCURVE",
"238.5 580.98 CURVE SMOOTH",
"255.45 609.42 OFFCURVE",
"280.69 632.75 OFFCURVE",
"310.1 647.96 CURVE SMOOTH",
"339.51 663.17 OFFCURVE",
"372.9 670.34 OFFCURVE",
"406 669.48 CURVE SMOOTH",
"432.47 668.8 OFFCURVE",
"458.72 662.94 OFFCURVE",
"483.14 652.7 CURVE"
);
},
{
closed = 1;
nodes = (
"286.31 270.98 LINE",
"524 270.98 LINE",
"524 177.58 LINE",
"464 126.98 LINE",
"406.93 164.79 OFFCURVE",
"335.76 180.77 OFFCURVE",
"268 170.98 CURVE SMOOTH",
"251.33 168.57 OFFCURVE",
"234.88 164.63 OFFCURVE",
"218.91 159.28 CURVE"
);
}
);
width = 767;
}
);
note = Amacron;
unicode = 0100;
},
{
glyphname = Aogonek;
layers = (
{
layerId = "032EDF5D-2B69-4E95-A18F-0FD11DED884D";
paths = (
{
closed = 1;
nodes = (
"675.31 -194.31 LINE",
"643.92 -176.96 OFFCURVE",
"620.07 -146.46 OFFCURVE",
"610.81 -111.81 CURVE SMOOTH",
"602.06 -79.07 OFFCURVE",
"606.36 -43.04 OFFCURVE",
"622.58 -13.28 CURVE SMOOTH",
"625.43 -8.06 OFFCURVE",
"628.64 -3.04 OFFCURVE",
"632.16 1.75 CURVE",
"685.87 44.98 LINE",
"690.15 46.89 OFFCURVE",
"694.53 48.57 OFFCURVE",
"699 50.01 CURVE",
"695.21 52.5 LINE",
"759 103.85 LINE",
"730 136.85 LINE",
"696 109.02 LINE",
"676.11 124.43 OFFCURVE",
"662.78 147.46 OFFCURVE",
"657.33 172.02 CURVE SMOOTH",
"651.56 198.04 OFFCURVE",
"653 225.04 OFFCURVE",
"653 251.69 CURVE SMOOTH",
"653 276.52 LINE",
"653 613.02 LINE",
"653 644.02 LINE SMOOTH",
"653 659.94 OFFCURVE",
"653.35 675.99 OFFCURVE",
"656.92 691.51 CURVE SMOOTH",
"660.49 707.03 OFFCURVE",
"667.13 721.86 OFFCURVE",
"676.62 734.65 CURVE SMOOTH",
"694 754.03 LINE",
"672.25 772.11 LINE",
"610.4 712.85 LINE",
"550.64 753 OFFCURVE",
"477.22 772.95 OFFCURVE",
"405.5 766.53 CURVE SMOOTH",
"332.72 760.02 OFFCURVE",
"261.85 725.91 OFFCURVE",
"215.03 669.81 CURVE SMOOTH",
"191.62 641.76 OFFCURVE",
"174.36 608.51 OFFCURVE",
"165.58 573.04 CURVE SMOOTH",
"156.8 537.58 OFFCURVE",
"156.6 499.96 OFFCURVE",
"165.5 464.53 CURVE SMOOTH",
"174.55 428.5 OFFCURVE",
"193.03 394.86 OFFCURVE",
"218.74 368.05 CURVE SMOOTH",
"237.2 348.8 OFFCURVE",
"259.34 333.12 OFFCURVE",
"283.57 321.99 CURVE",
"173.5 139.55 LINE",
"158.56 131.43 OFFCURVE",
"144.36 121.98 OFFCURVE",
"131.14 111.29 CURVE SMOOTH",
"91.96 79.63 OFFCURVE",
"61.51 37.26 OFFCURVE",
"44 -9.97 CURVE",
"63 -9.97 LINE",
"107.41 36.94 OFFCURVE",
"171.41 64.68 OFFCURVE",
"236 65.03 CURVE SMOOTH",
"293.35 65.34 OFFCURVE",
"350.57 44.25 OFFCURVE",
"394 6.8 CURVE",
"505.83 103.4 LINE",
"516.21 91.19 OFFCURVE",
"527.1 79.41 OFFCURVE",
"538.46 68.11 CURVE",
"538.07 67.48 OFFCURVE",
"537.69 66.84 OFFCURVE",
"537.31 66.21 CURVE SMOOTH",
"523.51 42.93 OFFCURVE",
"516.12 15.74 OFFCURVE",
"517.31 -11.29 CURVE SMOOTH",
"518.3 -33.64 OFFCURVE",
"525.08 -55.55 OFFCURVE",
"535.64 -75.28 CURVE SMOOTH",
"546.2 -95.01 OFFCURVE",
"560.31 -112.66 OFFCURVE",
"575.81 -128.79 CURVE SMOOTH",
"603.55 -157.67 OFFCURVE",
"635.38 -182.42 OFFCURVE",
"668.81 -204.46 CURVE"
);
},
{
closed = 1;
nodes = (
"508.88 639.93 LINE",
"514.05 636.92 OFFCURVE",
"519.09 633.71 OFFCURVE",
"524 630.29 CURVE",
"524 374.02 LINE",
"348.45 374.02 LINE"
);
},
{
closed = 1;
nodes = (
"292.78 337.22 LINE",
"255.99 364.3 OFFCURVE",
"228.77 404.47 OFFCURVE",
"218.5 449.01 CURVE SMOOTH",
"208.26 493.45 OFFCURVE",
"215.15 541.83 OFFCURVE",
"238.5 581.01 CURVE SMOOTH",
"255.45 609.45 OFFCURVE",
"280.69 632.78 OFFCURVE",
"310.1 647.99 CURVE SMOOTH",
"339.51 663.2 OFFCURVE",
"372.9 670.37 OFFCURVE",
"406 669.51 CURVE SMOOTH",
"432.47 668.83 OFFCURVE",
"458.72 662.97 OFFCURVE",
"483.14 652.73 CURVE"
);
},
{
closed = 1;
nodes = (
"286.31 271.01 LINE",
"524 271.01 LINE",
"524 177.61 LINE",
"464 127.01 LINE",
"406.93 164.82 OFFCURVE",
"335.76 180.8 OFFCURVE",
"268 171.01 CURVE SMOOTH",
"251.33 168.6 OFFCURVE",
"234.88 164.66 OFFCURVE",
"218.91 159.31 CURVE"
);
}
);
width = 767;
}
);
note = Aogonek;
unicode = 0104;
},
{
glyphname = Aring;
layers = (
{
layerId = "032EDF5D-2B69-4E95-A18F-0FD11DED884D";
paths = (
{
closed = 1;
nodes = (
"387 813.46 OFFCURVE",
"418.03 776.12 OFFCURVE",
"459.64 766.44 CURVE",
"441.65 768.06 OFFCURVE",
"423.52 768.11 OFFCURVE",
"405.5 766.5 CURVE SMOOTH",
"332.72 759.99 OFFCURVE",
"261.85 725.88 OFFCURVE",
"215.03 669.78 CURVE SMOOTH",
"191.62 641.73 OFFCURVE",
"174.36 608.48 OFFCURVE",
"165.58 573.01 CURVE SMOOTH",
"156.8 537.55 OFFCURVE",
"156.6 499.93 OFFCURVE",
"165.5 464.5 CURVE SMOOTH",
"174.55 428.47 OFFCURVE",
"193.03 394.83 OFFCURVE",
"218.74 368.02 CURVE SMOOTH",
"237.2 348.77 OFFCURVE",
"259.34 333.09 OFFCURVE",
"283.57 321.96 CURVE",
"173.5 139.52 LINE",
"158.56 131.4 OFFCURVE",
"144.36 121.95 OFFCURVE",
"131.14 111.26 CURVE SMOOTH",
"91.96 79.6 OFFCURVE",
"61.51 37.23 OFFCURVE",
"44 -10 CURVE",
"63 -10 LINE",
"107.41 36.91 OFFCURVE",
"171.41 64.65 OFFCURVE",
"236 65 CURVE SMOOTH",
"293.35 65.31 OFFCURVE",
"350.57 44.22 OFFCURVE",
"394 6.77 CURVE",
"505.83 103.37 LINE",
"525.47 80.26 OFFCURVE",
"546.95 58.7 OFFCURVE",
"570 38.99 CURVE SMOOTH",
"587.78 23.79 OFFCURVE",
"606.49 9.68 OFFCURVE",
"626 -3.24 CURVE",
"759 103.82 LINE",
"730 136.82 LINE",
"696 108.99 LINE",
"676.11 124.4 OFFCURVE",
"662.78 147.43 OFFCURVE",
"657.33 171.99 CURVE SMOOTH",
"651.56 198.01 OFFCURVE",
"653 225.01 OFFCURVE",
"653 251.66 CURVE SMOOTH",
"653 276.49 LINE",
"653 612.99 LINE",
"653 643.99 LINE SMOOTH",
"653 659.91 OFFCURVE",
"653.35 675.96 OFFCURVE",
"656.92 691.48 CURVE SMOOTH",
"660.49 707 OFFCURVE",
"667.13 721.83 OFFCURVE",
"676.62 734.62 CURVE SMOOTH",
"694 754 LINE",
"672.25 772.08 LINE",
"610.4 712.82 LINE",
"571.2 739.16 OFFCURVE",
"526.12 756.8 OFFCURVE",
"479.5 764.01 CURVE SMOOTH",
"480 764 OFFCURVE",
"480.5 764 OFFCURVE",
"481 764 CURVE SMOOTH",
"532.89 764 OFFCURVE",
"575 806.11 OFFCURVE",
"575 858 CURVE SMOOTH",
"575 909.89 OFFCURVE",
"532.89 952 OFFCURVE",
"481 952 CURVE SMOOTH",
"429.11 952 OFFCURVE",
"387 909.89 OFFCURVE",
"387 858 CURVE SMOOTH"
);
},
{
closed = 1;
nodes = (
"415.2 894.32 OFFCURVE",
"444.68 923.8 OFFCURVE",
"481 923.8 CURVE SMOOTH",
"517.32 923.8 OFFCURVE",
"546.8 894.32 OFFCURVE",
"546.8 858 CURVE SMOOTH",
"546.8 821.68 OFFCURVE",
"517.32 792.2 OFFCURVE",
"481 792.2 CURVE SMOOTH",
"444.68 792.2 OFFCURVE",
"415.2 821.68 OFFCURVE",
"415.2 858 CURVE SMOOTH"
);
},
{
closed = 1;
nodes = (
"508.88 639.91 LINE",
"514.05 636.9 OFFCURVE",
"519.09 633.69 OFFCURVE",
"524 630.27 CURVE",
"524 374 LINE",
"348.45 374 LINE"
);
},
{
closed = 1;
nodes = (
"292.78 337.2 LINE",
"255.99 364.28 OFFCURVE",
"228.77 404.45 OFFCURVE",
"218.5 448.99 CURVE SMOOTH",
"208.26 493.43 OFFCURVE",
"215.15 541.81 OFFCURVE",
"238.5 580.99 CURVE SMOOTH",
"255.45 609.43 OFFCURVE",
"280.69 632.76 OFFCURVE",
"310.1 647.97 CURVE SMOOTH",
"339.51 663.18 OFFCURVE",
"372.9 670.35 OFFCURVE",
"406 669.49 CURVE SMOOTH",
"432.47 668.81 OFFCURVE",
"458.72 662.95 OFFCURVE",
"483.14 652.71 CURVE"
);
},
{
closed = 1;
nodes = (
"286.31 270.99 LINE",
"524 270.99 LINE",
"524 177.59 LINE",
"464 126.99 LINE",
"406.93 164.8 OFFCURVE",
"335.76 180.78 OFFCURVE",
"268 170.99 CURVE SMOOTH",
"251.33 168.58 OFFCURVE",
"234.88 164.64 OFFCURVE",
"218.91 159.29 CURVE"
);
}
);
width = 767;
}
);
note = Aring;
unicode = 00C5;
},
{
glyphname = Atilde;
layers = (
{
layerId = "032EDF5D-2B69-4E95-A18F-0FD11DED884D";
paths = (
{
closed = 1;
nodes = (
"323.2 847.18 LINE",
"331.13 854.81 OFFCURVE",
"339.94 861.38 OFFCURVE",
"349.36 866.62 CURVE SMOOTH",
"358.22 871.55 OFFCURVE",
"367.64 875.3 OFFCURVE",
"377.35 877.63 CURVE SMOOTH",
"399.92 883.04 OFFCURVE",
"423.58 880.03 OFFCURVE",
"445.65 872.86 CURVE SMOOTH",
"467.72 865.7 OFFCURVE",
"488.7 855.05 OFFCURVE",
"510.68 847.58 CURVE SMOOTH",
"529.15 841.3 OFFCURVE",
"548.42 837.35 OFFCURVE",
"567.81 837.64 CURVE SMOOTH",
"587.2 837.93 OFFCURVE",
"606.55 842.43 OFFCURVE",
"624.39 850.79 CURVE SMOOTH",
"646.06 860.94 OFFCURVE",
"665.44 876.59 OFFCURVE",
"681.37 895.51 CURVE SMOOTH",
"693.16 909.51 OFFCURVE",
"703.11 925.32 OFFCURVE",
"710.91 942.28 CURVE",
"685.75 955.72 LINE",
"680.23 945.78 OFFCURVE",
"672.41 937.37 OFFCURVE",
"663.27 931.34 CURVE SMOOTH",
"654.73 925.71 OFFCURVE",
"645.11 922.15 OFFCURVE",
"635.27 920.33 CURVE SMOOTH",
"616.73 916.9 OFFCURVE",
"597.68 919.39 OFFCURVE",
"579.42 924.03 CURVE SMOOTH",
"561.16 928.67 OFFCURVE",
"543.46 935.52 OFFCURVE",
"525.68 941.95 CURVE SMOOTH",
"503.4 950.01 OFFCURVE",
"480.69 957.44 OFFCURVE",
"457.24 959.44 CURVE SMOOTH",
"433.79 961.44 OFFCURVE",
"409.79 957.56 OFFCURVE",
"388.23 947.17 CURVE SMOOTH",
"366.69 936.79 OFFCURVE",
"347.91 920.55 OFFCURVE",
"331.25 902.45 CURVE SMOOTH",
"319.26 889.41 OFFCURVE",
"308.21 875.36 OFFCURVE",
"298.03 860.63 CURVE"
);
},
{
closed = 1;
nodes = (
"693.99 754.01 LINE",
"672.24 772.09 LINE",
"610.39 712.83 LINE",
"550.63 752.98 OFFCURVE",
"477.21 772.93 OFFCURVE",
"405.49 766.51 CURVE SMOOTH",
"332.71 760 OFFCURVE",
"261.84 725.89 OFFCURVE",
"215.02 669.79 CURVE SMOOTH",
"191.61 641.74 OFFCURVE",
"174.35 608.49 OFFCURVE",
"165.57 573.02 CURVE SMOOTH",
"156.79 537.56 OFFCURVE",
"156.59 499.94 OFFCURVE",
"165.49 464.51 CURVE SMOOTH",
"174.54 428.48 OFFCURVE",
"193.02 394.84 OFFCURVE",
"218.73 368.03 CURVE SMOOTH",
"237.19 348.78 OFFCURVE",
"259.33 333.1 OFFCURVE",
"283.56 321.97 CURVE",
"173.49 139.53 LINE",
"158.55 131.41 OFFCURVE",
"144.35 121.96 OFFCURVE",
"131.13 111.27 CURVE SMOOTH",
"91.95 79.61 OFFCURVE",
"61.5 37.24 OFFCURVE",
"43.99 -9.99 CURVE",
"62.99 -9.99 LINE",
"107.4 36.92 OFFCURVE",
"171.4 64.66 OFFCURVE",
"235.99 65.01 CURVE SMOOTH",
"293.34 65.32 OFFCURVE",
"350.56 44.23 OFFCURVE",
"393.99 6.78 CURVE",
"505.82 103.38 LINE",
"525.46 80.27 OFFCURVE",
"546.94 58.71 OFFCURVE",
"569.99 39 CURVE SMOOTH",
"587.77 23.8 OFFCURVE",
"606.48 9.69 OFFCURVE",
"625.99 -3.23 CURVE",
"758.99 103.83 LINE",
"729.99 136.83 LINE",
"695.99 109 LINE",
"676.1 124.41 OFFCURVE",
"662.77 147.44 OFFCURVE",
"657.32 172 CURVE SMOOTH",
"651.55 198.02 OFFCURVE",
"652.99 225.02 OFFCURVE",
"652.99 251.67 CURVE SMOOTH",
"652.99 276.5 LINE",
"652.99 613 LINE",
"652.99 644 LINE SMOOTH",
"652.99 659.92 OFFCURVE",
"653.34 675.97 OFFCURVE",
"656.91 691.49 CURVE SMOOTH",
"660.48 707.01 OFFCURVE",
"667.12 721.84 OFFCURVE",
"676.61 734.63 CURVE SMOOTH"
);
},
{
closed = 1;
nodes = (
"508.87 639.91 LINE",
"514.04 636.9 OFFCURVE",
"519.08 633.69 OFFCURVE",
"523.99 630.27 CURVE",
"523.99 374 LINE",
"348.44 374 LINE"
);
},
{
closed = 1;
nodes = (
"292.77 337.2 LINE",
"255.98 364.28 OFFCURVE",
"228.76 404.45 OFFCURVE",
"218.49 448.99 CURVE SMOOTH",
"208.25 493.43 OFFCURVE",
"215.14 541.81 OFFCURVE",
"238.49 580.99 CURVE SMOOTH",
"255.44 609.43 OFFCURVE",
"280.68 632.76 OFFCURVE",
"310.09 647.97 CURVE SMOOTH",
"339.5 663.18 OFFCURVE",
"372.89 670.35 OFFCURVE",
"405.99 669.49 CURVE SMOOTH",
"432.46 668.81 OFFCURVE",
"458.71 662.95 OFFCURVE",
"483.13 652.71 CURVE"
);
},
{
closed = 1;
nodes = (
"286.3 270.99 LINE",
"523.99 270.99 LINE",
"523.99 177.59 LINE",
"463.99 126.99 LINE",
"406.92 164.8 OFFCURVE",
"335.75 180.78 OFFCURVE",
"267.99 170.99 CURVE SMOOTH",
"251.32 168.58 OFFCURVE",
"234.87 164.64 OFFCURVE",
"218.9 159.29 CURVE"
);
}
);
width = 767;
}
);
note = Atilde;
unicode = 00C3;
},
{
glyphname = AE;
layers = (
{
layerId = "032EDF5D-2B69-4E95-A18F-0FD11DED884D";
paths = (
{
closed = 1;
nodes = (
"941.63 769.01 LINE",
"941.63 769.01 LINE",
"632 580.75 LINE",
"632 612.99 LINE",
"632 643.99 LINE SMOOTH",
"632 659.9 OFFCURVE",
"632.41 675.94 OFFCURVE",
"636.04 691.43 CURVE SMOOTH",
"639.67 706.92 OFFCURVE",
"646.33 721.7 OFFCURVE",
"655.63 734.61 CURVE SMOOTH",
"660.71 741.66 OFFCURVE",
"666.55 748.17 OFFCURVE",
"673.01 753.99 CURVE",
"651.26 772.07 LINE",
"589.41 712.81 LINE",
"529.65 752.96 OFFCURVE",
"456.23 772.91 OFFCURVE",
"384.51 766.49 CURVE SMOOTH",
"311.73 759.98 OFFCURVE",
"240.86 725.87 OFFCURVE",
"194.04 669.77 CURVE SMOOTH",
"170.63 641.72 OFFCURVE",
"153.37 608.47 OFFCURVE",
"144.59 573 CURVE SMOOTH",
"135.81 537.54 OFFCURVE",
"135.61 499.92 OFFCURVE",
"144.51 464.49 CURVE SMOOTH",
"153.56 428.46 OFFCURVE",
"172.04 394.82 OFFCURVE",
"197.75 368.01 CURVE SMOOTH",
"216.21 348.76 OFFCURVE",
"238.35 333.08 OFFCURVE",
"262.58 321.95 CURVE",
"152.51 139.51 LINE",
"137.57 131.39 OFFCURVE",
"123.37 121.94 OFFCURVE",
"110.15 111.25 CURVE SMOOTH",
"70.97 79.59 OFFCURVE",
"40.52 37.22 OFFCURVE",
"23.01 -10.01 CURVE",
"42.01 -10.01 LINE",
"86.42 36.9 OFFCURVE",
"150.42 64.64 OFFCURVE",
"215.01 64.99 CURVE SMOOTH",
"272.36 65.3 OFFCURVE",
"329.58 44.21 OFFCURVE",
"373.01 6.76 CURVE",
"543.51 155.28 LINE",
"553.36 157.05 LINE",
"567.14 133.44 OFFCURVE",
"583.56 111.38 OFFCURVE",
"602.38 91.52 CURVE SMOOTH",
"669.36 20.85 OFFCURVE",
"766.8 -21.32 OFFCURVE",
"864.08 -17.01 CURVE SMOOTH",
"914.65 -14.77 OFFCURVE",
"964.79 -0.11 OFFCURVE",
"1007.88 26.45 CURVE SMOOTH",
"1050.97 53.01 OFFCURVE",
"1086.74 91.57 OFFCURVE",
"1109.08 136.99 CURVE SMOOTH",
"1124.84 169.03 OFFCURVE",
"1133.94 204.32 OFFCURVE",
"1135.58 239.99 CURVE",
"1116.41 239.99 LINE",
"1096.86 199.38 OFFCURVE",
"1066.27 164.16 OFFCURVE",
"1028.82 139.1 CURVE SMOOTH",
"993.41 115.41 OFFCURVE",
"951.96 100.86 OFFCURVE",
"909.53 97.03 CURVE",
"909.53 333 LINE",
"1020.73 333 LINE",
"1142.73 460 LINE",
"909.53 460 LINE",
"909.53 634.85 LINE",
"914.51 632 OFFCURVE",
"919.52 629.2 OFFCURVE",
"924.55 626.44 CURVE SMOOTH",
"959.21 607.42 OFFCURVE",
"994.99 590.47 OFFCURVE",
"1031.65 575.69 CURVE",
"1150.59 699.92 LINE",
"1142.41 709.56 LINE",
"1110.87 683.38 LINE",
"1088.08 690.54 OFFCURVE",
"1065.73 699.12 OFFCURVE",
"1043.99 709.03 CURVE SMOOTH",
"1007.95 725.47 OFFCURVE",
"973.6 745.61 OFFCURVE",
"941.66 769.03 CURVE SMOOTH"
);
},
{
closed = 1;
nodes = (
"647.12 246.83 LINE",
"641.22 258.75 OFFCURVE",
"636.16 271.09 OFFCURVE",
"632.03 283.73 CURVE",
"632.03 547.23 LINE",
"707.18 592.93 LINE",
"707.18 486.1 OFFCURVE",
"707.18 379.27 OFFCURVE",
"707.18 272.44 CURVE"
);
},
{
closed = 1;
nodes = (
"836.18 297.5 LINE",
"836.24 671.4 LINE",
"843.71 675.94 LINE",
"855.92 667.65 OFFCURVE",
"868.31 659.62 OFFCURVE",
"880.87 651.88 CURVE",
"880.87 466.62 OFFCURVE",
"880.87 281.37 OFFCURVE",
"880.87 96.11 CURVE",
"810.11 97.89 OFFCURVE",
"740.48 129.58 OFFCURVE",
"692.17 181.49 CURVE SMOOTH",
"680.17 194.38 OFFCURVE",
"669.45 208.45 OFFCURVE",
"660.15 223.41 CURVE"
);
},
{
closed = 1;
nodes = (
"487.9 639.92 LINE",
"493.07 636.91 OFFCURVE",
"498.11 633.7 OFFCURVE",
"503.02 630.28 CURVE",
"503.02 374.01 LINE",
"327.47 374.01 LINE"
);
},
{
closed = 1;
nodes = (
"271.8 337.21 LINE",
"235.01 364.29 OFFCURVE",
"207.79 404.46 OFFCURVE",
"197.52 449 CURVE SMOOTH",
"187.28 493.44 OFFCURVE",
"194.17 541.82 OFFCURVE",
"217.52 581 CURVE SMOOTH",
"234.47 609.44 OFFCURVE",
"259.71 632.77 OFFCURVE",
"289.12 647.98 CURVE SMOOTH",
"318.53 663.19 OFFCURVE",
"351.92 670.36 OFFCURVE",
"385.02 669.5 CURVE SMOOTH",
"411.49 668.82 OFFCURVE",
"437.74 662.96 OFFCURVE",
"462.16 652.72 CURVE"
);
},
{
closed = 1;
nodes = (
"265.33 271 LINE",
"503.02 271 LINE",
"503.02 178.73 LINE",
"443.02 127 LINE",
"385.95 164.81 OFFCURVE",
"314.78 180.79 OFFCURVE",
"247.02 171 CURVE SMOOTH",
"230.35 168.59 OFFCURVE",
"213.9 164.65 OFFCURVE",
"197.93 159.3 CURVE"
);
}
);
width = 1188;
}
);
note = AE;
unicode = 00C6;
},
{
color = 4;
glyphname = B;
lastChange = "2020-08-31 23:16:03 +0000";
layers = (
{
layerId = "032EDF5D-2B69-4E95-A18F-0FD11DED884D";
paths = (
{
closed = 1;
nodes = (
"86 309 LINE",
"82 352 OFFCURVE",
"112 367 OFFCURVE",
"135 367 CURVE SMOOTH",
"174.27 367.2 LINE",
"174.27 299.33 LINE SMOOTH",
"174 215 OFFCURVE",
"174 154 OFFCURVE",
"113.18 119.33 CURVE",
"122.51 95.33 LINE",
"191 116 OFFCURVE",
"303 167 OFFCURVE",
"303 294 CURVE SMOOTH",
"303.26 406 LINE",
"303.33 552.48 LINE SMOOTH",
"303 588 OFFCURVE",
"309 605 OFFCURVE",
"336.34 626.12 CURVE SMOOTH",
"484.11 741.92 LINE",
"490.34 764.16 LINE",
"462 747 OFFCURVE",
"432 740 OFFCURVE",
"394 740 CURVE SMOOTH",
"352 740 OFFCURVE",
"309 760 OFFCURVE",
"261.34 758.67 CURVE SMOOTH",
"188 757 OFFCURVE",
"120 704 OFFCURVE",
"91.34 634.17 CURVE",
"114.84 634.17 LINE",
"122 658 OFFCURVE",
"150 678 OFFCURVE",
"175 678 CURVE SMOOTH",
"236 677 OFFCURVE",
"256 653 OFFCURVE",
"319.02 655.35 CURVE",
"234.34 601.59 LINE SMOOTH",
"191 574 OFFCURVE",
"174 556 OFFCURVE",
"174.22 505.02 CURVE SMOOTH",
"174.23 479.05 LINE",
"114 476 OFFCURVE",
"52 442 OFFCURVE",
"52 370 CURVE SMOOTH",
"52 350 OFFCURVE",
"53 335 OFFCURVE",
"67.28 309.38 CURVE"
);
},
{
closed = 1;
nodes = (
"93.06 -31.98 LINE",
"139 13 OFFCURVE",
"212 46 OFFCURVE",
"298 46 CURVE SMOOTH",
"353 46 OFFCURVE",
"424.71 32.51 OFFCURVE",
"494.36 -3.81 CURVE",
"828.51 169.02 LINE",
"828.51 420.02 LINE",
"790 452 OFFCURVE",
"739 481 OFFCURVE",
"691.96 498.24 CURVE",
"816.35 585.52 LINE",
"654.6 775.25 LINE",
"535 736 OFFCURVE",
"428 660 OFFCURVE",
"350.85 560.53 CURVE",
"350.85 248.02 LINE SMOOTH",
"351 215 OFFCURVE",
"345 186 OFFCURVE",
"323.68 155.29 CURVE",
"232 144 OFFCURVE",
"105 46 OFFCURVE",
"68.77 -31.98 CURVE"
);
},
{
closed = 1;
nodes = (
"551.86 156.83 LINE",
"697.52 230.37 LINE",
"697.52 120.03 LINE",
"615.77 82.03 LINE",
"596.36 99.24 OFFCURVE",
"574.84 114.03 OFFCURVE",
"551.86 126.06 CURVE"
);
},
{
closed = 1;
nodes = (
"551.86 427.77 LINE",
"595 413 OFFCURVE",
"646 386 OFFCURVE",
"683.31 360.27 CURVE",
"551.86 293.91 LINE"
);
},
{
closed = 1;
nodes = (
"480 157 OFFCURVE",
"430 166 OFFCURVE",
"374.67 162.44 CURVE",
"451 231 OFFCURVE",
"484 256 OFFCURVE",
"483.86 350.54 CURVE SMOOTH",
"483.86 406.54 LINE",
"483.86 612.31 LINE SMOOTH",
"484 637 OFFCURVE",
"499 666 OFFCURVE",
"523.2 684.87 CURVE",
"523.2 139.32 LINE"
);
},
{
closed = 1;
nodes = (
"551.87 261.8 LINE",
"697.53 335.34 LINE",
"697.53 262.49 LINE",
"551.87 188.95 LINE"
);
},
{
closed = 1;
nodes = (
"684.87 534.22 LINE",
"551.87 434.93 LINE",
"551.87 690.79 LINE"
);
}
);
width = 855;
},
{
associatedMasterId = "032EDF5D-2B69-4E95-A18F-0FD11DED884D";
layerId = "C0BF3AF4-91C6-4083-A89D-162640A9C8F4";
name = "Aug 29 20, 23:19";
paths = (
{
closed = 1;
nodes = (
"86.42 309.36 LINE",
"85.12 316.51 OFFCURVE",
"85.33 323.94 OFFCURVE",
"87.08 331 CURVE SMOOTH",
"90.02 342.9 OFFCURVE",
"97.62 353.68 OFFCURVE",
"108.16 359.94 CURVE SMOOTH",
"113.43 363.07 OFFCURVE",
"119.33 365.07 OFFCURVE",
"125.37 366.1 CURVE SMOOTH",
"131.41 367.13 OFFCURVE",
"137.57 367.2 OFFCURVE",
"143.7 367.2 CURVE SMOOTH",
"153.89 367.2 OFFCURVE",
"164.08 367.2 OFFCURVE",
"174.27 367.2 CURVE",
"174.27 344.58 OFFCURVE",
"174.27 321.95 OFFCURVE",
"174.27 299.33 CURVE SMOOTH",
"174.27 272.96 OFFCURVE",
"174.87 246.5 OFFCURVE",
"171.79 220.32 CURVE SMOOTH",
"168.71 194.14 OFFCURVE",
"160.94 167.89 OFFCURVE",
"144.85 147 CURVE SMOOTH",
"136.24 135.82 OFFCURVE",
"125.43 126.33 OFFCURVE",
"113.18 119.33 CURVE",
"122.51 95.33 LINE",
"181.78 110.18 OFFCURVE",
"238.21 142.95 OFFCURVE",
"273.26 193 CURVE SMOOTH",
"284.46 209 OFFCURVE",
"293.04 226.9 OFFCURVE",
"297.83 245.83 CURVE SMOOTH",
"302.62 264.76 OFFCURVE",
"303.26 284.47 OFFCURVE",
"303.26 304 CURVE SMOOTH",
"303.26 406 LINE",
"303.33 552.48 LINE SMOOTH",
"303.34 566.63 OFFCURVE",
"303.73 581.15 OFFCURVE",
"309.17 594.21 CURVE SMOOTH",
"311.89 600.74 OFFCURVE",
"315.78 606.76 OFFCURVE",
"320.51 612.03 CURVE SMOOTH",
"325.24 617.29 OFFCURVE",
"330.78 621.75 OFFCURVE",
"336.34 626.12 CURVE SMOOTH",
"484.11 741.92 LINE",
"490.34 764.16 LINE",
"479 757 OFFCURVE",
"466 751 OFFCURVE",
"453 747 CURVE SMOOTH",
"434 742 OFFCURVE",
"414 739 OFFCURVE",
"393.84 739.92 CURVE SMOOTH",
"371 741 OFFCURVE",
"350 746 OFFCURVE",
"328 750 CURVE SMOOTH",
"306 755 OFFCURVE",
"284 759 OFFCURVE",
"261.34 758.67 CURVE SMOOTH",
"233 758 OFFCURVE",
"205 750 OFFCURVE",
"181 736 CURVE SMOOTH",
"139 713 OFFCURVE",
"108 675 OFFCURVE",
"91.34 634.17 CURVE",
"114.84 634.17 LINE",
"118 645 OFFCURVE",
"125 655 OFFCURVE",
"134 662 CURVE SMOOTH",
"143 670 OFFCURVE",
"155 675 OFFCURVE",
"167 677 CURVE SMOOTH",
"188 681 OFFCURVE",
"209 677 OFFCURVE",
"229 671 CURVE SMOOTH",
"249 666 OFFCURVE",
"269 659 OFFCURVE",
"289.84 656.04 CURVE SMOOTH",
"299.51 654.82 OFFCURVE",
"309.31 654.61 OFFCURVE",
"319.02 655.35 CURVE",
"290.8 637.41 OFFCURVE",
"262.58 619.49 OFFCURVE",
"234.34 601.59 CURVE SMOOTH",
"217.28 590.78 OFFCURVE",
"199.8 579.47 OFFCURVE",
"188.38 562.82 CURVE SMOOTH",
"182.67 554.49 OFFCURVE",
"178.64 545.03 OFFCURVE",
"176.52 535.16 CURVE SMOOTH",
"174.39 525.29 OFFCURVE",
"174.21 515.12 OFFCURVE",
"174.22 505.02 CURVE SMOOTH",
"174.23 479.05 LINE",
"152.44 475.9 OFFCURVE",
"130.58 472.58 OFFCURVE",
"110.76 463.27 CURVE SMOOTH",
"96.74 456.68 OFFCURVE",
"84.11 447.04 OFFCURVE",
"74.47 434.92 CURVE SMOOTH",
"64.82 422.8 OFFCURVE",
"58.17 408.38 OFFCURVE",
"54.76 393.27 CURVE SMOOTH",
"48.4 365.08 OFFCURVE",
"53.22 334.64 OFFCURVE",
"67.28 309.38 CURVE"
);
},
{
closed = 1;
nodes = (
"828.51 169.02 LINE",
"828.51 420.02 LINE",
"805.53 439.01 OFFCURVE",
"780.71 455.78 OFFCURVE",
"754.51 470.02 CURVE SMOOTH",
"734.39 480.95 OFFCURVE",
"713.46 490.39 OFFCURVE",
"691.96 498.24 CURVE",
"816.35 585.52 LINE",
"654.6 775.25 LINE",
"594.15 755.17 OFFCURVE",
"536.73 726.01 OFFCURVE",
"484.85 689.05 CURVE SMOOTH",
"434.27 653.01 OFFCURVE",
"388.97 609.57 OFFCURVE",
"350.85 560.53 CURVE",
"350.85 248.02 LINE SMOOTH",
"350.85 236.74 OFFCURVE",
"350.61 225.41 OFFCURVE",
"348.73 214.29 CURVE SMOOTH",
"346.85 203.17 OFFCURVE",
"343.46 192.32 OFFCURVE",
"338.85 182.02 CURVE SMOOTH",
"334.66 172.65 OFFCURVE",
"329.55 163.71 OFFCURVE",
"323.68 155.29 CURVE",
"217.73 132.57 OFFCURVE",
"122.84 62.17 OFFCURVE",
"68.77 -31.98 CURVE",
"93.06 -31.98 LINE",
"114.91 -10.78 OFFCURVE",
"140.52 6.5 OFFCURVE",
"168.27 19.02 CURVE SMOOTH",
"199.29 33.01 OFFCURVE",
"232.86 41.04 OFFCURVE",
"266.77 44.02 CURVE SMOOTH",
"345.02 50.9 OFFCURVE",
"424.71 32.51 OFFCURVE",
"494.36 -3.81 CURVE"
);
},
{
closed = 1;
nodes = (
"551.86 156.83 LINE",
"697.52 230.37 LINE",
"697.52 120.03 LINE",
"615.77 82.03 LINE",
"596.36 99.24 OFFCURVE",
"574.84 114.03 OFFCURVE",
"551.86 126.06 CURVE"
);
},
{
closed = 1;
nodes = (
"551.86 427.77 LINE",
"581.39 417.3 OFFCURVE",
"610.02 404.33 OFFCURVE",
"637.36 389.03 CURVE SMOOTH",
"653.13 380.2 OFFCURVE",
"668.47 370.6 OFFCURVE",
"683.31 360.27 CURVE",
"551.86 293.91 LINE"
);
},
{
closed = 1;
nodes = (
"519.08 140.98 OFFCURVE",
"514.94 142.55 OFFCURVE",
"510.77 144.04 CURVE SMOOTH",
"467.34 159.52 OFFCURVE",
"420.69 165.48 OFFCURVE",
"374.67 162.44 CURVE",
"385.39 171.98 OFFCURVE",
"396.17 181.47 OFFCURVE",
"406.86 191.04 CURVE SMOOTH",
"429.79 211.58 OFFCURVE",
"452.25 233.59 OFFCURVE",
"466.46 260.9 CURVE SMOOTH",
"473.56 274.56 OFFCURVE",
"478.46 289.34 OFFCURVE",
"481.05 304.51 CURVE SMOOTH",
"483.64 319.68 OFFCURVE",
"483.86 335.15 OFFCURVE",
"483.86 350.54 CURVE SMOOTH",
"483.86 406.54 LINE",
"483.86 612.31 LINE",
"485.48 629.44 OFFCURVE",
"491.37 646.15 OFFCURVE",
"500.86 660.51 CURVE SMOOTH",
"506.96 669.74 OFFCURVE",
"514.54 677.98 OFFCURVE",
"523.2 684.87 CURVE",
"523.2 503.02 OFFCURVE",
"523.2 321.17 OFFCURVE",
"523.2 139.32 CURVE"
);
},
{
closed = 1;
nodes = (
"551.87 261.8 LINE",
"697.53 335.34 LINE",
"697.53 262.49 LINE",
"551.87 188.95 LINE"
);
},
{
closed = 1;
nodes = (
"684.87 534.22 LINE",
"551.87 434.93 LINE",
"551.87 520.22 OFFCURVE",
"551.87 605.5 OFFCURVE",
"551.87 690.79 CURVE"
);
}
);
visible = 1;
width = 855;
}
);
note = B;
unicode = 0042;
},
{
color = 4;
glyphname = C;
lastChange = "2020-08-31 23:16:03 +0000";
layers = (
{
layerId = "032EDF5D-2B69-4E95-A18F-0FD11DED884D";
paths = (
{
closed = 1;
nodes = (
"580 -17 OFFCURVE",
"712 101 OFFCURVE",
"715.68 240.01 CURVE",
"696.51 240.01 LINE",
"658 163 OFFCURVE",
"584 109 OFFCURVE",
"499.62 97.41 CURVE",
"499.62 634.86 LINE",
"531 617 OFFCURVE",
"588 589 OFFCURVE",
"621.74 575.7 CURVE",
"740.68 699.93 LINE",
"732.5 709.57 LINE",
"700.95 683.39 LINE",
"646 701 OFFCURVE",
"583 731 OFFCURVE",
"531.74 769.04 CURVE",
"267.62 607.69 LINE",
"293.78 650.07 OFFCURVE",
"331 686 OFFCURVE",
"375 708 CURVE",
"365.68 722.86 LINE",
"208 669 OFFCURVE",
"93 513 OFFCURVE",
"93.18 358.01 CURVE SMOOTH",
"93 144 OFFCURVE",
"234 -17 OFFCURVE",
"454 -17 CURVE SMOOTH"
);
},
{
closed = 1;
nodes = (
"219 305 OFFCURVE",
"216 332 OFFCURVE",
"216 397 CURVE SMOOTH",
"216 460 OFFCURVE",
"229 521 OFFCURVE",
"243.64 559.44 CURVE",
"297.26 592.2 LINE",
"297.26 272.42 LINE",
"242.44 249.07 LINE"
);
},
{
closed = 1;
nodes = (
"426.26 297.48 LINE",
"426.32 671.04 LINE",
"434.05 675.76 LINE",
"446.18 667.53 OFFCURVE",
"458.48 659.56 OFFCURVE",
"470.96 651.87 CURVE",
"470.96 95.08 LINE",
"379 93 OFFCURVE",
"297 143 OFFCURVE",
"253.74 224.87 CURVE"
);
}
);
width = 748;
},
{
associatedMasterId = "032EDF5D-2B69-4E95-A18F-0FD11DED884D";
layerId = "2632A00B-4667-409E-B115-90475A1DB9AA";
name = "Aug 30 20, 00:47";
paths = (
{
closed = 1;
nodes = (
"365.68 722.86 LINE",
"289.26 696.89 OFFCURVE",
"220.99 647.41 OFFCURVE",
"172.6 582.81 CURVE SMOOTH",
"124.21 518.21 OFFCURVE",
"95.87 438.68 OFFCURVE",
"93.18 358.01 CURVE SMOOTH",
"89.93 260.41 OFFCURVE",
"125.11 161.42 OFFCURVE",
"191.72 90.01 CURVE SMOOTH",
"258.33 18.6 OFFCURVE",
"356.75 -23.72 OFFCURVE",
"454.18 -16.99 CURVE SMOOTH",
"503.11 -13.61 OFFCURVE",
"551.29 1.88 OFFCURVE",
"592.47 28.51 CURVE SMOOTH",
"633.66 55.14 OFFCURVE",
"667.65 92.94 OFFCURVE",
"689.18 137.01 CURVE SMOOTH",
"704.85 169.08 OFFCURVE",
"713.93 204.36 OFFCURVE",
"715.68 240.01 CURVE",
"696.51 240.01 LINE",
"677.11 201.22 OFFCURVE",
"648.01 167.31 OFFCURVE",
"612.57 142.31 CURVE SMOOTH",
"579.15 118.73 OFFCURVE",
"540.12 103.08 OFFCURVE",
"499.62 97.41 CURVE",
"499.62 276.56 OFFCURVE",
"499.62 455.71 OFFCURVE",
"499.62 634.86 CURVE",
"504.6 632.01 OFFCURVE",
"509.61 629.21 OFFCURVE",
"514.64 626.45 CURVE SMOOTH",
"549.29 607.43 OFFCURVE",
"585.08 590.48 OFFCURVE",
"621.74 575.7 CURVE",
"740.68 699.93 LINE",
"732.5 709.57 LINE",
"700.95 683.39 LINE",
"678.16 690.55 OFFCURVE",
"655.81 699.13 OFFCURVE",
"634.07 709.04 CURVE SMOOTH",
"598.03 725.48 OFFCURVE",
"563.68 745.62 OFFCURVE",
"531.74 769.04 CURVE",
"531.74 769.04 LINE",
"531.74 769.04 LINE",
"267.62 607.69 LINE",
"293.78 650.07 OFFCURVE",
"331.02 685.66 OFFCURVE",
"375.26 708.5 CURVE"
);
},
{
closed = 1;
nodes = (
"242.44 249.07 LINE",
"235.12 266.79 OFFCURVE",
"229.47 285.24 OFFCURVE",
"225.34 303.94 CURVE SMOOTH",
"215.56 348.3 OFFCURVE",
"213.63 394.21 OFFCURVE",
"217.26 439.49 CURVE SMOOTH",
"220.54 480.43 OFFCURVE",
"228.6 521.31 OFFCURVE",
"243.64 559.44 CURVE",
"297.26 592.2 LINE",
"297.26 485.61 OFFCURVE",
"297.26 379.02 OFFCURVE",
"297.26 272.42 CURVE"
);
},
{
closed = 1;
nodes = (
"426.26 297.48 LINE",
"426.32 671.04 LINE",
"434.05 675.76 LINE",
"446.18 667.53 OFFCURVE",
"458.48 659.56 OFFCURVE",
"470.96 651.87 CURVE",
"470.96 466.27 OFFCURVE",
"470.96 280.68 OFFCURVE",
"470.96 95.08 CURVE",
"438.69 94.36 OFFCURVE",
"406.26 100 OFFCURVE",
"376.32 112.03 CURVE SMOOTH",
"339.77 126.72 OFFCURVE",
"307.19 150.98 OFFCURVE",
"282.27 181.48 CURVE SMOOTH",
"271.28 194.93 OFFCURVE",
"261.8 209.51 OFFCURVE",
"253.74 224.87 CURVE"
);
}
);
visible = 1;
width = 748;
}
);
note = C;
unicode = 0043;
},
{
glyphname = Cacute;
layers = (
{
layerId = "032EDF5D-2B69-4E95-A18F-0FD11DED884D";
paths = (
{
closed = 1;
nodes = (
"586.64 959 LINE",
"535.31 998.67 LINE",
"449.64 823 LINE",
"458.31 816.33 LINE"
);
},
{
closed = 1;
nodes = (
"365.68 722.85 LINE",
"289.26 696.88 OFFCURVE",
"220.99 647.4 OFFCURVE",
"172.6 582.8 CURVE SMOOTH",
"124.21 518.2 OFFCURVE",
"95.87 438.67 OFFCURVE",
"93.18 358 CURVE SMOOTH",
"89.93 260.4 OFFCURVE",
"125.11 161.41 OFFCURVE",
"191.72 90 CURVE SMOOTH",
"258.33 18.59 OFFCURVE",
"356.75 -23.73 OFFCURVE",
"454.18 -17 CURVE SMOOTH",
"503.11 -13.62 OFFCURVE",
"551.29 1.87 OFFCURVE",
"592.47 28.5 CURVE SMOOTH",
"633.66 55.13 OFFCURVE",
"667.65 92.93 OFFCURVE",
"689.18 137 CURVE SMOOTH",
"704.85 169.07 OFFCURVE",
"713.93 204.35 OFFCURVE",
"715.68 240 CURVE",
"696.51 240 LINE",
"677.11 201.21 OFFCURVE",
"648.01 167.3 OFFCURVE",
"612.57 142.3 CURVE SMOOTH",
"579.15 118.72 OFFCURVE",
"540.12 103.07 OFFCURVE",
"499.62 97.4 CURVE",
"499.62 276.55 OFFCURVE",
"499.62 455.7 OFFCURVE",
"499.62 634.85 CURVE",
"504.6 632 OFFCURVE",
"509.61 629.2 OFFCURVE",
"514.64 626.44 CURVE SMOOTH",
"549.29 607.42 OFFCURVE",
"585.08 590.47 OFFCURVE",
"621.74 575.69 CURVE",
"740.68 699.92 LINE",
"732.5 709.56 LINE",
"700.95 683.38 LINE",
"678.16 690.54 OFFCURVE",
"655.81 699.12 OFFCURVE",
"634.07 709.03 CURVE SMOOTH",
"598.03 725.47 OFFCURVE",
"563.68 745.61 OFFCURVE",
"531.74 769.03 CURVE",
"531.74 769.03 LINE",
"531.74 769.03 LINE",
"267.62 607.68 LINE",
"293.78 650.06 OFFCURVE",
"331.02 685.65 OFFCURVE",
"375.26 708.49 CURVE"
);
},
{
closed = 1;
nodes = (
"242.44 249.06 LINE",
"235.12 266.78 OFFCURVE",
"229.47 285.23 OFFCURVE",
"225.34 303.93 CURVE SMOOTH",
"215.56 348.29 OFFCURVE",
"213.63 394.2 OFFCURVE",
"217.26 439.48 CURVE SMOOTH",
"220.54 480.42 OFFCURVE",
"228.6 521.3 OFFCURVE",
"243.64 559.43 CURVE",
"297.26 592.19 LINE",
"297.26 485.6 OFFCURVE",
"297.26 379.01 OFFCURVE",
"297.26 272.41 CURVE"
);
},
{
closed = 1;
nodes = (
"426.26 297.47 LINE",
"426.32 671.03 LINE",
"434.05 675.75 LINE",
"446.18 667.52 OFFCURVE",
"458.48 659.55 OFFCURVE",
"470.96 651.86 CURVE",
"470.96 466.26 OFFCURVE",
"470.96 280.67 OFFCURVE",
"470.96 95.07 CURVE",
"438.69 94.35 OFFCURVE",
"406.26 99.99 OFFCURVE",
"376.32 112.02 CURVE SMOOTH",
"339.77 126.71 OFFCURVE",
"307.19 150.97 OFFCURVE",
"282.27 181.47 CURVE SMOOTH",
"271.28 194.92 OFFCURVE",
"261.8 209.5 OFFCURVE",
"253.74 224.86 CURVE"
);
}
);
width = 748;
}
);
note = Cacute;
unicode = 0106;
},
{
glyphname = Ccaron;
layers = (
{
layerId = "032EDF5D-2B69-4E95-A18F-0FD11DED884D";
paths = (
{
closed = 1;
nodes = (
"371.92 943.23 LINE",
"506.76 819.16 LINE",
"688.69 1004.49 LINE",
"670.14 1022.7 LINE",
"563.28 913.84 LINE",
"445.01 1022.67 LINE"
);
},
{
closed = 1;
nodes = (
"365.67 722.86 LINE",
"289.25 696.89 OFFCURVE",
"220.98 647.41 OFFCURVE",
"172.59 582.81 CURVE SMOOTH",
"124.2 518.21 OFFCURVE",
"95.86 438.68 OFFCURVE",
"93.17 358.01 CURVE SMOOTH",
"89.92 260.41 OFFCURVE",
"125.1 161.42 OFFCURVE",
"191.71 90.01 CURVE SMOOTH",
"258.32 18.6 OFFCURVE",
"356.74 -23.72 OFFCURVE",
"454.17 -16.99 CURVE SMOOTH",
"503.1 -13.61 OFFCURVE",
"551.28 1.88 OFFCURVE",
"592.46 28.51 CURVE SMOOTH",
"633.65 55.14 OFFCURVE",
"667.64 92.94 OFFCURVE",
"689.17 137.01 CURVE SMOOTH",
"704.84 169.08 OFFCURVE",
"713.92 204.36 OFFCURVE",
"715.67 240.01 CURVE",
"696.5 240.01 LINE",
"677.1 201.22 OFFCURVE",
"648 167.31 OFFCURVE",
"612.56 142.31 CURVE SMOOTH",
"579.14 118.73 OFFCURVE",
"540.11 103.08 OFFCURVE",
"499.61 97.41 CURVE",
"499.61 276.56 OFFCURVE",
"499.61 455.71 OFFCURVE",
"499.61 634.86 CURVE",
"504.59 632.01 OFFCURVE",
"509.6 629.21 OFFCURVE",
"514.63 626.45 CURVE SMOOTH",
"549.28 607.43 OFFCURVE",
"585.07 590.48 OFFCURVE",
"621.73 575.7 CURVE",
"740.67 699.93 LINE",
"732.49 709.57 LINE",
"700.94 683.39 LINE",
"678.15 690.55 OFFCURVE",
"655.8 699.13 OFFCURVE",
"634.06 709.04 CURVE SMOOTH",
"598.02 725.48 OFFCURVE",
"563.67 745.62 OFFCURVE",
"531.73 769.04 CURVE",
"531.73 769.04 LINE",
"531.73 769.04 LINE",
"267.61 607.69 LINE",
"293.77 650.07 OFFCURVE",
"331.01 685.66 OFFCURVE",
"375.25 708.5 CURVE"
);
},
{
closed = 1;
nodes = (
"242.43 249.07 LINE",
"235.11 266.79 OFFCURVE",
"229.46 285.24 OFFCURVE",
"225.33 303.94 CURVE SMOOTH",
"215.55 348.3 OFFCURVE",
"213.62 394.21 OFFCURVE",
"217.25 439.49 CURVE SMOOTH",
"220.53 480.43 OFFCURVE",
"228.59 521.31 OFFCURVE",
"243.63 559.44 CURVE",
"297.25 592.2 LINE",
"297.25 485.61 OFFCURVE",
"297.25 379.02 OFFCURVE",
"297.25 272.42 CURVE"
);
},
{
closed = 1;
nodes = (
"426.25 297.48 LINE",
"426.31 671.04 LINE",
"434.04 675.76 LINE",
"446.17 667.53 OFFCURVE",
"458.47 659.56 OFFCURVE",
"470.95 651.87 CURVE",
"470.95 466.27 OFFCURVE",
"470.95 280.68 OFFCURVE",
"470.95 95.08 CURVE",
"438.68 94.36 OFFCURVE",
"406.25 100 OFFCURVE",
"376.31 112.03 CURVE SMOOTH",
"339.76 126.72 OFFCURVE",
"307.18 150.98 OFFCURVE",
"282.26 181.48 CURVE SMOOTH",
"271.27 194.93 OFFCURVE",
"261.79 209.51 OFFCURVE",
"253.73 224.87 CURVE"
);
}
);
width = 748;
}
);
note = Ccaron;
unicode = 010C;
},
{
glyphname = Ccedilla;
layers = (
{
layerId = "032EDF5D-2B69-4E95-A18F-0FD11DED884D";
paths = (
{
closed = 1;
nodes = (
"356.84 -225.12 LINE",
"390.27 -209.16 OFFCURVE",
"422.1 -191.23 OFFCURVE",
"449.84 -170.32 CURVE SMOOTH",
"465.34 -158.63 OFFCURVE",
"479.45 -145.85 OFFCURVE",
"490.01 -131.56 CURVE SMOOTH",
"500.57 -117.27 OFFCURVE",
"507.35 -101.41 OFFCURVE",
"508.34 -85.22 CURVE SMOOTH",
"509.53 -65.64 OFFCURVE",
"502.14 -45.95 OFFCURVE",
"488.34 -29.09 CURVE SMOOTH",
"484.26 -24.11 OFFCURVE",
"479.65 -19.36 OFFCURVE",
"474.56 -14.9 CURVE",
"516.39 -9.11 OFFCURVE",
"557.02 5.56 OFFCURVE",
"592.47 28.48 CURVE SMOOTH",
"633.66 55.11 OFFCURVE",
"667.65 92.91 OFFCURVE",
"689.18 136.98 CURVE SMOOTH",
"704.85 169.05 OFFCURVE",
"713.93 204.33 OFFCURVE",
"715.68 239.98 CURVE",
"696.51 239.98 LINE",
"677.11 201.19 OFFCURVE",
"648.01 167.28 OFFCURVE",
"612.57 142.28 CURVE SMOOTH",
"579.15 118.7 OFFCURVE",
"540.12 103.05 OFFCURVE",
"499.62 97.38 CURVE",
"499.62 276.53 OFFCURVE",
"499.62 455.68 OFFCURVE",
"499.62 634.83 CURVE",
"504.6 631.98 OFFCURVE",
"509.61 629.18 OFFCURVE",
"514.64 626.42 CURVE SMOOTH",
"549.29 607.4 OFFCURVE",
"585.08 590.45 OFFCURVE",
"621.74 575.67 CURVE",
"740.68 699.9 LINE",
"732.5 709.54 LINE",
"700.95 683.36 LINE",
"678.16 690.52 OFFCURVE",
"655.81 699.1 OFFCURVE",
"634.07 709.01 CURVE SMOOTH",
"598.03 725.45 OFFCURVE",
"563.68 745.59 OFFCURVE",
"531.74 769.01 CURVE",
"531.74 769.01 LINE",
"531.74 769.01 LINE",
"267.62 607.66 LINE",
"293.78 650.04 OFFCURVE",
"331.02 685.63 OFFCURVE",
"375.26 708.47 CURVE",
"365.67 722.85 LINE",
"289.25 696.88 OFFCURVE",
"220.98 647.4 OFFCURVE",
"172.59 582.8 CURVE SMOOTH",
"124.2 518.2 OFFCURVE",
"95.86 438.67 OFFCURVE",
"93.17 358 CURVE SMOOTH",
"89.92 260.4 OFFCURVE",
"125.1 161.41 OFFCURVE",
"191.71 90 CURVE SMOOTH",
"242.24 35.83 OFFCURVE",
"311.08 -1.6 OFFCURVE",
"383.9 -13.58 CURVE",
"326.64 -40.8 LINE",
"358.89 -48.32 OFFCURVE",
"386.84 -65.09 OFFCURVE",
"403.06 -86.64 CURVE SMOOTH",
"419.28 -108.19 OFFCURVE",
"423.58 -134.29 OFFCURVE",
"414.83 -158 CURVE SMOOTH",
"405.57 -183.1 OFFCURVE",
"381.72 -205.19 OFFCURVE",
"350.33 -217.75 CURVE"
);
},
{
closed = 1;
nodes = (
"242.44 249.05 LINE",
"235.12 266.77 OFFCURVE",
"229.47 285.22 OFFCURVE",
"225.34 303.92 CURVE SMOOTH",
"215.56 348.28 OFFCURVE",
"213.63 394.19 OFFCURVE",
"217.26 439.47 CURVE SMOOTH",
"220.54 480.41 OFFCURVE",
"228.6 521.29 OFFCURVE",
"243.64 559.42 CURVE",
"297.26 592.18 LINE",
"297.26 485.59 OFFCURVE",
"297.26 379 OFFCURVE",
"297.26 272.4 CURVE"
);
},
{
closed = 1;
nodes = (
"426.26 297.46 LINE",
"426.32 671.02 LINE",
"434.05 675.74 LINE",
"446.18 667.51 OFFCURVE",
"458.48 659.54 OFFCURVE",
"470.96 651.85 CURVE",
"470.96 466.25 OFFCURVE",
"470.96 280.66 OFFCURVE",
"470.96 95.06 CURVE",
"438.69 94.34 OFFCURVE",
"406.26 99.98 OFFCURVE",
"376.32 112.01 CURVE SMOOTH",
"339.77 126.7 OFFCURVE",
"307.19 150.96 OFFCURVE",
"282.27 181.46 CURVE SMOOTH",
"271.28 194.91 OFFCURVE",
"261.8 209.49 OFFCURVE",
"253.74 224.85 CURVE"
);
}
);
width = 748;
}
);
note = Ccedilla;
unicode = 00C7;
},
{
glyphname = Ccircumflex;
layers = (
{
layerId = "032EDF5D-2B69-4E95-A18F-0FD11DED884D";
paths = (
{
closed = 1;
nodes = (
"352.71 797.79 LINE",
"454.71 898.79 LINE",
"563.21 797.79 LINE",
"636.68 876.71 LINE",
"512.7 992.13 LINE",
"334.76 815.93 LINE"
);
},
{
closed = 1;
nodes = (
"365.69 722.85 LINE",
"289.27 696.88 OFFCURVE",
"221 647.4 OFFCURVE",
"172.61 582.8 CURVE SMOOTH",
"124.22 518.2 OFFCURVE",
"95.88 438.67 OFFCURVE",
"93.19 358 CURVE SMOOTH",
"89.94 260.4 OFFCURVE",
"125.12 161.41 OFFCURVE",
"191.73 90 CURVE SMOOTH",
"258.34 18.59 OFFCURVE",
"356.76 -23.73 OFFCURVE",
"454.19 -17 CURVE SMOOTH",
"503.12 -13.62 OFFCURVE",
"551.3 1.87 OFFCURVE",
"592.48 28.5 CURVE SMOOTH",
"633.67 55.13 OFFCURVE",
"667.66 92.93 OFFCURVE",
"689.19 137 CURVE SMOOTH",
"704.86 169.07 OFFCURVE",
"713.94 204.35 OFFCURVE",
"715.69 240 CURVE",
"696.52 240 LINE",
"677.12 201.21 OFFCURVE",
"648.02 167.3 OFFCURVE",
"612.58 142.3 CURVE SMOOTH",
"579.16 118.72 OFFCURVE",
"540.13 103.07 OFFCURVE",
"499.63 97.4 CURVE",
"499.63 276.55 OFFCURVE",
"499.63 455.7 OFFCURVE",
"499.63 634.85 CURVE",
"504.61 632 OFFCURVE",
"509.62 629.2 OFFCURVE",
"514.65 626.44 CURVE SMOOTH",
"549.3 607.42 OFFCURVE",
"585.09 590.47 OFFCURVE",
"621.75 575.69 CURVE",
"740.69 699.92 LINE",
"732.51 709.56 LINE",
"700.96 683.38 LINE",
"678.17 690.54 OFFCURVE",
"655.82 699.12 OFFCURVE",
"634.08 709.03 CURVE SMOOTH",
"598.04 725.47 OFFCURVE",
"563.69 745.61 OFFCURVE",
"531.75 769.03 CURVE",
"531.75 769.03 LINE",
"531.75 769.03 LINE",
"267.63 607.68 LINE",
"293.79 650.06 OFFCURVE",
"331.03 685.65 OFFCURVE",
"375.27 708.49 CURVE"
);
},
{
closed = 1;
nodes = (
"242.45 249.06 LINE",
"235.13 266.78 OFFCURVE",
"229.48 285.23 OFFCURVE",
"225.35 303.93 CURVE SMOOTH",
"215.57 348.29 OFFCURVE",
"213.64 394.2 OFFCURVE",
"217.27 439.48 CURVE SMOOTH",
"220.55 480.42 OFFCURVE",
"228.61 521.3 OFFCURVE",
"243.65 559.43 CURVE",
"297.27 592.19 LINE",
"297.27 485.6 OFFCURVE",
"297.27 379.01 OFFCURVE",
"297.27 272.41 CURVE"
);
},
{
closed = 1;
nodes = (
"426.27 297.47 LINE",
"426.33 671.03 LINE",
"434.06 675.75 LINE",
"446.19 667.52 OFFCURVE",
"458.49 659.55 OFFCURVE",
"470.97 651.86 CURVE",
"470.97 466.26 OFFCURVE",
"470.97 280.67 OFFCURVE",
"470.97 95.07 CURVE",
"438.7 94.35 OFFCURVE",
"406.27 99.99 OFFCURVE",
"376.33 112.02 CURVE SMOOTH",
"339.78 126.71 OFFCURVE",
"307.2 150.97 OFFCURVE",
"282.28 181.47 CURVE SMOOTH",
"271.29 194.92 OFFCURVE",
"261.81 209.5 OFFCURVE",
"253.75 224.86 CURVE"
);
}
);
width = 748;
}
);
note = Ccircumflex;
unicode = 0108;
},
{
glyphname = Cdotaccent;
layers = (
{
layerId = "032EDF5D-2B69-4E95-A18F-0FD11DED884D";
paths = (
{
closed = 1;
nodes = (
"416.86 937.37 LINE",
"508.21 846.02 LINE",
"598.09 935.9 LINE",
"506.74 1027.25 LINE"
);
},
{
closed = 1;
nodes = (
"365.68 722.86 LINE",
"289.26 696.89 OFFCURVE",
"220.99 647.41 OFFCURVE",
"172.6 582.81 CURVE SMOOTH",
"124.21 518.21 OFFCURVE",
"95.87 438.68 OFFCURVE",
"93.18 358.01 CURVE SMOOTH",
"89.93 260.41 OFFCURVE",
"125.11 161.42 OFFCURVE",
"191.72 90.01 CURVE SMOOTH",
"258.33 18.6 OFFCURVE",
"356.75 -23.72 OFFCURVE",
"454.18 -16.99 CURVE SMOOTH",
"503.11 -13.61 OFFCURVE",
"551.29 1.88 OFFCURVE",
"592.47 28.51 CURVE SMOOTH",
"633.66 55.14 OFFCURVE",
"667.65 92.94 OFFCURVE",
"689.18 137.01 CURVE SMOOTH",
"704.85 169.08 OFFCURVE",
"713.93 204.36 OFFCURVE",
"715.68 240.01 CURVE",
"696.51 240.01 LINE",
"677.11 201.22 OFFCURVE",
"648.01 167.31 OFFCURVE",
"612.57 142.31 CURVE SMOOTH",
"579.15 118.73 OFFCURVE",
"540.12 103.08 OFFCURVE",
"499.62 97.41 CURVE",
"499.62 276.56 OFFCURVE",
"499.62 455.71 OFFCURVE",
"499.62 634.86 CURVE",
"504.6 632.01 OFFCURVE",
"509.61 629.21 OFFCURVE",
"514.64 626.45 CURVE SMOOTH",
"549.29 607.43 OFFCURVE",
"585.08 590.48 OFFCURVE",
"621.74 575.7 CURVE",
"740.68 699.93 LINE",
"732.5 709.57 LINE",
"700.95 683.39 LINE",
"678.16 690.55 OFFCURVE",
"655.81 699.13 OFFCURVE",
"634.07 709.04 CURVE SMOOTH",
"598.03 725.48 OFFCURVE",
"563.68 745.62 OFFCURVE",
"531.74 769.04 CURVE",
"531.74 769.04 LINE",
"531.74 769.04 LINE",
"267.62 607.69 LINE",
"293.78 650.07 OFFCURVE",
"331.02 685.66 OFFCURVE",
"375.26 708.5 CURVE"
);
},
{
closed = 1;
nodes = (
"242.44 249.07 LINE",
"235.12 266.79 OFFCURVE",
"229.47 285.24 OFFCURVE",
"225.34 303.94 CURVE SMOOTH",
"215.56 348.3 OFFCURVE",
"213.63 394.21 OFFCURVE",
"217.26 439.49 CURVE SMOOTH",
"220.54 480.43 OFFCURVE",
"228.6 521.31 OFFCURVE",
"243.64 559.44 CURVE",
"297.26 592.2 LINE",
"297.26 485.61 OFFCURVE",
"297.26 379.02 OFFCURVE",
"297.26 272.42 CURVE"
);
},
{
closed = 1;
nodes = (
"426.26 297.48 LINE",
"426.32 671.04 LINE",
"434.05 675.76 LINE",
"446.18 667.53 OFFCURVE",
"458.48 659.56 OFFCURVE",
"470.96 651.87 CURVE",
"470.96 466.27 OFFCURVE",
"470.96 280.68 OFFCURVE",
"470.96 95.08 CURVE",
"438.69 94.36 OFFCURVE",
"406.26 100 OFFCURVE",
"376.32 112.03 CURVE SMOOTH",
"339.77 126.72 OFFCURVE",
"307.19 150.98 OFFCURVE",
"282.27 181.48 CURVE SMOOTH",
"271.28 194.93 OFFCURVE",
"261.8 209.51 OFFCURVE",
"253.74 224.87 CURVE"
);
}
);
width = 748;
}
);
note = Cdotaccent;
unicode = 010A;
},
{
color = 4;
glyphname = D;
lastChange = "2020-08-31 23:16:03 +0000";
layers = (
{
layerId = "032EDF5D-2B69-4E95-A18F-0FD11DED884D";
paths = (
{
closed = 1;
nodes = (
"77.5 -31.5 LINE",
"133.38 19.52 OFFCURVE",
"205 46 OFFCURVE",
"285 46 CURVE SMOOTH",
"344 46 OFFCURVE",
"402.5 24.92 OFFCURVE",
"450.5 -9.5 CURVE",
"700.5 128 LINE",
"749 227 OFFCURVE",
"766 294 OFFCURVE",
"766 428 CURVE SMOOTH",
"766 601 OFFCURVE",
"674 740 OFFCURVE",
"508 740 CURVE SMOOTH",
"209.5 740 LINE SMOOTH",
"174 740 OFFCURVE",
"143 750 OFFCURVE",
"136 784.74 CURVE",
"114.5 785.49 LINE",
"107.94 760.67 OFFCURVE",
"104.21 735 OFFCURVE",
"104.8 709.34 CURVE SMOOTH",
"106 657 OFFCURVE",
"124 618 OFFCURVE",
"177 617.99 CURVE SMOOTH",
"316.3 617.99 LINE",
"237.2 566.49 LINE SMOOTH",
"191 536 OFFCURVE",
"175 516 OFFCURVE",
"175.13 460.99 CURVE SMOOTH",
"175.14 435.89 LINE",
"102 428 OFFCURVE",
"59 391 OFFCURVE",
"59 326 CURVE SMOOTH",
"59 303 OFFCURVE",
"65 282 OFFCURVE",
"74.52 267.14 CURVE",
"93.65 267.14 LINE",
"94 315 OFFCURVE",
"113 325 OFFCURVE",
"175 325 CURVE",
"175 199 OFFCURVE",
"162 173 OFFCURVE",
"114.09 142.31 CURVE",
"123.42 118.33 LINE",
"216 141 OFFCURVE",
"304 210 OFFCURVE",
"304 309 CURVE SMOOTH",
"304.24 507 LINE SMOOTH",
"304 556 OFFCURVE",
"311 581 OFFCURVE",
"352.28 618 CURVE",
"384.69 618 LINE",
"347 577 OFFCURVE",
"340 531 OFFCURVE",
"339.78 471.01 CURVE SMOOTH",
"339.71 291 LINE SMOOTH",
"340 227 OFFCURVE",
"316 201 OFFCURVE",
"255.3 140.33 CURVE",
"167.69 112.91 OFFCURVE",
"91.73 49.78 OFFCURVE",
"49 -31.5 CURVE"
);
},
{
closed = 1;
nodes = (
"448.71 274.74 LINE",
"630.7 366.99 LINE",
"630 274 OFFCURVE",
"609 170 OFFCURVE",
"574.5 82.98 CURVE",
"537.31 111.71 OFFCURVE",
"494.17 132.31 OFFCURVE",
"448.71 144.11 CURVE"
);
},
{
closed = 1;
nodes = (
"449 618 LINE",
"546 618 OFFCURVE",
"590 569 OFFCURVE",
"613.67 499.1 CURVE",
"448.71 415.73 LINE"
);
},
{
closed = 1;
nodes = (
"350 200 OFFCURVE",
"368 231 OFFCURVE",
"367.71 290.99 CURVE SMOOTH",
"367.78 470.98 LINE SMOOTH",
"368 527 OFFCURVE",
"374 577 OFFCURVE",
"420.05 612.53 CURVE",
"420.05 150.34 LINE",
"399 154 OFFCURVE",
"375 156 OFFCURVE",
"356 156 CURVE SMOOTH",
"341 156 OFFCURVE",
"322 154 OFFCURVE",
"305.64 151.89 CURVE"
);
},
{
closed = 1;
nodes = (
"448.71 383.63 LINE",
"621.37 470.89 LINE",
"625 455 OFFCURVE",
"629 418 OFFCURVE",
"630.1 398.84 CURVE",
"448.71 306.89 LINE"
);
}
);
width = 787;
},
{
associatedMasterId = "032EDF5D-2B69-4E95-A18F-0FD11DED884D";
layerId = "5895BBBF-EC31-4ABA-BD26-F4E3888162BC";
name = "Aug 30 20, 12:22";
paths = (
{
closed = 1;
nodes = (
"123.42 118.33 LINE",
"182.69 133.18 OFFCURVE",
"239.12 165.95 OFFCURVE",
"274.17 216 CURVE SMOOTH",
"285.37 232 OFFCURVE",
"293.95 249.9 OFFCURVE",
"298.74 268.83 CURVE SMOOTH",
"303.53 287.76 OFFCURVE",
"304.17 307.47 OFFCURVE",
"304.17 327 CURVE SMOOTH",
"304.17 429 LINE",
"304.24 507 LINE SMOOTH",
"304.26 528.29 OFFCURVE",
"305.33 550.1 OFFCURVE",
"313.76 569.65 CURVE SMOOTH",
"321.99 588.74 OFFCURVE",
"336.8 604.08 OFFCURVE",
"352.28 618 CURVE",
"384.69 618 LINE",
"370.39 602.58 OFFCURVE",
"359.28 584.28 OFFCURVE",
"352.08 564.58 CURVE SMOOTH",
"340.76 533.63 OFFCURVE",
"339.8 501.29 OFFCURVE",
"339.78 471.01 CURVE SMOOTH",
"339.71 393.01 LINE",
"339.71 291 LINE SMOOTH",
"339.71 272.58 OFFCURVE",
"338.45 255.02 OFFCURVE",
"332.95 239.65 CURVE SMOOTH",
"327.34 223.96 OFFCURVE",
"317.65 209.21 OFFCURVE",
"306.23 195.16 CURVE SMOOTH",
"290.72 176.07 OFFCURVE",
"273.26 158.19 OFFCURVE",
"255.3 140.33 CURVE",
"167.69 112.91 OFFCURVE",
"91.73 49.78 OFFCURVE",
"49 -31.5 CURVE",
"77.5 -31.5 LINE",
"133.38 19.52 OFFCURVE",
"209.36 47.89 OFFCURVE",
"285 46 CURVE SMOOTH",
"344.04 44.52 OFFCURVE",
"402.5 24.92 OFFCURVE",
"450.5 -9.5 CURVE",
"700.5 128 LINE",
"717.27 162.02 OFFCURVE",
"731.01 197.54 OFFCURVE",
"741.5 234 CURVE SMOOTH",
"760.71 300.74 OFFCURVE",
"769.39 370.66 OFFCURVE",
"765.5 440 CURVE SMOOTH",
"761.45 512.1 OFFCURVE",
"743.58 585.31 OFFCURVE",
"701.5 644 CURVE SMOOTH",
"677.17 677.93 OFFCURVE",
"644.1 705.93 OFFCURVE",
"605.5 721.82 CURVE SMOOTH",
"566.9 737.71 OFFCURVE",
"524.25 740 OFFCURVE",
"482.5 740 CURVE SMOOTH",
"209.5 740 LINE SMOOTH",
"201.62 740 OFFCURVE",
"193.72 740.05 OFFCURVE",
"185.92 741.19 CURVE SMOOTH",
"178.13 742.33 OFFCURVE",
"170.45 744.57 OFFCURVE",
"163.5 748.26 CURVE SMOOTH",
"156.54 751.95 OFFCURVE",
"150.34 757.1 OFFCURVE",
"145.58 763.37 CURVE SMOOTH",
"140.82 769.64 OFFCURVE",
"137.5 777.01 OFFCURVE",
"136 784.74 CURVE",
"114.5 785.49 LINE",
"107.94 760.67 OFFCURVE",
"104.21 735 OFFCURVE",
"104.8 709.34 CURVE SMOOTH",
"105.09 696.51 OFFCURVE",
"106.53 683.65 OFFCURVE",
"109.93 671.27 CURVE SMOOTH",
"113.34 658.9 OFFCURVE",
"118.8 646.9 OFFCURVE",
"127.25 637.24 CURVE SMOOTH",
"133.32 630.29 OFFCURVE",
"141.03 624.71 OFFCURVE",
"149.71 621.57 CURVE SMOOTH",
"158.39 618.43 OFFCURVE",
"167.78 617.99 OFFCURVE",
"177 617.99 CURVE SMOOTH",
"316.3 617.99 LINE",
"237.2 566.49 LINE SMOOTH",
"219.03 554.66 OFFCURVE",
"200.63 541.89 OFFCURVE",
"189.1 523.52 CURVE SMOOTH",
"183.33 514.34 OFFCURVE",
"179.4 504.04 OFFCURVE",
"177.34 493.39 CURVE SMOOTH",
"175.28 482.74 OFFCURVE",
"175.13 471.83 OFFCURVE",
"175.13 460.99 CURVE SMOOTH",
"175.14 435.89 LINE",
"155.47 432.97 OFFCURVE",
"135.9 429.44 OFFCURVE",
"118 421.03 CURVE SMOOTH",
"103.98 414.44 OFFCURVE",
"91.35 404.8 OFFCURVE",
"81.71 392.68 CURVE SMOOTH",
"72.06 380.56 OFFCURVE",
"65.41 366.14 OFFCURVE",
"62 351.03 CURVE SMOOTH",
"55.64 322.84 OFFCURVE",
"60.46 292.4 OFFCURVE",
"74.52 267.14 CURVE",
"93.65 267.14 LINE",
"92.35 274.29 OFFCURVE",
"92.56 281.72 OFFCURVE",
"94.31 288.78 CURVE SMOOTH",
"97.25 300.68 OFFCURVE",
"104.85 311.46 OFFCURVE",
"115.39 317.72 CURVE SMOOTH",
"120.66 320.85 OFFCURVE",
"126.56 322.85 OFFCURVE",
"132.6 323.88 CURVE SMOOTH",
"138.64 324.91 OFFCURVE",
"144.8 324.98 OFFCURVE",
"150.93 324.98 CURVE SMOOTH",
"159.01 324.98 OFFCURVE",
"167.09 324.98 OFFCURVE",
"175.18 324.98 CURVE",
"175.18 324.09 OFFCURVE",
"175.18 323.2 OFFCURVE",
"175.18 322.31 CURVE SMOOTH",
"175.18 295.94 OFFCURVE",
"175.79 269.48 OFFCURVE",
"172.7 243.3 CURVE SMOOTH",
"169.62 217.12 OFFCURVE",
"161.84 190.87 OFFCURVE",
"145.76 169.98 CURVE SMOOTH",
"137.15 158.8 OFFCURVE",
"126.34 149.31 OFFCURVE",
"114.09 142.31 CURVE"
);
},
{
closed = 1;
nodes = (
"448.71 274.74 LINE",
"630.7 366.99 LINE",
"630.46 325.63 OFFCURVE",
"626.35 284.28 OFFCURVE",
"619.5 243.48 CURVE SMOOTH",
"610.28 188.58 OFFCURVE",
"595.23 134.65 OFFCURVE",
"574.5 82.98 CURVE",
"537.31 111.71 OFFCURVE",
"494.17 132.31 OFFCURVE",
"448.71 144.11 CURVE"
);
},
{
closed = 1;
nodes = (
"471.38 617.75 OFFCURVE",
"494.23 616.26 OFFCURVE",
"515.59 608.82 CURVE SMOOTH",
"538.9 600.7 OFFCURVE",
"559.77 586.07 OFFCURVE",
"576 567.48 CURVE SMOOTH",
"593.23 547.75 OFFCURVE",
"605.42 524 OFFCURVE",
"613.67 499.1 CURVE",
"448.71 415.73 LINE",
"448.71 483.14 OFFCURVE",
"448.71 550.55 OFFCURVE",
"448.71 617.96 CURVE"
);
},
{
closed = 1;
nodes = (
"382.29 156.94 OFFCURVE",
"343.5 157.58 OFFCURVE",
"305.64 151.89 CURVE",
"313.29 160.15 OFFCURVE",
"320.77 168.65 OFFCURVE",
"327.96 177.49 CURVE SMOOTH",
"340.46 192.88 OFFCURVE",
"352.15 210.18 OFFCURVE",
"359.31 230.21 CURVE SMOOTH",
"366.59 250.56 OFFCURVE",
"367.71 271.48 OFFCURVE",
"367.71 290.99 CURVE SMOOTH",
"367.71 392.98 LINE",
"367.78 470.98 LINE SMOOTH",
"367.8 500.71 OFFCURVE",
"369.09 529.54 OFFCURVE",
"378.38 554.96 CURVE SMOOTH",
"386.65 577.58 OFFCURVE",
"401.24 597.94 OFFCURVE",
"420.05 612.53 CURVE",
"420.05 458.47 OFFCURVE",
"420.05 304.4 OFFCURVE",
"420.05 150.34 CURVE"
);
},
{
closed = 1;
nodes = (
"448.71 383.63 LINE",
"621.37 470.89 LINE",
"625.77 450.89 OFFCURVE",
"628.22 430.45 OFFCURVE",
"629.5 410 CURVE SMOOTH",
"629.73 406.28 OFFCURVE",
"629.93 402.56 OFFCURVE",
"630.1 398.84 CURVE",
"448.71 306.89 LINE"
);
}
);
visible = 1;
width = 787;
}
);
note = D;
unicode = 0044;
},
{
glyphname = Eth;
layers = (
{
hints = (
{
horizontal = 1;
place = "{118.33, 24}";
type = Stem;
},
{
horizontal = 1;
place = "{335.08, 114.87}";
type = Stem;
},
{
horizontal = 1;
place = "{618, 122}";
type = Stem;
},
{
place = "{141.14, 129.05}";
type = Stem;
},
{
place = "{305.71, 28}";
type = Stem;
},
{
place = "{386.04, 28.67}";
type = Stem;
},
{
horizontal = 1;
place = "{322.94, 118.15}";
type = Stem;
}
);
layerId = "032EDF5D-2B69-4E95-A18F-0FD11DED884D";
paths = (
{
closed = 1;
nodes = (
"89.42 118.33 LINE",
"148.69 133.18 OFFCURVE",
"205.12 165.95 OFFCURVE",
"240.17 216 CURVE SMOOTH",
"251.37 232 OFFCURVE",
"259.95 249.9 OFFCURVE",
"264.74 268.83 CURVE SMOOTH",
"269.53 287.76 OFFCURVE",
"270.17 307.47 OFFCURVE",
"270.17 327 CURVE SMOOTH",
"270.17 329.69 OFFCURVE",
"270.17 332.39 OFFCURVE",
"270.17 335.08 CURVE",
"305.71 337.42 LINE",
"305.71 321.95 OFFCURVE",
"305.71 306.48 OFFCURVE",
"305.71 291 CURVE SMOOTH",
"305.71 272.58 OFFCURVE",
"304.45 255.02 OFFCURVE",
"298.95 239.65 CURVE SMOOTH",
"293.34 223.96 OFFCURVE",
"283.65 209.21 OFFCURVE",
"272.23 195.16 CURVE SMOOTH",
"256.72 176.07 OFFCURVE",
"239.26 158.19 OFFCURVE",
"221.3 140.33 CURVE",
"133.69 112.91 OFFCURVE",
"57.73 49.78 OFFCURVE",
"15 -31.5 CURVE",
"43.5 -31.5 LINE",
"99.38 19.52 OFFCURVE",
"175.36 47.89 OFFCURVE",
"251 46 CURVE SMOOTH",
"310.04 44.52 OFFCURVE",
"368.5 24.92 OFFCURVE",
"416.5 -9.5 CURVE",
"666.5 128 LINE",
"683.27 162.02 OFFCURVE",
"697.01 197.54 OFFCURVE",
"707.5 234 CURVE SMOOTH",
"726.71 300.74 OFFCURVE",
"735.39 370.66 OFFCURVE",
"731.5 440 CURVE SMOOTH",
"727.45 512.1 OFFCURVE",
"709.58 585.31 OFFCURVE",
"667.5 644 CURVE SMOOTH",
"643.17 677.93 OFFCURVE",
"610.1 705.93 OFFCURVE",
"571.5 721.82 CURVE SMOOTH",
"532.9 737.71 OFFCURVE",
"490.25 740 OFFCURVE",
"448.5 740 CURVE SMOOTH",
"175.5 740 LINE SMOOTH",
"167.62 740 OFFCURVE",
"159.72 740.05 OFFCURVE",
"151.92 741.19 CURVE SMOOTH",
"144.13 742.33 OFFCURVE",
"136.45 744.57 OFFCURVE",
"129.5 748.26 CURVE SMOOTH",
"122.54 751.95 OFFCURVE",
"116.34 757.1 OFFCURVE",
"111.58 763.37 CURVE SMOOTH",
"106.82 769.64 OFFCURVE",
"103.5 777.01 OFFCURVE",
"102 784.74 CURVE",
"80.5 785.49 LINE",
"73.94 760.67 OFFCURVE",
"70.21 735 OFFCURVE",
"70.8 709.34 CURVE SMOOTH",
"71.09 696.51 OFFCURVE",
"72.53 683.65 OFFCURVE",
"75.93 671.27 CURVE SMOOTH",
"79.34 658.9 OFFCURVE",
"84.8 646.9 OFFCURVE",
"93.25 637.24 CURVE SMOOTH",
"99.32 630.29 OFFCURVE",
"107.03 624.71 OFFCURVE",
"115.71 621.57 CURVE SMOOTH",
"124.39 618.43 OFFCURVE",
"133.78 617.99 OFFCURVE",
"143 617.99 CURVE SMOOTH",
"282.3 617.99 LINE",
"203.2 566.49 LINE SMOOTH",
"185.03 554.66 OFFCURVE",
"166.63 541.89 OFFCURVE",
"155.1 523.52 CURVE SMOOTH",
"149.33 514.34 OFFCURVE",
"145.4 504.04 OFFCURVE",
"143.34 493.39 CURVE SMOOTH",
"141.28 482.74 OFFCURVE",
"141.13 471.83 OFFCURVE",
"141.13 460.99 CURVE SMOOTH",
"141.13 454.35 OFFCURVE",
"141.14 447.71 OFFCURVE",
"141.14 441.08 CURVE",
"121.06 437.37 OFFCURVE",
"101.61 431.26 OFFCURVE",
"84 421.04 CURVE SMOOTH",
"57.49 405.66 OFFCURVE",
"36.15 380.59 OFFCURVE",
"28 351.04 CURVE SMOOTH",
"20.26 322.97 OFFCURVE",
"24.81 291.67 OFFCURVE",
"40.52 267.16 CURVE",
"59.65 267.16 LINE",
"58.17 274.29 OFFCURVE",
"58.39 281.77 OFFCURVE",
"60.31 288.8 CURVE SMOOTH",
"63.49 300.46 OFFCURVE",
"71.52 310.67 OFFCURVE",
"82 316.69 CURVE SMOOTH",
"87.24 319.7 OFFCURVE",
"93.02 321.71 OFFCURVE",
"98.94 322.93 CURVE SMOOTH",
"104.86 324.15 OFFCURVE",
"110.91 324.59 OFFCURVE",
"116.94 324.99 CURVE SMOOTH",
"141.19 326.59 LINE",
"141.19 325.17 OFFCURVE",
"141.19 323.75 OFFCURVE",
"141.19 322.33 CURVE SMOOTH",
"141.19 295.96 OFFCURVE",
"141.8 269.5 OFFCURVE",
"138.71 243.32 CURVE SMOOTH",
"135.63 217.14 OFFCURVE",
"127.85 190.89 OFFCURVE",
"111.77 170 CURVE SMOOTH",
"103.16 158.82 OFFCURVE",
"92.35 149.33 OFFCURVE",
"80.1 142.33 CURVE"
);
},
{
closed = 1;
nodes = (
"270.25 507 LINE SMOOTH",
"270.27 528.29 OFFCURVE",
"271.34 550.1 OFFCURVE",
"279.77 569.65 CURVE SMOOTH",
"288 588.74 OFFCURVE",
"302.81 604.08 OFFCURVE",
"318.29 618 CURVE",
"350.7 618 LINE",
"336.4 602.58 OFFCURVE",
"325.29 584.28 OFFCURVE",
"318.09 564.58 CURVE SMOOTH",
"306.77 533.63 OFFCURVE",
"305.81 501.29 OFFCURVE",
"305.79 471.01 CURVE SMOOTH",
"305.78 454.29 LINE",
"302.68 453.77 OFFCURVE",
"299.58 453.29 OFFCURVE",
"296.47 452.85 CURVE SMOOTH",
"287.75 451.6 OFFCURVE",
"278.99 450.67 OFFCURVE",
"270.21 449.96 CURVE"
);
},
{
closed = 1;
nodes = (
"414.73 187.68 OFFCURVE",
"414.73 231.22 OFFCURVE",
"414.73 274.77 CURVE",
"596.72 367.02 LINE",
"596.48 325.66 OFFCURVE",
"592.37 284.31 OFFCURVE",
"585.52 243.51 CURVE SMOOTH",
"576.3 188.61 OFFCURVE",
"561.25 134.68 OFFCURVE",
"540.52 83.01 CURVE",
"503.33 111.74 OFFCURVE",
"460.19 132.34 OFFCURVE",
"414.73 144.14 CURVE"
);
},
{
closed = 1;
nodes = (
"437.4 617.78 OFFCURVE",
"460.25 616.29 OFFCURVE",
"481.61 608.85 CURVE SMOOTH",
"504.92 600.73 OFFCURVE",
"525.79 586.1 OFFCURVE",
"542.02 567.51 CURVE SMOOTH",
"559.25 547.78 OFFCURVE",
"571.44 524.03 OFFCURVE",
"579.69 499.13 CURVE",
"414.73 415.76 LINE",
"414.73 483.17 OFFCURVE",
"414.73 550.58 OFFCURVE",
"414.73 617.99 CURVE"
);
},
{
closed = 1;
nodes = (
"348.31 156.97 OFFCURVE",
"309.52 157.61 OFFCURVE",
"271.66 151.92 CURVE",
"279.31 160.18 OFFCURVE",
"286.79 168.68 OFFCURVE",
"293.98 177.52 CURVE SMOOTH",
"306.48 192.91 OFFCURVE",
"318.17 210.21 OFFCURVE",
"325.33 230.24 CURVE SMOOTH",
"332.61 250.59 OFFCURVE",
"333.73 271.51 OFFCURVE",
"333.73 291.02 CURVE SMOOTH",
"333.73 393.01 LINE",
"333.8 471.01 LINE SMOOTH",
"333.82 500.74 OFFCURVE",
"335.11 529.57 OFFCURVE",
"344.4 554.99 CURVE SMOOTH",
"352.67 577.61 OFFCURVE",
"367.26 597.97 OFFCURVE",
"386.07 612.56 CURVE",
"386.07 458.5 OFFCURVE",
"386.07 304.43 OFFCURVE",
"386.07 150.37 CURVE"
);
},
{
closed = 1;
nodes = (
"414.73 383.66 LINE",
"587.39 470.92 LINE",
"591.79 450.92 OFFCURVE",
"594.24 430.48 OFFCURVE",
"595.52 410.03 CURVE SMOOTH",
"595.75 406.31 OFFCURVE",
"595.95 402.59 OFFCURVE",
"596.12 398.87 CURVE",
"414.73 306.92 LINE"
);
}
);
width = 747;
}
);
note = Eth;
unicode = 00D0;
},
{
glyphname = Dcaron;
layers = (
{
layerId = "032EDF5D-2B69-4E95-A18F-0FD11DED884D";
paths = (
{
closed = 1;
nodes = (
"311.94 923.23 LINE",
"446.78 799.16 LINE",
"628.71 984.49 LINE",
"610.16 1002.7 LINE",
"503.3 893.84 LINE",
"385.03 1002.67 LINE"
);
},
{
closed = 1;
nodes = (
"123.41 118.33 LINE",
"182.68 133.18 OFFCURVE",
"239.11 165.95 OFFCURVE",
"274.16 216 CURVE SMOOTH",
"285.36 232 OFFCURVE",
"293.94 249.9 OFFCURVE",
"298.73 268.83 CURVE SMOOTH",
"303.52 287.76 OFFCURVE",
"304.16 307.47 OFFCURVE",
"304.16 327 CURVE SMOOTH",
"304.16 429 LINE",
"304.23 507 LINE SMOOTH",
"304.25 528.29 OFFCURVE",
"305.32 550.1 OFFCURVE",
"313.75 569.65 CURVE SMOOTH",
"321.98 588.74 OFFCURVE",
"336.79 604.08 OFFCURVE",
"352.27 618 CURVE",
"384.68 618 LINE",
"370.38 602.58 OFFCURVE",
"359.27 584.28 OFFCURVE",
"352.07 564.58 CURVE SMOOTH",
"340.75 533.63 OFFCURVE",
"339.79 501.29 OFFCURVE",
"339.77 471.01 CURVE SMOOTH",
"339.7 393.01 LINE",
"339.7 291 LINE SMOOTH",
"339.7 272.58 OFFCURVE",
"338.44 255.02 OFFCURVE",
"332.94 239.65 CURVE SMOOTH",
"327.33 223.96 OFFCURVE",
"317.64 209.21 OFFCURVE",
"306.22 195.16 CURVE SMOOTH",
"290.71 176.07 OFFCURVE",
"273.25 158.19 OFFCURVE",
"255.29 140.33 CURVE",
"167.68 112.91 OFFCURVE",
"91.72 49.78 OFFCURVE",
"48.99 -31.5 CURVE",
"77.49 -31.5 LINE",
"133.37 19.52 OFFCURVE",
"209.35 47.89 OFFCURVE",
"284.99 46 CURVE SMOOTH",
"344.03 44.52 OFFCURVE",
"402.49 24.92 OFFCURVE",
"450.49 -9.5 CURVE",
"700.49 128 LINE",
"717.26 162.02 OFFCURVE",
"731 197.54 OFFCURVE",
"741.49 234 CURVE SMOOTH",
"760.7 300.74 OFFCURVE",
"769.38 370.66 OFFCURVE",
"765.49 440 CURVE SMOOTH",
"761.44 512.1 OFFCURVE",
"743.57 585.31 OFFCURVE",
"701.49 644 CURVE SMOOTH",
"677.16 677.93 OFFCURVE",
"644.09 705.93 OFFCURVE",
"605.49 721.82 CURVE SMOOTH",
"566.89 737.71 OFFCURVE",
"524.24 740 OFFCURVE",
"482.49 740 CURVE SMOOTH",
"209.49 740 LINE SMOOTH",
"201.61 740 OFFCURVE",
"193.71 740.05 OFFCURVE",
"185.91 741.19 CURVE SMOOTH",
"178.12 742.33 OFFCURVE",
"170.44 744.57 OFFCURVE",
"163.49 748.26 CURVE SMOOTH",
"156.53 751.95 OFFCURVE",
"150.33 757.1 OFFCURVE",
"145.57 763.37 CURVE SMOOTH",
"140.81 769.64 OFFCURVE",
"137.49 777.01 OFFCURVE",
"135.99 784.74 CURVE",
"114.49 785.49 LINE",
"107.93 760.67 OFFCURVE",
"104.2 735 OFFCURVE",
"104.79 709.34 CURVE SMOOTH",
"105.08 696.51 OFFCURVE",
"106.52 683.65 OFFCURVE",
"109.92 671.27 CURVE SMOOTH",
"113.33 658.9 OFFCURVE",
"118.79 646.9 OFFCURVE",
"127.24 637.24 CURVE SMOOTH",
"133.31 630.29 OFFCURVE",
"141.02 624.71 OFFCURVE",
"149.7 621.57 CURVE SMOOTH",
"158.38 618.43 OFFCURVE",
"167.77 617.99 OFFCURVE",
"176.99 617.99 CURVE SMOOTH",
"316.29 617.99 LINE",
"237.19 566.49 LINE SMOOTH",
"219.02 554.66 OFFCURVE",
"200.62 541.89 OFFCURVE",
"189.09 523.52 CURVE SMOOTH",
"183.32 514.34 OFFCURVE",
"179.39 504.04 OFFCURVE",
"177.33 493.39 CURVE SMOOTH",
"175.27 482.74 OFFCURVE",
"175.12 471.83 OFFCURVE",
"175.12 460.99 CURVE SMOOTH",
"175.13 435.89 LINE",
"155.46 432.97 OFFCURVE",
"135.89 429.44 OFFCURVE",
"117.99 421.03 CURVE SMOOTH",
"103.97 414.44 OFFCURVE",
"91.34 404.8 OFFCURVE",
"81.7 392.68 CURVE SMOOTH",
"72.05 380.56 OFFCURVE",
"65.4 366.14 OFFCURVE",
"61.99 351.03 CURVE SMOOTH",
"55.63 322.84 OFFCURVE",
"60.45 292.4 OFFCURVE",
"74.51 267.14 CURVE",
"93.64 267.14 LINE",
"92.34 274.29 OFFCURVE",
"92.55 281.72 OFFCURVE",
"94.3 288.78 CURVE SMOOTH",
"97.24 300.68 OFFCURVE",
"104.84 311.46 OFFCURVE",
"115.38 317.72 CURVE SMOOTH",
"120.65 320.85 OFFCURVE",
"126.55 322.85 OFFCURVE",
"132.59 323.88 CURVE SMOOTH",
"138.63 324.91 OFFCURVE",
"144.79 324.98 OFFCURVE",
"150.92 324.98 CURVE SMOOTH",
"159 324.98 OFFCURVE",
"167.08 324.98 OFFCURVE",
"175.17 324.98 CURVE",
"175.17 324.09 OFFCURVE",
"175.17 323.2 OFFCURVE",
"175.17 322.31 CURVE SMOOTH",
"175.17 295.94 OFFCURVE",
"175.78 269.48 OFFCURVE",
"172.69 243.3 CURVE SMOOTH",
"169.61 217.12 OFFCURVE",
"161.83 190.87 OFFCURVE",
"145.75 169.98 CURVE SMOOTH",
"137.14 158.8 OFFCURVE",
"126.33 149.31 OFFCURVE",
"114.08 142.31 CURVE"
);
},
{
closed = 1;
nodes = (
"448.7 274.74 LINE",
"630.69 366.99 LINE",
"630.45 325.63 OFFCURVE",
"626.34 284.28 OFFCURVE",
"619.49 243.48 CURVE SMOOTH",
"610.27 188.58 OFFCURVE",
"595.22 134.65 OFFCURVE",
"574.49 82.98 CURVE",
"537.3 111.71 OFFCURVE",
"494.16 132.31 OFFCURVE",
"448.7 144.11 CURVE"
);
},
{
closed = 1;
nodes = (
"471.37 617.75 OFFCURVE",
"494.22 616.26 OFFCURVE",
"515.58 608.82 CURVE SMOOTH",
"538.89 600.7 OFFCURVE",
"559.76 586.07 OFFCURVE",
"575.99 567.48 CURVE SMOOTH",
"593.22 547.75 OFFCURVE",
"605.41 524 OFFCURVE",
"613.66 499.1 CURVE",
"448.7 415.73 LINE",
"448.7 483.14 OFFCURVE",
"448.7 550.55 OFFCURVE",
"448.7 617.96 CURVE"
);
},
{
closed = 1;
nodes = (
"382.28 156.94 OFFCURVE",
"343.49 157.58 OFFCURVE",
"305.63 151.89 CURVE",
"313.28 160.15 OFFCURVE",
"320.76 168.65 OFFCURVE",
"327.95 177.49 CURVE SMOOTH",
"340.45 192.88 OFFCURVE",
"352.14 210.18 OFFCURVE",
"359.3 230.21 CURVE SMOOTH",
"366.58 250.56 OFFCURVE",
"367.7 271.48 OFFCURVE",
"367.7 290.99 CURVE SMOOTH",
"367.7 392.98 LINE",
"367.77 470.98 LINE SMOOTH",
"367.79 500.71 OFFCURVE",
"369.08 529.54 OFFCURVE",
"378.37 554.96 CURVE SMOOTH",
"386.64 577.58 OFFCURVE",
"401.23 597.94 OFFCURVE",
"420.04 612.53 CURVE",
"420.04 458.47 OFFCURVE",
"420.04 304.4 OFFCURVE",
"420.04 150.34 CURVE"
);
},
{
closed = 1;
nodes = (
"448.7 383.63 LINE",
"621.36 470.89 LINE",
"625.76 450.89 OFFCURVE",
"628.21 430.45 OFFCURVE",
"629.49 410 CURVE SMOOTH",
"629.72 406.28 OFFCURVE",
"629.92 402.56 OFFCURVE",
"630.09 398.84 CURVE",
"448.7 306.89 LINE"
);
}
);
width = 787;
}
);
note = Dcaron;
unicode = 010E;
},
{
glyphname = Dcroat;
layers = (
{
hints = (
{
horizontal = 1;
place = "{118.33, 24}";
type = Stem;
},
{
horizontal = 1;
place = "{335.08, 114.87}";
type = Stem;
},
{
horizontal = 1;
place = "{618, 122}";
type = Stem;
},
{
place = "{141.14, 129.05}";
type = Stem;
},
{
place = "{305.71, 28}";
type = Stem;
},
{
place = "{386.04, 28.67}";
type = Stem;
},
{
horizontal = 1;
place = "{322.94, 118.15}";
type = Stem;
}
);
layerId = "032EDF5D-2B69-4E95-A18F-0FD11DED884D";
paths = (
{
closed = 1;
nodes = (
"89.42 118.33 LINE",
"148.69 133.18 OFFCURVE",
"205.12 165.95 OFFCURVE",
"240.17 216 CURVE SMOOTH",
"251.37 232 OFFCURVE",
"259.95 249.9 OFFCURVE",
"264.74 268.83 CURVE SMOOTH",
"269.53 287.76 OFFCURVE",
"270.17 307.47 OFFCURVE",
"270.17 327 CURVE SMOOTH",
"270.17 329.69 OFFCURVE",
"270.17 332.39 OFFCURVE",
"270.17 335.08 CURVE",
"305.71 337.42 LINE",
"305.71 321.95 OFFCURVE",
"305.71 306.48 OFFCURVE",
"305.71 291 CURVE SMOOTH",
"305.71 272.58 OFFCURVE",
"304.45 255.02 OFFCURVE",
"298.95 239.65 CURVE SMOOTH",
"293.34 223.96 OFFCURVE",
"283.65 209.21 OFFCURVE",
"272.23 195.16 CURVE SMOOTH",
"256.72 176.07 OFFCURVE",
"239.26 158.19 OFFCURVE",
"221.3 140.33 CURVE",
"133.69 112.91 OFFCURVE",
"57.73 49.78 OFFCURVE",
"15 -31.5 CURVE",
"43.5 -31.5 LINE",
"99.38 19.52 OFFCURVE",
"175.36 47.89 OFFCURVE",
"251 46 CURVE SMOOTH",
"310.04 44.52 OFFCURVE",
"368.5 24.92 OFFCURVE",
"416.5 -9.5 CURVE",
"666.5 128 LINE",
"683.27 162.02 OFFCURVE",
"697.01 197.54 OFFCURVE",
"707.5 234 CURVE SMOOTH",
"726.71 300.74 OFFCURVE",
"735.39 370.66 OFFCURVE",
"731.5 440 CURVE SMOOTH",
"727.45 512.1 OFFCURVE",
"709.58 585.31 OFFCURVE",
"667.5 644 CURVE SMOOTH",
"643.17 677.93 OFFCURVE",
"610.1 705.93 OFFCURVE",
"571.5 721.82 CURVE SMOOTH",
"532.9 737.71 OFFCURVE",
"490.25 740 OFFCURVE",
"448.5 740 CURVE SMOOTH",
"175.5 740 LINE SMOOTH",
"167.62 740 OFFCURVE",
"159.72 740.05 OFFCURVE",
"151.92 741.19 CURVE SMOOTH",
"144.13 742.33 OFFCURVE",
"136.45 744.57 OFFCURVE",
"129.5 748.26 CURVE SMOOTH",
"122.54 751.95 OFFCURVE",
"116.34 757.1 OFFCURVE",
"111.58 763.37 CURVE SMOOTH",
"106.82 769.64 OFFCURVE",
"103.5 777.01 OFFCURVE",
"102 784.74 CURVE",
"80.5 785.49 LINE",
"73.94 760.67 OFFCURVE",
"70.21 735 OFFCURVE",
"70.8 709.34 CURVE SMOOTH",
"71.09 696.51 OFFCURVE",
"72.53 683.65 OFFCURVE",
"75.93 671.27 CURVE SMOOTH",
"79.34 658.9 OFFCURVE",
"84.8 646.9 OFFCURVE",
"93.25 637.24 CURVE SMOOTH",
"99.32 630.29 OFFCURVE",
"107.03 624.71 OFFCURVE",
"115.71 621.57 CURVE SMOOTH",
"124.39 618.43 OFFCURVE",
"133.78 617.99 OFFCURVE",
"143 617.99 CURVE SMOOTH",
"282.3 617.99 LINE",
"203.2 566.49 LINE SMOOTH",
"185.03 554.66 OFFCURVE",
"166.63 541.89 OFFCURVE",
"155.1 523.52 CURVE SMOOTH",
"149.33 514.34 OFFCURVE",
"145.4 504.04 OFFCURVE",
"143.34 493.39 CURVE SMOOTH",
"141.28 482.74 OFFCURVE",
"141.13 471.83 OFFCURVE",
"141.13 460.99 CURVE SMOOTH",
"141.13 454.35 OFFCURVE",
"141.14 447.71 OFFCURVE",
"141.14 441.08 CURVE",
"121.06 437.37 OFFCURVE",
"101.61 431.26 OFFCURVE",
"84 421.04 CURVE SMOOTH",
"57.49 405.66 OFFCURVE",
"36.15 380.59 OFFCURVE",
"28 351.04 CURVE SMOOTH",
"20.26 322.97 OFFCURVE",
"24.81 291.67 OFFCURVE",
"40.52 267.16 CURVE",
"59.65 267.16 LINE",
"58.17 274.29 OFFCURVE",
"58.39 281.77 OFFCURVE",
"60.31 288.8 CURVE SMOOTH",
"63.49 300.46 OFFCURVE",
"71.52 310.67 OFFCURVE",
"82 316.69 CURVE SMOOTH",
"87.24 319.7 OFFCURVE",
"93.02 321.71 OFFCURVE",
"98.94 322.93 CURVE SMOOTH",
"104.86 324.15 OFFCURVE",
"110.91 324.6 OFFCURVE",
"116.94 324.99 CURVE SMOOTH",
"141.19 326.59 LINE",
"141.19 325.17 OFFCURVE",
"141.19 323.75 OFFCURVE",
"141.19 322.33 CURVE SMOOTH",
"141.19 295.96 OFFCURVE",
"141.8 269.5 OFFCURVE",
"138.71 243.32 CURVE SMOOTH",
"135.63 217.14 OFFCURVE",
"127.85 190.89 OFFCURVE",
"111.77 170 CURVE SMOOTH",
"103.16 158.82 OFFCURVE",
"92.35 149.33 OFFCURVE",
"80.1 142.33 CURVE"
);
},
{
closed = 1;
nodes = (
"270.25 507 LINE SMOOTH",
"270.27 528.29 OFFCURVE",
"271.34 550.1 OFFCURVE",
"279.77 569.65 CURVE SMOOTH",
"288 588.74 OFFCURVE",
"302.81 604.08 OFFCURVE",
"318.29 618 CURVE",
"350.7 618 LINE",
"336.4 602.58 OFFCURVE",
"325.29 584.28 OFFCURVE",
"318.09 564.58 CURVE SMOOTH",
"306.77 533.63 OFFCURVE",
"305.81 501.29 OFFCURVE",
"305.79 471.01 CURVE SMOOTH",
"305.78 454.29 LINE",
"302.68 453.77 OFFCURVE",
"299.58 453.29 OFFCURVE",
"296.47 452.85 CURVE SMOOTH",
"287.75 451.6 OFFCURVE",
"278.99 450.67 OFFCURVE",
"270.21 449.96 CURVE"
);
},
{
closed = 1;
nodes = (
"414.73 187.68 OFFCURVE",
"414.73 231.22 OFFCURVE",
"414.73 274.77 CURVE",
"596.72 367.02 LINE",
"596.48 325.66 OFFCURVE",
"592.37 284.31 OFFCURVE",
"585.52 243.51 CURVE SMOOTH",
"576.3 188.61 OFFCURVE",
"561.25 134.68 OFFCURVE",
"540.52 83.01 CURVE",
"503.33 111.74 OFFCURVE",
"460.19 132.34 OFFCURVE",
"414.73 144.14 CURVE"
);
},
{
closed = 1;
nodes = (
"437.4 617.78 OFFCURVE",
"460.25 616.29 OFFCURVE",
"481.61 608.85 CURVE SMOOTH",
"504.92 600.73 OFFCURVE",
"525.79 586.1 OFFCURVE",
"542.02 567.51 CURVE SMOOTH",
"559.25 547.78 OFFCURVE",
"571.44 524.03 OFFCURVE",
"579.69 499.13 CURVE",
"414.73 415.76 LINE",
"414.73 483.17 OFFCURVE",
"414.73 550.58 OFFCURVE",
"414.73 617.99 CURVE"
);
},
{
closed = 1;
nodes = (
"348.31 156.97 OFFCURVE",
"309.52 157.61 OFFCURVE",
"271.66 151.92 CURVE",
"279.31 160.18 OFFCURVE",
"286.79 168.68 OFFCURVE",
"293.98 177.52 CURVE SMOOTH",
"306.48 192.91 OFFCURVE",
"318.17 210.21 OFFCURVE",
"325.33 230.24 CURVE SMOOTH",
"332.61 250.59 OFFCURVE",
"333.73 271.51 OFFCURVE",
"333.73 291.02 CURVE SMOOTH",
"333.73 393.01 LINE",
"333.8 471.01 LINE SMOOTH",
"333.82 500.74 OFFCURVE",
"335.11 529.57 OFFCURVE",
"344.4 554.99 CURVE SMOOTH",
"352.67 577.61 OFFCURVE",
"367.26 597.97 OFFCURVE",
"386.07 612.56 CURVE",
"386.07 458.5 OFFCURVE",
"386.07 304.43 OFFCURVE",
"386.07 150.37 CURVE"
);
},
{
closed = 1;
nodes = (
"414.73 383.66 LINE",
"587.39 470.92 LINE",
"591.79 450.92 OFFCURVE",
"594.24 430.48 OFFCURVE",
"595.52 410.03 CURVE SMOOTH",
"595.75 406.31 OFFCURVE",
"595.95 402.59 OFFCURVE",
"596.12 398.87 CURVE",
"414.73 306.92 LINE"
);
}
);
width = 747;
}
);
note = Dcroat;
unicode = 0110;
},
{
color = 4;
glyphname = E;
lastChange = "2020-08-31 23:16:03 +0000";
layers = (
{
layerId = "032EDF5D-2B69-4E95-A18F-0FD11DED884D";
paths = (
{
closed = 1;
nodes = (
"595 -17 OFFCURVE",
"719 97 OFFCURVE",
"726 240 CURVE",
"707 240 LINE",
"666 161 OFFCURVE",
"583 104 OFFCURVE",
"500 97 CURVE",
"500 333 LINE",
"611 333 LINE",
"733 460 LINE",
"500 460 LINE",
"500 635 LINE",
"532 616 OFFCURVE",
"588 590 OFFCURVE",
"622 576 CURVE",
"741 700 LINE",
"733 710 LINE",
"702 683 LINE",
"639 705 OFFCURVE",
"589 728 OFFCURVE",
"532 769 CURVE",
"268 608 LINE",
"297 652 OFFCURVE",
"332 684 OFFCURVE",
"376 709 CURVE",
"366 723 LINE",
"208 671 OFFCURVE",
"94 525 OFFCURVE",
"94 358 CURVE SMOOTH",
"94 139 OFFCURVE",
"249 -17 OFFCURVE",
"455 -17 CURVE SMOOTH"
);
},
{
closed = 1;
nodes = (
"222 298 OFFCURVE",
"216 340 OFFCURVE",
"216 383 CURVE SMOOTH",
"216 442 OFFCURVE",
"226 513 OFFCURVE",
"244 559 CURVE",
"298 592 LINE",
"298 272 LINE",
"243 249 LINE"
);
},
{
closed = 1;
nodes = (
"427 298 LINE",
"427 671 LINE",
"435 676 LINE",
"447 668 OFFCURVE",
"459 660 OFFCURVE",
"472 652 CURVE",
"472 95 LINE",
"382 95 OFFCURVE",
"299 140 OFFCURVE",
"254 225 CURVE"
);
}
);
width = 737;
},
{
associatedMasterId = "032EDF5D-2B69-4E95-A18F-0FD11DED884D";
layerId = "98CAC7D8-10AB-472C-A7D0-7D077EBDDEFD";
name = "Aug 30 20, 22:32";
paths = (
{
closed = 1;
nodes = (
"366.27 722.86 LINE",
"289.16 698.1 OFFCURVE",
"220.11 648.87 OFFCURVE",
"171.6 584.03 CURVE SMOOTH",
"123.09 519.18 OFFCURVE",
"95.34 438.98 OFFCURVE",
"93.78 358.01 CURVE SMOOTH",
"91.91 261 OFFCURVE",
"128.26 163.38 OFFCURVE",
"194.67 92.65 CURVE SMOOTH",
"261.09 21.92 OFFCURVE",
"357.83 -20.93 OFFCURVE",
"454.78 -16.99 CURVE SMOOTH",
"505.38 -14.94 OFFCURVE",
"555.58 -0.3 OFFCURVE",
"598.67 26.31 CURVE SMOOTH",
"641.76 52.92 OFFCURVE",
"677.47 91.55 OFFCURVE",
"699.78 137.01 CURVE SMOOTH",
"715.51 169.06 OFFCURVE",
"724.61 204.35 OFFCURVE",
"726.28 240.01 CURVE",
"707.11 240.01 LINE",
"685.67 200.78 OFFCURVE",
"654.74 166.76 OFFCURVE",
"617.66 141.78 CURVE SMOOTH",
"582.63 118.18 OFFCURVE",
"542.12 102.65 OFFCURVE",
"500.23 97.31 CURVE",
"500.23 175.88 OFFCURVE",
"500.23 254.44 OFFCURVE",
"500.23 333.01 CURVE",
"611.43 333.01 LINE",
"733.43 460.01 LINE",
"500.23 460.01 LINE",
"500.23 518.29 OFFCURVE",
"500.23 576.57 OFFCURVE",
"500.23 634.86 CURVE",
"505.21 632.01 OFFCURVE",
"510.22 629.21 OFFCURVE",
"515.25 626.45 CURVE SMOOTH",
"549.91 607.43 OFFCURVE",
"585.69 590.48 OFFCURVE",
"622.35 575.7 CURVE",
"741.29 699.93 LINE",
"733.11 709.57 LINE",
"701.57 683.39 LINE",
"678.78 690.55 OFFCURVE",
"656.43 699.13 OFFCURVE",
"634.69 709.04 CURVE SMOOTH",
"598.65 725.48 OFFCURVE",
"564.3 745.62 OFFCURVE",
"532.36 769.04 CURVE",
"532.36 769.04 LINE",
"532.36 769.04 LINE",
"268.22 607.68 LINE",
"294.36 650.09 OFFCURVE",
"331.62 685.69 OFFCURVE",
"375.88 708.5 CURVE"
);
},
{
closed = 1;
nodes = (
"242.9 249 LINE",
"235.56 266.72 OFFCURVE",
"229.9 285.17 OFFCURVE",
"225.79 303.89 CURVE SMOOTH",
"216.04 348.27 OFFCURVE",
"214.2 394.2 OFFCURVE",
"217.88 439.5 CURVE SMOOTH",
"221.2 480.44 OFFCURVE",
"229.26 521.33 OFFCURVE",
"244.28 559.47 CURVE",
"297.88 592.22 LINE",
"297.88 485.63 OFFCURVE",
"297.88 379.04 OFFCURVE",
"297.88 272.44 CURVE"
);
},
{
closed = 1;
nodes = (
"426.88 297.51 LINE",
"426.94 671.07 LINE",
"434.67 675.79 LINE",
"446.8 667.56 OFFCURVE",
"459.1 659.59 OFFCURVE",
"471.58 651.9 CURVE",
"471.58 466.37 OFFCURVE",
"471.58 280.84 OFFCURVE",
"471.58 95.32 CURVE",
"439.34 94.86 OFFCURVE",
"407 100.52 OFFCURVE",
"377.07 112.48 CURVE SMOOTH",
"340.54 127.08 OFFCURVE",
"307.88 151.14 OFFCURVE",
"282.88 181.51 CURVE SMOOTH",
"271.83 194.93 OFFCURVE",
"262.31 209.49 OFFCURVE",
"254.22 224.84 CURVE"
);
}
);
visible = 1;
width = 737;
}
);
note = E;
unicode = 0045;
},
{
glyphname = Eacute;
layers = (
{
layerId = "032EDF5D-2B69-4E95-A18F-0FD11DED884D";
paths = (
{
closed = 1;
nodes = (
"606.38 959 LINE",
"555.05 998.67 LINE",
"469.38 823 LINE",
"478.05 816.33 LINE"
);
},
{
closed = 1;
nodes = (
"366.28 722.85 LINE",
"289.17 698.09 OFFCURVE",
"220.12 648.86 OFFCURVE",
"171.61 584.02 CURVE SMOOTH",
"123.1 519.17 OFFCURVE",
"95.35 438.97 OFFCURVE",
"93.79 358 CURVE SMOOTH",
"91.92 260.99 OFFCURVE",
"128.27 163.37 OFFCURVE",
"194.68 92.64 CURVE SMOOTH",
"261.1 21.91 OFFCURVE",
"357.84 -20.94 OFFCURVE",
"454.79 -17 CURVE SMOOTH",
"505.39 -14.95 OFFCURVE",
"555.59 -0.31 OFFCURVE",
"598.68 26.3 CURVE SMOOTH",
"641.77 52.91 OFFCURVE",
"677.48 91.54 OFFCURVE",
"699.79 137 CURVE SMOOTH",
"715.52 169.05 OFFCURVE",
"724.62 204.34 OFFCURVE",
"726.29 240 CURVE",
"707.12 240 LINE",
"685.68 200.77 OFFCURVE",
"654.75 166.75 OFFCURVE",
"617.67 141.77 CURVE SMOOTH",
"582.64 118.17 OFFCURVE",
"542.13 102.64 OFFCURVE",
"500.24 97.3 CURVE",
"500.24 175.87 OFFCURVE",
"500.24 254.43 OFFCURVE",
"500.24 333 CURVE",
"611.44 333 LINE",
"733.44 460 LINE",
"500.24 460 LINE",
"500.24 518.28 OFFCURVE",
"500.24 576.56 OFFCURVE",
"500.24 634.85 CURVE",
"505.22 632 OFFCURVE",
"510.23 629.2 OFFCURVE",
"515.26 626.44 CURVE SMOOTH",
"549.92 607.42 OFFCURVE",
"585.7 590.47 OFFCURVE",
"622.36 575.69 CURVE",
"741.3 699.92 LINE",
"733.12 709.56 LINE",
"701.58 683.38 LINE",
"678.79 690.54 OFFCURVE",
"656.44 699.12 OFFCURVE",
"634.7 709.03 CURVE SMOOTH",
"598.66 725.47 OFFCURVE",
"564.31 745.61 OFFCURVE",
"532.37 769.03 CURVE",
"532.37 769.03 LINE",
"532.37 769.03 LINE",
"268.23 607.67 LINE",
"294.37 650.08 OFFCURVE",
"331.63 685.68 OFFCURVE",
"375.89 708.49 CURVE"
);
},
{
closed = 1;
nodes = (
"242.91 248.99 LINE",
"235.57 266.71 OFFCURVE",
"229.91 285.16 OFFCURVE",
"225.8 303.88 CURVE SMOOTH",
"216.05 348.26 OFFCURVE",
"214.21 394.19 OFFCURVE",
"217.89 439.49 CURVE SMOOTH",
"221.21 480.43 OFFCURVE",
"229.27 521.32 OFFCURVE",
"244.29 559.46 CURVE",
"297.89 592.21 LINE",
"297.89 485.62 OFFCURVE",
"297.89 379.03 OFFCURVE",
"297.89 272.43 CURVE"
);
},
{
closed = 1;
nodes = (
"426.89 297.5 LINE",
"426.95 671.06 LINE",
"434.68 675.78 LINE",
"446.81 667.55 OFFCURVE",
"459.11 659.58 OFFCURVE",
"471.59 651.89 CURVE",
"471.59 466.36 OFFCURVE",
"471.59 280.83 OFFCURVE",
"471.59 95.31 CURVE",
"439.35 94.85 OFFCURVE",
"407.01 100.51 OFFCURVE",
"377.08 112.47 CURVE SMOOTH",
"340.55 127.07 OFFCURVE",
"307.89 151.13 OFFCURVE",
"282.89 181.5 CURVE SMOOTH",
"271.84 194.92 OFFCURVE",
"262.32 209.48 OFFCURVE",
"254.23 224.83 CURVE"
);
}
);
width = 737;
}
);
note = Eacute;
unicode = 00C9;
},
{
glyphname = Ebreve;
layers = (
{
layerId = "032EDF5D-2B69-4E95-A18F-0FD11DED884D";
paths = (
{
closed = 1;
nodes = (
"432.05 843.24 OFFCURVE",
"399.52 867.7 OFFCURVE",
"376.53 899 CURVE",
"444.53 959 LINE",
"453.97 945.75 OFFCURVE",
"466.16 934.49 OFFCURVE",
"480.05 926.02 CURVE SMOOTH",
"496.33 916.09 OFFCURVE",
"514.78 909.95 OFFCURVE",
"533.63 907.09 CURVE SMOOTH",
"552.48 904.22 OFFCURVE",
"571.95 904.27 OFFCURVE",
"590.44 908.93 CURVE SMOOTH",
"600.22 911.39 OFFCURVE",
"609.7 915.29 OFFCURVE",
"617.96 921.08 CURVE SMOOTH",
"627.12 927.5 OFFCURVE",
"634.64 936.25 OFFCURVE",
"639.42 946.36 CURVE",
"665.11 933.96 LINE",
"657.49 916.94 OFFCURVE",
"647.94 900.77 OFFCURVE",
"636.52 886.02 CURVE SMOOTH",
"621.78 866.98 OFFCURVE",
"603.7 850.26 OFFCURVE",
"582.43 839 CURVE SMOOTH",
"565.2 829.88 OFFCURVE",
"546.01 824.51 OFFCURVE",
"526.55 823.33 CURVE SMOOTH",
"507.09 822.15 OFFCURVE",
"487.46 825.04 OFFCURVE",
"468.94 831.12 CURVE SMOOTH"
);
},
{
closed = 1;
nodes = (
"366.27 722.86 LINE",
"289.16 698.1 OFFCURVE",
"220.11 648.87 OFFCURVE",
"171.6 584.03 CURVE SMOOTH",
"123.09 519.18 OFFCURVE",
"95.34 438.98 OFFCURVE",
"93.78 358.01 CURVE SMOOTH",
"91.91 261 OFFCURVE",
"128.26 163.38 OFFCURVE",
"194.67 92.65 CURVE SMOOTH",
"261.09 21.92 OFFCURVE",
"357.83 -20.93 OFFCURVE",
"454.78 -16.99 CURVE SMOOTH",
"505.38 -14.94 OFFCURVE",
"555.58 -0.3 OFFCURVE",
"598.67 26.31 CURVE SMOOTH",
"641.76 52.92 OFFCURVE",
"677.47 91.55 OFFCURVE",
"699.78 137.01 CURVE SMOOTH",
"715.51 169.06 OFFCURVE",
"724.61 204.35 OFFCURVE",
"726.28 240.01 CURVE",
"707.11 240.01 LINE",
"685.67 200.78 OFFCURVE",
"654.74 166.76 OFFCURVE",
"617.66 141.78 CURVE SMOOTH",
"582.63 118.18 OFFCURVE",
"542.12 102.65 OFFCURVE",
"500.23 97.31 CURVE",
"500.23 175.88 OFFCURVE",
"500.23 254.44 OFFCURVE",
"500.23 333.01 CURVE",
"611.43 333.01 LINE",
"733.43 460.01 LINE",
"500.23 460.01 LINE",
"500.23 518.29 OFFCURVE",
"500.23 576.57 OFFCURVE",
"500.23 634.86 CURVE",
"505.21 632.01 OFFCURVE",
"510.22 629.21 OFFCURVE",
"515.25 626.45 CURVE SMOOTH",
"549.91 607.43 OFFCURVE",
"585.69 590.48 OFFCURVE",
"622.35 575.7 CURVE",
"741.29 699.93 LINE",
"733.11 709.57 LINE",
"701.57 683.39 LINE",
"678.78 690.55 OFFCURVE",
"656.43 699.13 OFFCURVE",
"634.69 709.04 CURVE SMOOTH",
"598.65 725.48 OFFCURVE",
"564.3 745.62 OFFCURVE",
"532.36 769.04 CURVE",
"532.36 769.04 LINE",
"532.36 769.04 LINE",
"268.22 607.68 LINE",
"294.36 650.09 OFFCURVE",
"331.62 685.69 OFFCURVE",
"375.88 708.5 CURVE"
);
},
{
closed = 1;
nodes = (
"242.9 249 LINE",
"235.56 266.72 OFFCURVE",
"229.9 285.17 OFFCURVE",
"225.79 303.89 CURVE SMOOTH",
"216.04 348.27 OFFCURVE",
"214.2 394.2 OFFCURVE",
"217.88 439.5 CURVE SMOOTH",
"221.2 480.44 OFFCURVE",
"229.26 521.33 OFFCURVE",
"244.28 559.47 CURVE",
"297.88 592.22 LINE",
"297.88 485.63 OFFCURVE",
"297.88 379.04 OFFCURVE",
"297.88 272.44 CURVE"
);
},
{
closed = 1;
nodes = (
"426.88 297.51 LINE",
"426.94 671.07 LINE",
"434.67 675.79 LINE",
"446.8 667.56 OFFCURVE",
"459.1 659.59 OFFCURVE",
"471.58 651.9 CURVE",
"471.58 466.37 OFFCURVE",
"471.58 280.84 OFFCURVE",
"471.58 95.32 CURVE",
"439.34 94.86 OFFCURVE",
"407 100.52 OFFCURVE",
"377.07 112.48 CURVE SMOOTH",
"340.54 127.08 OFFCURVE",
"307.88 151.14 OFFCURVE",
"282.88 181.51 CURVE SMOOTH",
"271.83 194.93 OFFCURVE",
"262.31 209.49 OFFCURVE",
"254.22 224.84 CURVE"
);
}
);
width = 737;
}
);
note = Ebreve;
unicode = 0114;
},
{
glyphname = Ecaron;
layers = (
{
layerId = "032EDF5D-2B69-4E95-A18F-0FD11DED884D";
paths = (
{
closed = 1;
nodes = (
"391.65 943.23 LINE",
"526.49 819.16 LINE",
"708.42 1004.49 LINE",
"689.87 1022.7 LINE",
"583.01 913.84 LINE",
"464.74 1022.67 LINE"
);
},
{
closed = 1;
nodes = (
"366.27 722.86 LINE",
"289.16 698.1 OFFCURVE",
"220.11 648.87 OFFCURVE",
"171.6 584.03 CURVE SMOOTH",
"123.09 519.18 OFFCURVE",
"95.34 438.98 OFFCURVE",
"93.78 358.01 CURVE SMOOTH",
"91.91 261 OFFCURVE",
"128.26 163.38 OFFCURVE",
"194.67 92.65 CURVE SMOOTH",
"261.09 21.92 OFFCURVE",
"357.83 -20.93 OFFCURVE",
"454.78 -16.99 CURVE SMOOTH",
"505.38 -14.94 OFFCURVE",
"555.58 -0.3 OFFCURVE",
"598.67 26.31 CURVE SMOOTH",
"641.76 52.92 OFFCURVE",
"677.47 91.55 OFFCURVE",
"699.78 137.01 CURVE SMOOTH",
"715.51 169.06 OFFCURVE",
"724.61 204.35 OFFCURVE",
"726.28 240.01 CURVE",
"707.11 240.01 LINE",
"685.67 200.78 OFFCURVE",
"654.74 166.76 OFFCURVE",
"617.66 141.78 CURVE SMOOTH",
"582.63 118.18 OFFCURVE",
"542.12 102.65 OFFCURVE",
"500.23 97.31 CURVE",
"500.23 175.88 OFFCURVE",
"500.23 254.44 OFFCURVE",
"500.23 333.01 CURVE",
"611.43 333.01 LINE",
"733.43 460.01 LINE",
"500.23 460.01 LINE",
"500.23 518.29 OFFCURVE",
"500.23 576.57 OFFCURVE",
"500.23 634.86 CURVE",
"505.21 632.01 OFFCURVE",
"510.22 629.21 OFFCURVE",
"515.25 626.45 CURVE SMOOTH",
"549.91 607.43 OFFCURVE",
"585.69 590.48 OFFCURVE",
"622.35 575.7 CURVE",
"741.29 699.93 LINE",
"733.11 709.57 LINE",
"701.57 683.39 LINE",
"678.78 690.55 OFFCURVE",
"656.43 699.13 OFFCURVE",
"634.69 709.04 CURVE SMOOTH",
"598.65 725.48 OFFCURVE",
"564.3 745.62 OFFCURVE",
"532.36 769.04 CURVE",
"532.36 769.04 LINE",
"532.36 769.04 LINE",
"268.22 607.68 LINE",
"294.36 650.09 OFFCURVE",
"331.62 685.69 OFFCURVE",
"375.88 708.5 CURVE"
);
},
{
closed = 1;
nodes = (
"242.9 249 LINE",
"235.56 266.72 OFFCURVE",
"229.9 285.17 OFFCURVE",
"225.79 303.89 CURVE SMOOTH",
"216.04 348.27 OFFCURVE",
"214.2 394.2 OFFCURVE",
"217.88 439.5 CURVE SMOOTH",
"221.2 480.44 OFFCURVE",
"229.26 521.33 OFFCURVE",
"244.28 559.47 CURVE",
"297.88 592.22 LINE",
"297.88 485.63 OFFCURVE",
"297.88 379.04 OFFCURVE",
"297.88 272.44 CURVE"
);
},
{
closed = 1;
nodes = (
"426.88 297.51 LINE",
"426.94 671.07 LINE",
"434.67 675.79 LINE",
"446.8 667.56 OFFCURVE",
"459.1 659.59 OFFCURVE",
"471.58 651.9 CURVE",
"471.58 466.37 OFFCURVE",
"471.58 280.84 OFFCURVE",
"471.58 95.32 CURVE",
"439.34 94.86 OFFCURVE",
"407 100.52 OFFCURVE",
"377.07 112.48 CURVE SMOOTH",
"340.54 127.08 OFFCURVE",
"307.88 151.14 OFFCURVE",
"282.88 181.51 CURVE SMOOTH",
"271.83 194.93 OFFCURVE",
"262.31 209.49 OFFCURVE",
"254.22 224.84 CURVE"
);
}
);
width = 737;
}
);
note = Ecaron;
unicode = 011A;
},
{
glyphname = Ecircumflex;
layers = (
{
layerId = "032EDF5D-2B69-4E95-A18F-0FD11DED884D";
paths = (
{
closed = 1;
nodes = (
"372.44 797.79 LINE",
"474.44 898.79 LINE",
"582.94 797.79 LINE",
"656.41 876.71 LINE",
"532.42 992.13 LINE",
"354.48 815.93 LINE"
);
},
{
closed = 1;
nodes = (
"366.27 722.85 LINE",
"289.16 698.09 OFFCURVE",
"220.11 648.86 OFFCURVE",
"171.6 584.02 CURVE SMOOTH",
"123.09 519.17 OFFCURVE",
"95.34 438.97 OFFCURVE",
"93.78 358 CURVE SMOOTH",
"91.91 260.99 OFFCURVE",
"128.26 163.37 OFFCURVE",
"194.67 92.64 CURVE SMOOTH",
"261.09 21.91 OFFCURVE",
"357.83 -20.94 OFFCURVE",
"454.78 -17 CURVE SMOOTH",
"505.38 -14.95 OFFCURVE",
"555.58 -0.31 OFFCURVE",
"598.67 26.3 CURVE SMOOTH",
"641.76 52.91 OFFCURVE",
"677.47 91.54 OFFCURVE",
"699.78 137 CURVE SMOOTH",
"715.51 169.05 OFFCURVE",
"724.61 204.34 OFFCURVE",
"726.28 240 CURVE",
"707.11 240 LINE",
"685.67 200.77 OFFCURVE",
"654.74 166.75 OFFCURVE",
"617.66 141.77 CURVE SMOOTH",
"582.63 118.17 OFFCURVE",
"542.12 102.64 OFFCURVE",
"500.23 97.3 CURVE",
"500.23 175.87 OFFCURVE",
"500.23 254.43 OFFCURVE",
"500.23 333 CURVE",
"611.43 333 LINE",
"733.43 460 LINE",
"500.23 460 LINE",
"500.23 518.28 OFFCURVE",
"500.23 576.56 OFFCURVE",
"500.23 634.85 CURVE",
"505.21 632 OFFCURVE",
"510.22 629.2 OFFCURVE",
"515.25 626.44 CURVE SMOOTH",
"549.91 607.42 OFFCURVE",
"585.69 590.47 OFFCURVE",
"622.35 575.69 CURVE",
"741.29 699.92 LINE",
"733.11 709.56 LINE",
"701.57 683.38 LINE",
"678.78 690.54 OFFCURVE",
"656.43 699.12 OFFCURVE",
"634.69 709.03 CURVE SMOOTH",
"598.65 725.47 OFFCURVE",
"564.3 745.61 OFFCURVE",
"532.36 769.03 CURVE",
"532.36 769.03 LINE",
"532.36 769.03 LINE",
"268.22 607.67 LINE",
"294.36 650.08 OFFCURVE",
"331.62 685.68 OFFCURVE",
"375.88 708.49 CURVE"
);
},
{
closed = 1;
nodes = (
"242.9 248.99 LINE",
"235.56 266.71 OFFCURVE",
"229.9 285.16 OFFCURVE",
"225.79 303.88 CURVE SMOOTH",
"216.04 348.26 OFFCURVE",
"214.2 394.19 OFFCURVE",
"217.88 439.49 CURVE SMOOTH",
"221.2 480.43 OFFCURVE",
"229.26 521.32 OFFCURVE",
"244.28 559.46 CURVE",
"297.88 592.21 LINE",
"297.88 485.62 OFFCURVE",
"297.88 379.03 OFFCURVE",
"297.88 272.43 CURVE"
);
},
{
closed = 1;
nodes = (
"426.88 297.5 LINE",
"426.94 671.06 LINE",
"434.67 675.78 LINE",
"446.8 667.55 OFFCURVE",
"459.1 659.58 OFFCURVE",
"471.58 651.89 CURVE",
"471.58 466.36 OFFCURVE",
"471.58 280.83 OFFCURVE",
"471.58 95.31 CURVE",
"439.34 94.85 OFFCURVE",
"407 100.51 OFFCURVE",
"377.07 112.47 CURVE SMOOTH",
"340.54 127.07 OFFCURVE",
"307.88 151.13 OFFCURVE",
"282.88 181.5 CURVE SMOOTH",
"271.83 194.92 OFFCURVE",
"262.31 209.48 OFFCURVE",
"254.22 224.83 CURVE"
);
}
);
width = 737;
}
);
note = Ecircumflex;
unicode = 00CA;
},
{
glyphname = Edieresis;
layers = (
{
layerId = "032EDF5D-2B69-4E95-A18F-0FD11DED884D";
paths = (
{
closed = 1;
nodes = (
"316.59 929.47 LINE",
"407.94 838.12 LINE",
"497.82 928 LINE",
"406.47 1019.35 LINE"
);
},
{
closed = 1;
nodes = (
"546.59 929.47 LINE",
"637.94 838.12 LINE",
"727.82 928 LINE",
"636.47 1019.35 LINE"
);
},
{
closed = 1;
nodes = (
"366.28 722.86 LINE",
"289.17 698.1 OFFCURVE",
"220.12 648.87 OFFCURVE",
"171.61 584.03 CURVE SMOOTH",
"123.1 519.18 OFFCURVE",
"95.35 438.98 OFFCURVE",
"93.79 358.01 CURVE SMOOTH",
"91.92 261 OFFCURVE",
"128.27 163.38 OFFCURVE",
"194.68 92.65 CURVE SMOOTH",
"261.1 21.92 OFFCURVE",
"357.84 -20.93 OFFCURVE",
"454.79 -16.99 CURVE SMOOTH",
"505.39 -14.94 OFFCURVE",
"555.59 -0.3 OFFCURVE",
"598.68 26.31 CURVE SMOOTH",
"641.77 52.92 OFFCURVE",
"677.48 91.55 OFFCURVE",
"699.79 137.01 CURVE SMOOTH",
"715.52 169.06 OFFCURVE",
"724.62 204.35 OFFCURVE",
"726.29 240.01 CURVE",
"707.12 240.01 LINE",
"685.68 200.78 OFFCURVE",
"654.75 166.76 OFFCURVE",
"617.67 141.78 CURVE SMOOTH",
"582.64 118.18 OFFCURVE",
"542.13 102.65 OFFCURVE",
"500.24 97.31 CURVE",
"500.24 175.88 OFFCURVE",
"500.24 254.44 OFFCURVE",
"500.24 333.01 CURVE",
"611.44 333.01 LINE",
"733.44 460.01 LINE",
"500.24 460.01 LINE",
"500.24 518.29 OFFCURVE",
"500.24 576.57 OFFCURVE",
"500.24 634.86 CURVE",
"505.22 632.01 OFFCURVE",
"510.23 629.21 OFFCURVE",
"515.26 626.45 CURVE SMOOTH",
"549.92 607.43 OFFCURVE",
"585.7 590.48 OFFCURVE",
"622.36 575.7 CURVE",
"741.3 699.93 LINE",
"733.12 709.57 LINE",
"701.58 683.39 LINE",
"678.79 690.55 OFFCURVE",
"656.44 699.13 OFFCURVE",
"634.7 709.04 CURVE SMOOTH",
"598.66 725.48 OFFCURVE",
"564.31 745.62 OFFCURVE",
"532.37 769.04 CURVE",
"532.37 769.04 LINE",
"532.37 769.04 LINE",
"268.23 607.68 LINE",
"294.37 650.09 OFFCURVE",
"331.63 685.69 OFFCURVE",
"375.89 708.5 CURVE"
);
},
{
closed = 1;
nodes = (
"242.91 249 LINE",
"235.57 266.72 OFFCURVE",
"229.91 285.17 OFFCURVE",
"225.8 303.89 CURVE SMOOTH",
"216.05 348.27 OFFCURVE",
"214.21 394.2 OFFCURVE",
"217.89 439.5 CURVE SMOOTH",
"221.21 480.44 OFFCURVE",
"229.27 521.33 OFFCURVE",
"244.29 559.47 CURVE",
"297.89 592.22 LINE",
"297.89 485.63 OFFCURVE",
"297.89 379.04 OFFCURVE",
"297.89 272.44 CURVE"
);
},
{
closed = 1;
nodes = (
"426.89 297.51 LINE",
"426.95 671.07 LINE",
"434.68 675.79 LINE",
"446.81 667.56 OFFCURVE",
"459.11 659.59 OFFCURVE",
"471.59 651.9 CURVE",
"471.59 466.37 OFFCURVE",
"471.59 280.84 OFFCURVE",
"471.59 95.32 CURVE",
"439.35 94.86 OFFCURVE",
"407.01 100.52 OFFCURVE",
"377.08 112.48 CURVE SMOOTH",
"340.55 127.08 OFFCURVE",
"307.89 151.14 OFFCURVE",
"282.89 181.51 CURVE SMOOTH",
"271.84 194.93 OFFCURVE",
"262.32 209.49 OFFCURVE",
"254.23 224.84 CURVE"
);
}
);
width = 737;
}
);
note = Edieresis;
unicode = 00CB;
},
{
glyphname = Edotaccent;
layers = (
{
layerId = "032EDF5D-2B69-4E95-A18F-0FD11DED884D";
paths = (
{
closed = 1;
nodes = (
"436.59 937.37 LINE",
"527.94 846.02 LINE",
"617.82 935.9 LINE",
"526.47 1027.25 LINE"
);
},
{
closed = 1;
nodes = (
"366.28 722.86 LINE",
"289.17 698.1 OFFCURVE",
"220.12 648.87 OFFCURVE",
"171.61 584.03 CURVE SMOOTH",
"123.1 519.18 OFFCURVE",
"95.35 438.98 OFFCURVE",
"93.79 358.01 CURVE SMOOTH",
"91.92 261 OFFCURVE",
"128.27 163.38 OFFCURVE",
"194.68 92.65 CURVE SMOOTH",
"261.1 21.92 OFFCURVE",
"357.84 -20.93 OFFCURVE",
"454.79 -16.99 CURVE SMOOTH",
"505.39 -14.94 OFFCURVE",
"555.59 -0.3 OFFCURVE",
"598.68 26.31 CURVE SMOOTH",
"641.77 52.92 OFFCURVE",
"677.48 91.55 OFFCURVE",
"699.79 137.01 CURVE SMOOTH",
"715.52 169.06 OFFCURVE",
"724.62 204.35 OFFCURVE",
"726.29 240.01 CURVE",
"707.12 240.01 LINE",
"685.68 200.78 OFFCURVE",
"654.75 166.76 OFFCURVE",
"617.67 141.78 CURVE SMOOTH",
"582.64 118.18 OFFCURVE",
"542.13 102.65 OFFCURVE",
"500.24 97.31 CURVE",
"500.24 175.88 OFFCURVE",
"500.24 254.44 OFFCURVE",
"500.24 333.01 CURVE",
"611.44 333.01 LINE",
"733.44 460.01 LINE",
"500.24 460.01 LINE",
"500.24 518.29 OFFCURVE",
"500.24 576.57 OFFCURVE",
"500.24 634.86 CURVE",
"505.22 632.01 OFFCURVE",
"510.23 629.21 OFFCURVE",
"515.26 626.45 CURVE SMOOTH",
"549.92 607.43 OFFCURVE",
"585.7 590.48 OFFCURVE",
"622.36 575.7 CURVE",
"741.3 699.93 LINE",
"733.12 709.57 LINE",
"701.58 683.39 LINE",
"678.79 690.55 OFFCURVE",
"656.44 699.13 OFFCURVE",
"634.7 709.04 CURVE SMOOTH",
"598.66 725.48 OFFCURVE",
"564.31 745.62 OFFCURVE",
"532.37 769.04 CURVE",
"532.37 769.04 LINE",
"532.37 769.04 LINE",
"268.23 607.68 LINE",
"294.37 650.09 OFFCURVE",
"331.63 685.69 OFFCURVE",
"375.89 708.5 CURVE"
);
},
{
closed = 1;
nodes = (
"242.91 249 LINE",
"235.57 266.72 OFFCURVE",
"229.91 285.17 OFFCURVE",
"225.8 303.89 CURVE SMOOTH",
"216.05 348.27 OFFCURVE",
"214.21 394.2 OFFCURVE",
"217.89 439.5 CURVE SMOOTH",
"221.21 480.44 OFFCURVE",
"229.27 521.33 OFFCURVE",
"244.29 559.47 CURVE",
"297.89 592.22 LINE",
"297.89 485.63 OFFCURVE",
"297.89 379.04 OFFCURVE",
"297.89 272.44 CURVE"
);
},
{
closed = 1;
nodes = (
"426.89 297.51 LINE",
"426.95 671.07 LINE",
"434.68 675.79 LINE",
"446.81 667.56 OFFCURVE",
"459.11 659.59 OFFCURVE",
"471.59 651.9 CURVE",
"471.59 466.37 OFFCURVE",
"471.59 280.84 OFFCURVE",
"471.59 95.32 CURVE",
"439.35 94.86 OFFCURVE",
"407.01 100.52 OFFCURVE",
"377.08 112.48 CURVE SMOOTH",
"340.55 127.08 OFFCURVE",
"307.89 151.14 OFFCURVE",
"282.89 181.51 CURVE SMOOTH",
"271.84 194.93 OFFCURVE",
"262.32 209.49 OFFCURVE",
"254.23 224.84 CURVE"
);
}
);
width = 737;
}
);
note = Edotaccent;
unicode = 0116;
},
{
glyphname = Egrave;
layers = (
{
layerId = "032EDF5D-2B69-4E95-A18F-0FD11DED884D";
paths = (
{
closed = 1;
nodes = (
"469.38 959 LINE",
"520.71 998.67 LINE",
"606.38 823 LINE",
"597.71 816.33 LINE"
);
},
{
closed = 1;
nodes = (
"366.28 722.85 LINE",
"289.17 698.09 OFFCURVE",
"220.12 648.86 OFFCURVE",
"171.61 584.02 CURVE SMOOTH",
"123.1 519.17 OFFCURVE",
"95.35 438.97 OFFCURVE",
"93.79 358 CURVE SMOOTH",
"91.92 260.99 OFFCURVE",
"128.27 163.37 OFFCURVE",
"194.68 92.64 CURVE SMOOTH",
"261.1 21.91 OFFCURVE",
"357.84 -20.94 OFFCURVE",
"454.79 -17 CURVE SMOOTH",
"505.39 -14.95 OFFCURVE",
"555.59 -0.31 OFFCURVE",
"598.68 26.3 CURVE SMOOTH",
"641.77 52.91 OFFCURVE",
"677.48 91.54 OFFCURVE",
"699.79 137 CURVE SMOOTH",
"715.52 169.05 OFFCURVE",
"724.62 204.34 OFFCURVE",
"726.29 240 CURVE",
"707.12 240 LINE",
"685.68 200.77 OFFCURVE",
"654.75 166.75 OFFCURVE",
"617.67 141.77 CURVE SMOOTH",
"582.64 118.17 OFFCURVE",
"542.13 102.64 OFFCURVE",
"500.24 97.3 CURVE",
"500.24 175.87 OFFCURVE",
"500.24 254.43 OFFCURVE",
"500.24 333 CURVE",
"611.44 333 LINE",
"733.44 460 LINE",
"500.24 460 LINE",
"500.24 518.28 OFFCURVE",
"500.24 576.56 OFFCURVE",
"500.24 634.85 CURVE",
"505.22 632 OFFCURVE",
"510.23 629.2 OFFCURVE",
"515.26 626.44 CURVE SMOOTH",
"549.92 607.42 OFFCURVE",
"585.7 590.47 OFFCURVE",
"622.36 575.69 CURVE",
"741.3 699.92 LINE",
"733.12 709.56 LINE",
"701.58 683.38 LINE",
"678.79 690.54 OFFCURVE",
"656.44 699.12 OFFCURVE",
"634.7 709.03 CURVE SMOOTH",
"598.66 725.47 OFFCURVE",
"564.31 745.61 OFFCURVE",
"532.37 769.03 CURVE",
"532.37 769.03 LINE",
"532.37 769.03 LINE",
"268.23 607.67 LINE",
"294.37 650.08 OFFCURVE",
"331.63 685.68 OFFCURVE",
"375.89 708.49 CURVE"
);
},
{
closed = 1;
nodes = (
"242.91 248.99 LINE",
"235.57 266.71 OFFCURVE",
"229.91 285.16 OFFCURVE",
"225.8 303.88 CURVE SMOOTH",
"216.05 348.26 OFFCURVE",
"214.21 394.19 OFFCURVE",
"217.89 439.49 CURVE SMOOTH",
"221.21 480.43 OFFCURVE",
"229.27 521.32 OFFCURVE",
"244.29 559.46 CURVE",
"297.89 592.21 LINE",
"297.89 485.62 OFFCURVE",
"297.89 379.03 OFFCURVE",
"297.89 272.43 CURVE"
);
},
{
closed = 1;
nodes = (
"426.89 297.5 LINE",
"426.95 671.06 LINE",
"434.68 675.78 LINE",
"446.81 667.55 OFFCURVE",
"459.11 659.58 OFFCURVE",
"471.59 651.89 CURVE",
"471.59 466.36 OFFCURVE",
"471.59 280.83 OFFCURVE",
"471.59 95.31 CURVE",
"439.35 94.85 OFFCURVE",
"407.01 100.51 OFFCURVE",
"377.08 112.47 CURVE SMOOTH",
"340.55 127.07 OFFCURVE",
"307.89 151.13 OFFCURVE",
"282.89 181.5 CURVE SMOOTH",
"271.84 194.92 OFFCURVE",
"262.32 209.48 OFFCURVE",
"254.23 224.83 CURVE"
);
}
);
width = 737;
}
);
note = Egrave;
unicode = 00C8;
},
{
glyphname = Emacron;
layers = (
{
layerId = "032EDF5D-2B69-4E95-A18F-0FD11DED884D";
paths = (
{
closed = 1;
nodes = (
"399.58 844.22 LINE",
"672.55 843.22 LINE",
"672.55 950.22 LINE",
"399.58 951.22 LINE"
);
},
{
closed = 1;
nodes = (
"366.27 722.86 LINE",
"289.16 698.1 OFFCURVE",
"220.11 648.87 OFFCURVE",
"171.6 584.03 CURVE SMOOTH",
"123.09 519.18 OFFCURVE",
"95.34 438.98 OFFCURVE",
"93.78 358.01 CURVE SMOOTH",
"91.91 261 OFFCURVE",
"128.26 163.38 OFFCURVE",
"194.67 92.65 CURVE SMOOTH",
"261.09 21.92 OFFCURVE",
"357.83 -20.93 OFFCURVE",
"454.78 -16.99 CURVE SMOOTH",
"505.38 -14.94 OFFCURVE",
"555.58 -0.3 OFFCURVE",
"598.67 26.31 CURVE SMOOTH",
"641.76 52.92 OFFCURVE",
"677.47 91.55 OFFCURVE",
"699.78 137.01 CURVE SMOOTH",
"715.51 169.06 OFFCURVE",
"724.61 204.35 OFFCURVE",
"726.28 240.01 CURVE",
"707.11 240.01 LINE",
"685.67 200.78 OFFCURVE",
"654.74 166.76 OFFCURVE",
"617.66 141.78 CURVE SMOOTH",
"582.63 118.18 OFFCURVE",
"542.12 102.65 OFFCURVE",
"500.23 97.31 CURVE",
"500.23 175.88 OFFCURVE",
"500.23 254.44 OFFCURVE",
"500.23 333.01 CURVE",
"611.43 333.01 LINE",
"733.43 460.01 LINE",
"500.23 460.01 LINE",
"500.23 518.29 OFFCURVE",
"500.23 576.57 OFFCURVE",
"500.23 634.86 CURVE",
"505.21 632.01 OFFCURVE",
"510.22 629.21 OFFCURVE",
"515.25 626.45 CURVE SMOOTH",
"549.91 607.43 OFFCURVE",
"585.69 590.48 OFFCURVE",
"622.35 575.7 CURVE",
"741.29 699.93 LINE",
"733.11 709.57 LINE",
"701.57 683.39 LINE",
"678.78 690.55 OFFCURVE",
"656.43 699.13 OFFCURVE",
"634.69 709.04 CURVE SMOOTH",
"598.65 725.48 OFFCURVE",
"564.3 745.62 OFFCURVE",
"532.36 769.04 CURVE",
"532.36 769.04 LINE",
"532.36 769.04 LINE",
"268.22 607.68 LINE",
"294.36 650.09 OFFCURVE",
"331.62 685.69 OFFCURVE",
"375.88 708.5 CURVE"
);
},
{
closed = 1;
nodes = (
"242.9 249 LINE",
"235.56 266.72 OFFCURVE",
"229.9 285.17 OFFCURVE",
"225.79 303.89 CURVE SMOOTH",
"216.04 348.27 OFFCURVE",
"214.2 394.2 OFFCURVE",
"217.88 439.5 CURVE SMOOTH",
"221.2 480.44 OFFCURVE",
"229.26 521.33 OFFCURVE",
"244.28 559.47 CURVE",
"297.88 592.22 LINE",
"297.88 485.63 OFFCURVE",
"297.88 379.04 OFFCURVE",
"297.88 272.44 CURVE"
);
},
{
closed = 1;
nodes = (
"426.88 297.51 LINE",
"426.94 671.07 LINE",
"434.67 675.79 LINE",
"446.8 667.56 OFFCURVE",
"459.1 659.59 OFFCURVE",
"471.58 651.9 CURVE",
"471.58 466.37 OFFCURVE",
"471.58 280.84 OFFCURVE",
"471.58 95.32 CURVE",
"439.34 94.86 OFFCURVE",
"407 100.52 OFFCURVE",
"377.07 112.48 CURVE SMOOTH",
"340.54 127.08 OFFCURVE",
"307.88 151.14 OFFCURVE",
"282.88 181.51 CURVE SMOOTH",
"271.83 194.93 OFFCURVE",
"262.31 209.49 OFFCURVE",
"254.22 224.84 CURVE"
);
}
);
width = 737;
}
);
note = Emacron;
unicode = 0112;
},
{
glyphname = Eogonek;
layers = (
{
layerId = "032EDF5D-2B69-4E95-A18F-0FD11DED884D";
paths = (
{
closed = 1;
nodes = (
"548.02 -230.31 LINE",
"516.63 -212.96 OFFCURVE",
"492.78 -182.46 OFFCURVE",
"483.52 -147.81 CURVE SMOOTH",
"474.77 -115.07 OFFCURVE",
"479.07 -79.04 OFFCURVE",
"495.29 -49.28 CURVE SMOOTH",
"505.84 -29.91 OFFCURVE",
"521.37 -13.35 OFFCURVE",
"539.82 -1.28 CURVE",
"560.39 5.68 OFFCURVE",
"580.19 14.89 OFFCURVE",
"598.67 26.31 CURVE SMOOTH",
"641.76 52.92 OFFCURVE",
"677.47 91.55 OFFCURVE",
"699.78 137.01 CURVE SMOOTH",
"715.51 169.06 OFFCURVE",
"724.61 204.35 OFFCURVE",
"726.28 240.01 CURVE",
"707.11 240.01 LINE",
"685.67 200.78 OFFCURVE",
"654.74 166.76 OFFCURVE",
"617.66 141.78 CURVE SMOOTH",
"582.63 118.18 OFFCURVE",
"542.12 102.65 OFFCURVE",
"500.23 97.31 CURVE",
"500.23 175.88 OFFCURVE",
"500.23 254.44 OFFCURVE",
"500.23 333.01 CURVE",
"611.43 333.01 LINE",
"733.43 460.01 LINE",
"500.23 460.01 LINE",
"500.23 518.29 OFFCURVE",
"500.23 576.57 OFFCURVE",
"500.23 634.86 CURVE",
"505.21 632.01 OFFCURVE",
"510.22 629.21 OFFCURVE",
"515.25 626.45 CURVE SMOOTH",
"549.91 607.43 OFFCURVE",
"585.69 590.48 OFFCURVE",
"622.35 575.7 CURVE",
"741.29 699.93 LINE",
"733.11 709.57 LINE",
"701.57 683.39 LINE",
"678.78 690.55 OFFCURVE",
"656.43 699.13 OFFCURVE",
"634.69 709.04 CURVE SMOOTH",
"598.65 725.48 OFFCURVE",
"564.3 745.62 OFFCURVE",
"532.36 769.04 CURVE",
"532.36 769.04 LINE",
"532.36 769.04 LINE",
"268.22 607.68 LINE",
"294.36 650.09 OFFCURVE",
"331.62 685.69 OFFCURVE",
"375.88 708.5 CURVE",
"366.29 722.88 LINE",
"289.18 698.12 OFFCURVE",
"220.13 648.89 OFFCURVE",
"171.62 584.05 CURVE SMOOTH",
"123.11 519.2 OFFCURVE",
"95.36 439 OFFCURVE",
"93.8 358.03 CURVE SMOOTH",
"91.93 261.02 OFFCURVE",
"128.28 163.4 OFFCURVE",
"194.69 92.67 CURVE SMOOTH",
"246.91 37.06 OFFCURVE",
"317.88 -1.32 OFFCURVE",
"392.96 -13.27 CURVE",
"390.57 -24.43 OFFCURVE",
"389.54 -35.88 OFFCURVE",
"390.04 -47.29 CURVE SMOOTH",
"391.03 -69.64 OFFCURVE",
"397.81 -91.55 OFFCURVE",
"408.37 -111.28 CURVE SMOOTH",
"418.93 -131.01 OFFCURVE",
"433.04 -148.66 OFFCURVE",
"448.54 -164.79 CURVE SMOOTH",
"476.28 -193.67 OFFCURVE",
"508.11 -218.42 OFFCURVE",
"541.54 -240.46 CURVE"
);
},
{
closed = 1;
nodes = (
"242.9 249 LINE",
"235.56 266.72 OFFCURVE",
"229.9 285.17 OFFCURVE",
"225.79 303.89 CURVE SMOOTH",
"216.04 348.27 OFFCURVE",
"214.2 394.2 OFFCURVE",
"217.88 439.5 CURVE SMOOTH",
"221.2 480.44 OFFCURVE",
"229.26 521.33 OFFCURVE",
"244.28 559.47 CURVE",
"297.88 592.22 LINE",
"297.88 485.63 OFFCURVE",
"297.88 379.04 OFFCURVE",
"297.88 272.44 CURVE"
);
},
{
closed = 1;
nodes = (
"426.88 297.51 LINE",
"426.94 671.07 LINE",
"434.67 675.79 LINE",
"446.8 667.56 OFFCURVE",
"459.1 659.59 OFFCURVE",
"471.58 651.9 CURVE",
"471.58 466.37 OFFCURVE",
"471.58 280.84 OFFCURVE",
"471.58 95.32 CURVE",
"439.34 94.86 OFFCURVE",
"407 100.52 OFFCURVE",
"377.07 112.48 CURVE SMOOTH",
"340.54 127.08 OFFCURVE",
"307.88 151.14 OFFCURVE",
"282.88 181.51 CURVE SMOOTH",
"271.83 194.93 OFFCURVE",
"262.31 209.49 OFFCURVE",
"254.22 224.84 CURVE"
);
}
);
width = 737;
}
);
note = Eogonek;
unicode = 0118;
},
{
color = 4;
glyphname = F;
lastChange = "2020-08-31 23:16:03 +0000";
layers = (
{
layerId = "032EDF5D-2B69-4E95-A18F-0FD11DED884D";
paths = (
{
closed = 1;
nodes = (
"60 428 OFFCURVE",
"60 365 CURVE SMOOTH",
"60 345 OFFCURVE",
"65 320 OFFCURVE",
"75 302 CURVE",
"92 302 LINE",
"92 337 OFFCURVE",
"103 366 OFFCURVE",
"150 366 CURVE SMOOTH",
"198 366 LINE",
"198 137 OFFCURVE",
"193 119 OFFCURVE",
"163 71 CURVE",
"111 67 OFFCURVE",
"50 29 OFFCURVE",
"50 -41 CURVE SMOOTH",
"50 -117 OFFCURVE",
"90 -165 OFFCURVE",
"175 -165 CURVE",
"175 -139 LINE",
"147 -133 OFFCURVE",
"129 -112 OFFCURVE",
"129 -88 CURVE SMOOTH",
"129 -68 OFFCURVE",
"147 -57 OFFCURVE",
"168 -57 CURVE SMOOTH",
"236 -56 LINE SMOOTH",
"302 -55 OFFCURVE",
"455 132 OFFCURVE",
"517 221 CURVE",
"517 364 LINE",
"603 364 LINE",
"717 481 LINE",
"517 481 LINE",
"517 664 LINE",
"557 635 OFFCURVE",
"615 608 OFFCURVE",
"662 595 CURVE",
"785 716 LINE",
"757 737 LINE",
"725 708 LINE",
"670 726 OFFCURVE",
"616 752 OFFCURVE",
"570 784 CURVE",
"376 613 LINE",
"376 107 LINE SMOOTH",
"376 89 OFFCURVE",
"372 65 OFFCURVE",
"354 55 CURVE",
"318 59 OFFCURVE",
"256 71 OFFCURVE",
"195 71 CURVE",
"290 128 LINE SMOOTH",
"317 144 OFFCURVE",
"327 174 OFFCURVE",
"327 208 CURVE SMOOTH",
"327 398 LINE",
"327 539 LINE SMOOTH",
"327 644 OFFCURVE",
"356 679 OFFCURVE",
"480 753 CURVE",
"481 779 LINE",
"456 763 OFFCURVE",
"423 754 OFFCURVE",
"392 754 CURVE SMOOTH",
"345 754 OFFCURVE",
"292 779 OFFCURVE",
"242 779 CURVE SMOOTH",
"166 779 OFFCURVE",
"91 719 OFFCURVE",
"69 648 CURVE",
"93 648 LINE",
"106 677 OFFCURVE",
"136 695 OFFCURVE",
"163 695 CURVE SMOOTH",
"203 695 OFFCURVE",
"250 665 OFFCURVE",
"296 665 CURVE SMOOTH",
"309 665 OFFCURVE",
"322 667 OFFCURVE",
"335 670 CURVE",
"254 607 OFFCURVE",
"198 567 OFFCURVE",
"198 512 CURVE SMOOTH",
"198 477 LINE",
"104 472 OFFCURVE"
);
}
);
width = 679;
},
{
associatedMasterId = "032EDF5D-2B69-4E95-A18F-0FD11DED884D";
layerId = "401AB661-A0DC-4048-8F11-C53D1E290015";
name = "Aug 30 20, 22:39";
paths = (
{
closed = 1;
nodes = (
"60.68 376.72 OFFCURVE",
"59.96 369.04 OFFCURVE",
"59.96 361.36 CURVE SMOOTH",
"59.96 340.86 OFFCURVE",
"65.1 320.33 OFFCURVE",
"74.69 302.18 CURVE",
"93.82 302.18 LINE",
"92.24 310.68 OFFCURVE",
"92.42 319.51 OFFCURVE",
"94.48 327.9 CURVE SMOOTH",
"97.44 340.01 OFFCURVE",
"104.65 351.25 OFFCURVE",
"115.14 357.98 CURVE SMOOTH",
"120.39 361.34 OFFCURVE",
"126.34 363.54 OFFCURVE",
"132.47 364.69 CURVE SMOOTH",
"138.6 365.83 OFFCURVE",
"144.87 365.91 OFFCURVE",
"151.1 365.91 CURVE SMOOTH",
"166.62 365.91 OFFCURVE",
"182.15 365.91 OFFCURVE",
"197.67 365.91 CURVE",
"197.67 342.15 OFFCURVE",
"197.67 318.4 OFFCURVE",
"197.67 294.64 CURVE SMOOTH",
"197.67 274.89 OFFCURVE",
"198.06 255.11 OFFCURVE",
"198.06 235.35 CURVE SMOOTH",
"198.06 214.89 OFFCURVE",
"197.64 194.45 OFFCURVE",
"195.94 174.08 CURVE SMOOTH",
"192.91 137.7 OFFCURVE",
"183.84 100.74 OFFCURVE",
"163.26 70.85 CURVE",
"137.38 67.59 OFFCURVE",
"112.06 59.04 OFFCURVE",
"91.66 43 CURVE SMOOTH",
"73.3 28.57 OFFCURVE",
"59.49 8.36 OFFCURVE",
"53.14 -14.11 CURVE SMOOTH",
"46.78 -36.58 OFFCURVE",
"47.85 -61 OFFCURVE",
"55.66 -83 CURVE SMOOTH",
"64.27 -107.26 OFFCURVE",
"80.95 -128.53 OFFCURVE",
"102.25 -142.98 CURVE SMOOTH",
"123.55 -157.44 OFFCURVE",
"149.42 -165.05 OFFCURVE",
"175.16 -164.5 CURVE",
"175.16 -138.5 LINE",
"162.24 -136.37 OFFCURVE",
"150.07 -129.71 OFFCURVE",
"141.52 -119.8 CURVE SMOOTH",
"137.24 -114.84 OFFCURVE",
"133.87 -109.09 OFFCURVE",
"131.83 -102.87 CURVE SMOOTH",
"129.79 -96.65 OFFCURVE",
"129.08 -89.95 OFFCURVE",
"130.17 -83.5 CURVE SMOOTH",
"130.87 -79.33 OFFCURVE",
"132.33 -75.28 OFFCURVE",
"134.56 -71.69 CURVE SMOOTH",
"136.79 -68.1 OFFCURVE",
"139.8 -64.99 OFFCURVE",
"143.33 -62.67 CURVE SMOOTH",
"146.86 -60.35 OFFCURVE",
"150.89 -58.83 OFFCURVE",
"155.04 -58.01 CURVE SMOOTH",
"159.19 -57.19 OFFCURVE",
"163.44 -57.07 OFFCURVE",
"167.67 -57 CURVE SMOOTH",
"226.67 -56 LINE SMOOTH",
"234.4 -55.87 OFFCURVE",
"242.18 -55.58 OFFCURVE",
"249.74 -53.97 CURVE SMOOTH",
"257.31 -52.36 OFFCURVE",
"264.59 -49.51 OFFCURVE",
"271.32 -45.71 CURVE SMOOTH",
"284.79 -38.1 OFFCURVE",
"296.15 -27.33 OFFCURVE",
"307.67 -17 CURVE SMOOTH",
"322.99 -3.27 OFFCURVE",
"338 10.82 OFFCURVE",
"352.67 25.25 CURVE SMOOTH",
"413.45 85.03 OFFCURVE",
"468.46 150.69 OFFCURVE",
"516.67 221 CURVE",
"516.67 363.6 LINE",
"602.99 363.6 LINE",
"716.64 480.6 LINE",
"516.67 480.6 LINE",
"516.67 663.67 LINE",
"538.25 648.74 OFFCURVE",
"561.01 635.52 OFFCURVE",
"584.67 624.17 CURVE SMOOTH",
"609.62 612.2 OFFCURVE",
"635.58 602.33 OFFCURVE",
"662.17 594.67 CURVE",
"784.67 715.67 LINE",
"756.67 736.67 LINE",
"725.17 707.67 LINE",
"707.21 713.51 OFFCURVE",
"689.51 720.18 OFFCURVE",
"672.17 727.67 CURVE SMOOTH",
"636.29 743.15 OFFCURVE",
"601.92 762.1 OFFCURVE",
"569.67 784.17 CURVE",
"375.67 613 LINE",
"375.67 107 LINE SMOOTH",
"375.67 97.11 OFFCURVE",
"375.3 87.03 OFFCURVE",
"371.86 77.76 CURVE SMOOTH",
"368.41 68.49 OFFCURVE",
"362.02 60.3 OFFCURVE",
"353.67 55 CURVE",
"326.27 57.71 OFFCURVE",
"298.96 61.29 OFFCURVE",
"271.67 65 CURVE SMOOTH",
"246.17 68.47 OFFCURVE",
"220.54 72.13 OFFCURVE",
"194.86 72.45 CURVE",
"197.68 74.46 OFFCURVE",
"200.55 76.42 OFFCURVE",
"203.45 78.31 CURVE SMOOTH",
"231.28 96.46 OFFCURVE",
"263.07 108.25 OFFCURVE",
"289.67 128.16 CURVE SMOOTH",
"301.97 137.37 OFFCURVE",
"312.81 148.94 OFFCURVE",
"319.2 162.91 CURVE SMOOTH",
"325.58 176.89 OFFCURVE",
"326.67 192.62 OFFCURVE",
"326.67 207.99 CURVE SMOOTH",
"326.67 397.64 LINE",
"326.73 538.99 LINE SMOOTH",
"326.75 571.55 OFFCURVE",
"329.71 604.76 OFFCURVE",
"343.16 634.4 CURVE SMOOTH",
"351.6 653.01 OFFCURVE",
"363.92 669.8 OFFCURVE",
"378.91 683.68 CURVE SMOOTH",
"393.9 697.56 OFFCURVE",
"411.1 708.83 OFFCURVE",
"428.33 719.82 CURVE SMOOTH",
"445.48 730.76 OFFCURVE",
"462.7 741.59 OFFCURVE",
"479.66 752.82 CURVE",
"481.16 779.34 LINE",
"469.54 771.95 OFFCURVE",
"457 766.03 OFFCURVE",
"443.91 761.77 CURVE SMOOTH",
"427.29 756.36 OFFCURVE",
"409.81 753.71 OFFCURVE",
"392.33 753.71 CURVE SMOOTH",
"389.77 753.71 OFFCURVE",
"387.22 753.77 OFFCURVE",
"384.66 753.88 CURVE SMOOTH",
"360.01 754.97 OFFCURVE",
"335.95 761.33 OFFCURVE",
"312.07 767.48 CURVE SMOOTH",
"289.06 773.41 OFFCURVE",
"265.61 778.73 OFFCURVE",
"241.87 778.73 CURVE SMOOTH",
"240.97 778.73 OFFCURVE",
"240.07 778.72 OFFCURVE",
"239.16 778.71 CURVE SMOOTH",
"210.89 778.22 OFFCURVE",
"182.96 769.73 OFFCURVE",
"158.66 755.28 CURVE SMOOTH",
"117.92 731.05 OFFCURVE",
"86.68 692.02 OFFCURVE",
"69.16 647.98 CURVE",
"92.66 647.98 LINE",
"96.73 659.31 OFFCURVE",
"103.85 669.51 OFFCURVE",
"113.03 677.3 CURVE SMOOTH",
"122.21 685.08 OFFCURVE",
"133.41 690.39 OFFCURVE",
"145.16 692.96 CURVE SMOOTH",
"151.2 694.28 OFFCURVE",
"157.31 694.86 OFFCURVE",
"163.44 694.86 CURVE SMOOTH",
"180.38 694.86 OFFCURVE",
"197.45 690.43 OFFCURVE",
"213.64 684.93 CURVE SMOOTH",
"235.69 677.44 OFFCURVE",
"257.54 668.57 OFFCURVE",
"280.66 665.79 CURVE SMOOTH",
"285.77 665.17 OFFCURVE",
"290.91 664.87 OFFCURVE",
"296.05 664.87 CURVE SMOOTH",
"309.19 664.87 OFFCURVE",
"322.33 666.83 OFFCURVE",
"335.01 670.44 CURVE",
"308.14 649.28 OFFCURVE",
"282.34 626.75 OFFCURVE",
"257.75 602.98 CURVE SMOOTH",
"243.01 588.73 OFFCURVE",
"226.99 575.59 OFFCURVE",
"214.56 559.3 CURVE SMOOTH",
"208.34 551.15 OFFCURVE",
"203.41 541.96 OFFCURVE",
"200.69 532.08 CURVE SMOOTH",
"197.97 522.2 OFFCURVE",
"197.62 511.84 OFFCURVE",
"197.63 501.59 CURVE SMOOTH",
"197.64 476.81 LINE",
"197.32 476.76 OFFCURVE",
"196.99 476.7 OFFCURVE",
"196.67 476.65 CURVE SMOOTH",
"170.01 472.25 OFFCURVE",
"142.48 469.54 OFFCURVE",
"118.17 457.75 CURVE SMOOTH",
"103.79 450.77 OFFCURVE",
"90.93 440.54 OFFCURVE",
"81.3 427.79 CURVE SMOOTH",
"71.67 415.03 OFFCURVE",
"65.25 399.94 OFFCURVE",
"62.17 384.25 CURVE SMOOTH"
);
}
);
visible = 1;
width = 679;
}
);
note = F;
unicode = 0046;
},
{
color = 4;
glyphname = G;
lastChange = "2020-08-31 23:16:03 +0000";
layers = (
{
layerId = "032EDF5D-2B69-4E95-A18F-0FD11DED884D";
paths = (
{
closed = 1;
nodes = (
"228 275 OFFCURVE",
"219 366 OFFCURVE",
"219 459 CURVE SMOOTH",
"219 501 OFFCURVE",
"232 573 OFFCURVE",
"284 623 CURVE",
"284 338 LINE SMOOTH",
"284 284 OFFCURVE",
"282 243 OFFCURVE",
"250 206 CURVE"
);
},
{
closed = 1;
nodes = (
"600 40 OFFCURVE",
"496 15 CURVE",
"496 138 LINE",
"648 215 LINE",
"648 115 OFFCURVE"
);
},
{
closed = 1;
nodes = (
"496 243 LINE",
"624 307 LINE",
"634 288 OFFCURVE",
"641 267 OFFCURVE",
"645 245 CURVE",
"496 170 LINE"
);
},
{
closed = 1;
nodes = (
"496 275 LINE",
"496 422 LINE",
"542 404 OFFCURVE",
"582 372 OFFCURVE",
"609 332 CURVE"
);
},
{
closed = 1;
nodes = (
"377 13 OFFCURVE",
"300 77 OFFCURVE",
"267 160 CURVE",
"352 186 OFFCURVE",
"413 224 OFFCURVE",
"413 360 CURVE",
"467 413 LINE",
"467 13 LINE"
);
},
{
closed = 1;
nodes = (
"414 679 LINE",
"418 680 OFFCURVE",
"420 680 OFFCURVE",
"422 680 CURVE",
"472 644 OFFCURVE",
"539 605 OFFCURVE",
"595 580 CURVE",
"413 400 LINE"
);
},
{
closed = 1;
nodes = (
"750 693 LINE",
"729 713 LINE",
"696 680 LINE",
"635 702 OFFCURVE",
"571 738 OFFCURVE",
"521 778 CURVE",
"422 701 LINE",
"234 681 OFFCURVE",
"81 507 OFFCURVE",
"81 331 CURVE SMOOTH",
"81 126 OFFCURVE",
"228 -25 OFFCURVE",
"432 -25 CURVE SMOOTH",
"640 -25 OFFCURVE",
"776 144 OFFCURVE",
"776 281 CURVE SMOOTH",
"776 398 OFFCURVE",
"710 500 OFFCURVE",
"584 528 CURVE"
);
}
);
width = 807;
},
{
associatedMasterId = "032EDF5D-2B69-4E95-A18F-0FD11DED884D";
layerId = "367DE1C1-8B12-416A-AAAF-D1E86D0A22D3";
name = "Aug 31 20, 13:04";
paths = (
{
closed = 1;
nodes = (
"259.5 217.87 OFFCURVE",
"254.93 211.82 OFFCURVE",
"249.8 206.3 CURVE",
"242.28 230.9 OFFCURVE",
"236.75 256.17 OFFCURVE",
"232.36 281.52 CURVE SMOOTH",
"224.21 328.58 OFFCURVE",
"219.28 376.24 OFFCURVE",
"218.56 423.99 CURVE SMOOTH",
"217.86 470.19 OFFCURVE",
"221.95 517.42 OFFCURVE",
"240.24 559.85 CURVE SMOOTH",
"250.49 583.64 OFFCURVE",
"265.7 605.23 OFFCURVE",
"284.48 623 CURVE",
"284.48 528.11 OFFCURVE",
"284.48 433.21 OFFCURVE",
"284.48 338.32 CURVE SMOOTH",
"284.48 318.74 OFFCURVE",
"284.5 299.08 OFFCURVE",
"281.79 279.69 CURVE SMOOTH",
"279.08 260.3 OFFCURVE",
"273.47 241.11 OFFCURVE",
"263.39 224.32 CURVE SMOOTH"
);
},
{
closed = 1;
nodes = (
"647.13 159.01 OFFCURVE",
"633.14 116.65 OFFCURVE",
"607.15 83.03 CURVE SMOOTH",
"581.17 49.41 OFFCURVE",
"543.16 25.14 OFFCURVE",
"501.56 16.49 CURVE SMOOTH",
"499.55 16.07 OFFCURVE",
"497.53 15.69 OFFCURVE",
"495.51 15.35 CURVE",
"495.51 56.14 OFFCURVE",
"495.51 96.93 OFFCURVE",
"495.51 137.72 CURVE",
"647.94 214.67 LINE",
"648.12 210.28 OFFCURVE",
"648.16 205.89 OFFCURVE",
"648.06 201.5 CURVE SMOOTH"
);
},
{
closed = 1;
nodes = (
"495.51 242.68 LINE",
"623.63 307.36 LINE",
"633.51 287.71 OFFCURVE",
"640.62 266.67 OFFCURVE",
"644.55 245.07 CURVE",
"495.51 169.82 LINE"
);
},
{
closed = 1;
nodes = (
"495.51 274.78 LINE",
"495.51 323.95 OFFCURVE",
"495.51 373.12 OFFCURVE",
"495.51 422.3 CURVE",
"534.46 407.43 OFFCURVE",
"569.55 382.42 OFFCURVE",
"595.93 350.13 CURVE SMOOTH",
"600.64 344.37 OFFCURVE",
"605.06 338.38 OFFCURVE",
"609.19 332.18 CURVE"
);
},
{
closed = 1;
nodes = (
"431.68 12.72 OFFCURVE",
"396.42 22.79 OFFCURVE",
"366.26 41.04 CURVE SMOOTH",
"326.11 65.34 OFFCURVE",
"295.15 103.06 OFFCURVE",
"274.05 144.99 CURVE SMOOTH",
"271.58 149.89 OFFCURVE",
"269.24 154.85 OFFCURVE",
"267.01 159.85 CURVE",
"276.7 162.42 OFFCURVE",
"286.23 165.56 OFFCURVE",
"295.54 169.26 CURVE SMOOTH",
"323.75 180.49 OFFCURVE",
"350.12 196.97 OFFCURVE",
"371.04 218.98 CURVE SMOOTH",
"386.54 235.29 OFFCURVE",
"398.76 254.84 OFFCURVE",
"405.63 276.26 CURVE SMOOTH",
"412.51 297.68 OFFCURVE",
"413.46 320.49 OFFCURVE",
"413.46 342.98 CURVE SMOOTH",
"413.46 359.97 LINE",
"466.83 412.8 LINE",
"466.83 279.49 OFFCURVE",
"466.83 146.18 OFFCURVE",
"466.83 12.86 CURVE"
);
},
{
closed = 1;
nodes = (
"413.53 678.93 LINE",
"415.92 679.29 OFFCURVE",
"418.32 679.64 OFFCURVE",
"420.72 679.97 CURVE SMOOTH",
"421.26 680.04 OFFCURVE",
"421.81 680.12 OFFCURVE",
"422.36 680.19 CURVE",
"448.08 661.53 OFFCURVE",
"474.68 644.1 OFFCURVE",
"502.06 627.97 CURVE SMOOTH",
"532.08 610.29 OFFCURVE",
"563.02 594.17 OFFCURVE",
"594.72 579.72 CURVE",
"413.48 400.3 LINE",
"413.48 480.64 LINE"
);
},
{
closed = 1;
nodes = (
"749.58 692.69 LINE",
"729.42 713.06 LINE",
"696.48 680.45 LINE",
"671.16 689.46 OFFCURVE",
"646.45 700.16 OFFCURVE",
"622.56 712.47 CURVE SMOOTH",
"586.62 730.99 OFFCURVE",
"552.56 753.14 OFFCURVE",
"521.06 778.47 CURVE",
"423.32 700.6 LINE",
"235 679 OFFCURVE",
"87 525 OFFCURVE",
"80.56 336.97 CURVE SMOOTH",
"77.86 262.76 OFFCURVE",
"98.61 187.67 OFFCURVE",
"140.21 126.16 CURVE SMOOTH",
"181.81 64.65 OFFCURVE",
"244.12 17.45 OFFCURVE",
"314.56 -6.03 CURVE SMOOTH",
"370.78 -24.77 OFFCURVE",
"431.73 -28.67 OFFCURVE",
"490.1 -18.39 CURVE SMOOTH",
"548.47 -8.12 OFFCURVE",
"604.4 16.08 OFFCURVE",
"651.56 51.97 CURVE SMOOTH",
"703.51 91.51 OFFCURVE",
"744.85 146.07 OFFCURVE",
"764.06 208.47 CURVE SMOOTH",
"785.11 276.83 OFFCURVE",
"777.68 354.1 OFFCURVE",
"741.05 415.53 CURVE SMOOTH",
"707.02 472.61 OFFCURVE",
"648.42 514.41 OFFCURVE",
"583.51 528.29 CURVE"
);
}
);
visible = 1;
width = 807;
}
);
note = G;
unicode = 0047;
},
{
glyphname = Gbreve;
layers = (
{
layerId = "032EDF5D-2B69-4E95-A18F-0FD11DED884D";
paths = (
{
closed = 1;
nodes = (
"403.66 855.24 OFFCURVE",
"371.13 879.7 OFFCURVE",
"348.14 911 CURVE",
"416.14 971 LINE",
"425.58 957.75 OFFCURVE",
"437.77 946.49 OFFCURVE",
"451.66 938.02 CURVE SMOOTH",
"467.94 928.09 OFFCURVE",
"486.39 921.95 OFFCURVE",
"505.24 919.09 CURVE SMOOTH",
"524.09 916.22 OFFCURVE",
"543.56 916.27 OFFCURVE",
"562.05 920.93 CURVE SMOOTH",
"571.83 923.39 OFFCURVE",
"581.31 927.29 OFFCURVE",
"589.57 933.08 CURVE SMOOTH",
"598.73 939.5 OFFCURVE",
"606.25 948.25 OFFCURVE",
"611.03 958.36 CURVE",
"636.72 945.96 LINE",
"629.1 928.94 OFFCURVE",
"619.55 912.77 OFFCURVE",
"608.13 898.02 CURVE SMOOTH",
"593.39 878.98 OFFCURVE",
"575.31 862.26 OFFCURVE",
"554.04 851 CURVE SMOOTH",
"536.81 841.88 OFFCURVE",
"517.62 836.51 OFFCURVE",
"498.16 835.33 CURVE SMOOTH",
"478.7 834.15 OFFCURVE",
"459.07 837.04 OFFCURVE",
"440.55 843.12 CURVE SMOOTH"
);
},
{
closed = 1;
nodes = (
"259.49 217.88 OFFCURVE",
"254.92 211.83 OFFCURVE",
"249.79 206.31 CURVE",
"242.27 230.91 OFFCURVE",
"236.74 256.18 OFFCURVE",
"232.35 281.53 CURVE SMOOTH",
"224.2 328.59 OFFCURVE",
"219.27 376.25 OFFCURVE",
"218.55 424 CURVE SMOOTH",
"217.85 470.2 OFFCURVE",
"221.94 517.43 OFFCURVE",
"240.23 559.86 CURVE SMOOTH",
"250.48 583.65 OFFCURVE",
"265.69 605.24 OFFCURVE",
"284.47 623.01 CURVE",
"284.47 528.12 OFFCURVE",
"284.47 433.22 OFFCURVE",
"284.47 338.33 CURVE SMOOTH",
"284.47 318.75 OFFCURVE",
"284.49 299.09 OFFCURVE",
"281.78 279.7 CURVE SMOOTH",
"279.07 260.31 OFFCURVE",
"273.46 241.12 OFFCURVE",
"263.38 224.33 CURVE SMOOTH"
);
},
{
closed = 1;
nodes = (
"647.12 159.02 OFFCURVE",
"633.13 116.66 OFFCURVE",
"607.14 83.04 CURVE SMOOTH",
"581.16 49.42 OFFCURVE",
"543.15 25.15 OFFCURVE",
"501.55 16.5 CURVE SMOOTH",
"499.54 16.08 OFFCURVE",
"497.52 15.7 OFFCURVE",
"495.5 15.36 CURVE",
"495.5 56.15 OFFCURVE",
"495.5 96.94 OFFCURVE",
"495.5 137.73 CURVE",
"647.93 214.68 LINE",
"648.11 210.29 OFFCURVE",
"648.15 205.9 OFFCURVE",
"648.05 201.51 CURVE SMOOTH"
);
},
{
closed = 1;
nodes = (
"495.5 242.69 LINE",
"623.62 307.37 LINE",
"633.5 287.72 OFFCURVE",
"640.61 266.68 OFFCURVE",
"644.54 245.08 CURVE",
"495.5 169.83 LINE"
);
},
{
closed = 1;
nodes = (
"495.5 274.79 LINE",
"495.5 323.96 OFFCURVE",
"495.5 373.13 OFFCURVE",
"495.5 422.31 CURVE",
"534.45 407.44 OFFCURVE",
"569.54 382.43 OFFCURVE",
"595.92 350.14 CURVE SMOOTH",
"600.63 344.38 OFFCURVE",
"605.05 338.39 OFFCURVE",
"609.18 332.19 CURVE"
);
},
{
closed = 1;
nodes = (
"431.67 12.73 OFFCURVE",
"396.41 22.8 OFFCURVE",
"366.25 41.05 CURVE SMOOTH",
"326.1 65.35 OFFCURVE",
"295.14 103.07 OFFCURVE",
"274.04 145 CURVE SMOOTH",
"271.57 149.9 OFFCURVE",
"269.23 154.86 OFFCURVE",
"267 159.86 CURVE",
"276.69 162.43 OFFCURVE",
"286.22 165.57 OFFCURVE",
"295.53 169.27 CURVE SMOOTH",
"323.74 180.5 OFFCURVE",
"350.11 196.98 OFFCURVE",
"371.03 218.99 CURVE SMOOTH",
"386.53 235.3 OFFCURVE",
"398.75 254.85 OFFCURVE",
"405.62 276.27 CURVE SMOOTH",
"412.5 297.69 OFFCURVE",
"413.45 320.5 OFFCURVE",
"413.45 342.99 CURVE SMOOTH",
"413.45 359.98 LINE",
"466.82 412.81 LINE",
"466.82 279.5 OFFCURVE",
"466.82 146.19 OFFCURVE",
"466.82 12.87 CURVE"
);
},
{
closed = 1;
nodes = (
"413.52 678.94 LINE",
"415.91 679.3 OFFCURVE",
"418.31 679.65 OFFCURVE",
"420.71 679.98 CURVE SMOOTH",
"421.25 680.05 OFFCURVE",
"421.8 680.13 OFFCURVE",
"422.34 680.2 CURVE",
"448.06 661.54 OFFCURVE",
"474.66 644.11 OFFCURVE",
"502.04 627.98 CURVE SMOOTH",
"532.06 610.3 OFFCURVE",
"563 594.18 OFFCURVE",
"594.7 579.73 CURVE",
"413.46 400.31 LINE",
"413.46 480.65 LINE"
);
},
{
closed = 1;
nodes = (
"749.56 692.7 LINE",
"729.39 713.07 LINE",
"696.45 680.46 LINE",
"671.13 689.47 OFFCURVE",
"646.42 700.17 OFFCURVE",
"622.53 712.48 CURVE SMOOTH",
"586.59 731 OFFCURVE",
"552.53 753.15 OFFCURVE",
"521.03 778.48 CURVE",
"423.29 700.61 LINE",
"327.33 689.75 OFFCURVE",
"235.73 642.09 OFFCURVE",
"172.53 568.98 CURVE SMOOTH",
"117.07 504.83 OFFCURVE",
"83.61 421.72 OFFCURVE",
"80.53 336.98 CURVE SMOOTH",
"77.83 262.77 OFFCURVE",
"98.58 187.68 OFFCURVE",
"140.18 126.17 CURVE SMOOTH",
"181.78 64.66 OFFCURVE",
"244.09 17.46 OFFCURVE",
"314.53 -6.02 CURVE SMOOTH",
"370.75 -24.76 OFFCURVE",
"431.7 -28.66 OFFCURVE",
"490.07 -18.38 CURVE SMOOTH",
"548.44 -8.11 OFFCURVE",
"604.37 16.09 OFFCURVE",
"651.53 51.98 CURVE SMOOTH",
"703.48 91.52 OFFCURVE",
"744.82 146.08 OFFCURVE",
"764.03 208.48 CURVE SMOOTH",
"785.08 276.84 OFFCURVE",
"777.65 354.11 OFFCURVE",
"741.02 415.54 CURVE SMOOTH",
"706.99 472.62 OFFCURVE",
"648.39 514.42 OFFCURVE",
"583.48 528.3 CURVE"
);
}
);
width = 807;
}
);
note = Gbreve;
unicode = 011E;
},
{
glyphname = Gcircumflex;
layers = (
{
layerId = "032EDF5D-2B69-4E95-A18F-0FD11DED884D";
paths = (
{
closed = 1;
nodes = (
"344.05 809.79 LINE",
"446.05 910.79 LINE",
"554.55 809.79 LINE",
"628.02 888.71 LINE",
"504.03 1004.13 LINE",
"326.09 827.93 LINE"
);
},
{
closed = 1;
nodes = (
"259.5 217.87 OFFCURVE",
"254.93 211.82 OFFCURVE",
"249.8 206.3 CURVE",
"242.28 230.9 OFFCURVE",
"236.75 256.17 OFFCURVE",
"232.36 281.52 CURVE SMOOTH",
"224.21 328.58 OFFCURVE",
"219.28 376.24 OFFCURVE",
"218.56 423.99 CURVE SMOOTH",
"217.86 470.19 OFFCURVE",
"221.95 517.42 OFFCURVE",
"240.24 559.85 CURVE SMOOTH",
"250.49 583.64 OFFCURVE",
"265.7 605.23 OFFCURVE",
"284.48 623 CURVE",
"284.48 528.11 OFFCURVE",
"284.48 433.21 OFFCURVE",
"284.48 338.32 CURVE SMOOTH",
"284.48 318.74 OFFCURVE",
"284.5 299.08 OFFCURVE",
"281.79 279.69 CURVE SMOOTH",
"279.08 260.3 OFFCURVE",
"273.47 241.11 OFFCURVE",
"263.39 224.32 CURVE SMOOTH"
);
},
{
closed = 1;
nodes = (
"647.13 159.01 OFFCURVE",
"633.14 116.65 OFFCURVE",
"607.15 83.03 CURVE SMOOTH",
"581.17 49.41 OFFCURVE",
"543.16 25.14 OFFCURVE",
"501.56 16.49 CURVE SMOOTH",
"499.55 16.07 OFFCURVE",
"497.53 15.69 OFFCURVE",
"495.51 15.35 CURVE",
"495.51 56.14 OFFCURVE",
"495.51 96.93 OFFCURVE",
"495.51 137.72 CURVE",
"647.94 214.67 LINE",
"648.12 210.28 OFFCURVE",
"648.16 205.89 OFFCURVE",
"648.06 201.5 CURVE SMOOTH"
);
},
{
closed = 1;
nodes = (
"495.51 242.68 LINE",
"623.63 307.36 LINE",
"633.51 287.71 OFFCURVE",
"640.62 266.67 OFFCURVE",
"644.55 245.07 CURVE",
"495.51 169.82 LINE"
);
},
{
closed = 1;
nodes = (
"495.51 274.78 LINE",
"495.51 323.95 OFFCURVE",
"495.51 373.12 OFFCURVE",
"495.51 422.3 CURVE",
"534.46 407.43 OFFCURVE",
"569.55 382.42 OFFCURVE",
"595.93 350.13 CURVE SMOOTH",
"600.64 344.37 OFFCURVE",
"605.06 338.38 OFFCURVE",
"609.19 332.18 CURVE"
);
},
{
closed = 1;
nodes = (
"431.68 12.72 OFFCURVE",
"396.42 22.79 OFFCURVE",
"366.26 41.04 CURVE SMOOTH",
"326.11 65.34 OFFCURVE",
"295.15 103.06 OFFCURVE",
"274.05 144.99 CURVE SMOOTH",
"271.58 149.89 OFFCURVE",
"269.24 154.85 OFFCURVE",
"267.01 159.85 CURVE",
"276.7 162.42 OFFCURVE",
"286.23 165.56 OFFCURVE",
"295.54 169.26 CURVE SMOOTH",
"323.75 180.49 OFFCURVE",
"350.12 196.97 OFFCURVE",
"371.04 218.98 CURVE SMOOTH",
"386.54 235.29 OFFCURVE",
"398.76 254.84 OFFCURVE",
"405.63 276.26 CURVE SMOOTH",
"412.51 297.68 OFFCURVE",
"413.46 320.49 OFFCURVE",
"413.46 342.98 CURVE SMOOTH",
"413.46 359.97 LINE",
"466.83 412.8 LINE",
"466.83 279.49 OFFCURVE",
"466.83 146.18 OFFCURVE",
"466.83 12.86 CURVE"
);
},
{
closed = 1;
nodes = (
"413.53 678.93 LINE",
"415.92 679.29 OFFCURVE",
"418.32 679.64 OFFCURVE",
"420.72 679.97 CURVE SMOOTH",
"421.26 680.04 OFFCURVE",
"421.81 680.12 OFFCURVE",
"422.36 680.19 CURVE",
"448.08 661.53 OFFCURVE",
"474.68 644.1 OFFCURVE",
"502.06 627.97 CURVE SMOOTH",
"532.08 610.29 OFFCURVE",
"563.02 594.17 OFFCURVE",
"594.72 579.72 CURVE",
"413.48 400.3 LINE",
"413.48 480.64 LINE"
);
},
{
closed = 1;
nodes = (
"749.58 692.69 LINE",
"729.42 713.06 LINE",
"696.48 680.45 LINE",
"671.16 689.46 OFFCURVE",
"646.45 700.16 OFFCURVE",
"622.56 712.47 CURVE SMOOTH",
"586.62 730.99 OFFCURVE",
"552.56 753.14 OFFCURVE",
"521.06 778.47 CURVE",
"423.32 700.6 LINE",
"327.36 689.74 OFFCURVE",
"235.76 642.08 OFFCURVE",
"172.56 568.97 CURVE SMOOTH",
"117.1 504.82 OFFCURVE",
"83.64 421.71 OFFCURVE",
"80.56 336.97 CURVE SMOOTH",
"77.86 262.76 OFFCURVE",
"98.61 187.67 OFFCURVE",
"140.21 126.16 CURVE SMOOTH",
"181.81 64.65 OFFCURVE",
"244.12 17.45 OFFCURVE",
"314.56 -6.03 CURVE SMOOTH",
"370.78 -24.77 OFFCURVE",
"431.73 -28.67 OFFCURVE",
"490.1 -18.39 CURVE SMOOTH",
"548.47 -8.12 OFFCURVE",
"604.4 16.08 OFFCURVE",
"651.56 51.97 CURVE SMOOTH",
"703.51 91.51 OFFCURVE",
"744.85 146.07 OFFCURVE",
"764.06 208.47 CURVE SMOOTH",
"785.11 276.83 OFFCURVE",
"777.68 354.1 OFFCURVE",
"741.05 415.53 CURVE SMOOTH",
"707.02 472.61 OFFCURVE",
"648.42 514.41 OFFCURVE",
"583.51 528.29 CURVE"
);
}
);
width = 807;
}
);
note = Gcircumflex;
unicode = 011C;
},
{
glyphname = Gdotaccent;
layers = (
{
layerId = "032EDF5D-2B69-4E95-A18F-0FD11DED884D";
paths = (
{
closed = 1;
nodes = (
"408.2 949.37 LINE",
"499.55 858.02 LINE",
"589.43 947.9 LINE",
"498.08 1039.25 LINE"
);
},
{
closed = 1;
nodes = (
"259.5 217.88 OFFCURVE",
"254.93 211.83 OFFCURVE",
"249.8 206.31 CURVE",
"242.28 230.91 OFFCURVE",
"236.75 256.18 OFFCURVE",
"232.36 281.53 CURVE SMOOTH",
"224.21 328.59 OFFCURVE",
"219.28 376.25 OFFCURVE",
"218.56 424 CURVE SMOOTH",
"217.86 470.2 OFFCURVE",
"221.95 517.43 OFFCURVE",
"240.24 559.86 CURVE SMOOTH",
"250.49 583.65 OFFCURVE",
"265.7 605.24 OFFCURVE",
"284.48 623.01 CURVE",
"284.48 528.12 OFFCURVE",
"284.48 433.22 OFFCURVE",
"284.48 338.33 CURVE SMOOTH",
"284.48 318.75 OFFCURVE",
"284.5 299.09 OFFCURVE",
"281.79 279.7 CURVE SMOOTH",
"279.08 260.31 OFFCURVE",
"273.47 241.12 OFFCURVE",
"263.39 224.33 CURVE SMOOTH"
);
},
{
closed = 1;
nodes = (
"647.13 159.02 OFFCURVE",
"633.14 116.66 OFFCURVE",
"607.15 83.04 CURVE SMOOTH",
"581.17 49.42 OFFCURVE",
"543.16 25.15 OFFCURVE",
"501.56 16.5 CURVE SMOOTH",
"499.55 16.08 OFFCURVE",
"497.53 15.7 OFFCURVE",
"495.51 15.36 CURVE",
"495.51 56.15 OFFCURVE",
"495.51 96.94 OFFCURVE",
"495.51 137.73 CURVE",
"647.94 214.68 LINE",
"648.12 210.29 OFFCURVE",
"648.16 205.9 OFFCURVE",
"648.06 201.51 CURVE SMOOTH"
);
},
{
closed = 1;
nodes = (
"495.51 242.69 LINE",
"623.63 307.37 LINE",
"633.51 287.72 OFFCURVE",
"640.62 266.68 OFFCURVE",
"644.55 245.08 CURVE",
"495.51 169.83 LINE"
);
},
{
closed = 1;
nodes = (
"495.51 274.79 LINE",
"495.51 323.96 OFFCURVE",
"495.51 373.13 OFFCURVE",
"495.51 422.31 CURVE",
"534.46 407.44 OFFCURVE",
"569.55 382.43 OFFCURVE",
"595.93 350.14 CURVE SMOOTH",
"600.64 344.38 OFFCURVE",
"605.06 338.39 OFFCURVE",
"609.19 332.19 CURVE"
);
},
{
closed = 1;
nodes = (
"431.68 12.73 OFFCURVE",
"396.42 22.8 OFFCURVE",
"366.26 41.05 CURVE SMOOTH",
"326.11 65.35 OFFCURVE",
"295.15 103.07 OFFCURVE",
"274.05 145 CURVE SMOOTH",
"271.58 149.9 OFFCURVE",
"269.24 154.86 OFFCURVE",
"267.01 159.86 CURVE",
"276.7 162.43 OFFCURVE",
"286.23 165.57 OFFCURVE",
"295.54 169.27 CURVE SMOOTH",
"323.75 180.5 OFFCURVE",
"350.12 196.98 OFFCURVE",
"371.04 218.99 CURVE SMOOTH",
"386.54 235.3 OFFCURVE",
"398.76 254.85 OFFCURVE",
"405.63 276.27 CURVE SMOOTH",
"412.51 297.69 OFFCURVE",
"413.46 320.5 OFFCURVE",
"413.46 342.99 CURVE SMOOTH",
"413.46 359.98 LINE",
"466.83 412.81 LINE",
"466.83 279.5 OFFCURVE",
"466.83 146.19 OFFCURVE",
"466.83 12.87 CURVE"
);
},
{
closed = 1;
nodes = (
"413.53 678.94 LINE",
"415.92 679.3 OFFCURVE",
"418.32 679.65 OFFCURVE",
"420.72 679.98 CURVE SMOOTH",
"421.26 680.05 OFFCURVE",
"421.81 680.13 OFFCURVE",
"422.36 680.2 CURVE",
"448.08 661.54 OFFCURVE",
"474.68 644.11 OFFCURVE",
"502.06 627.98 CURVE SMOOTH",
"532.08 610.3 OFFCURVE",
"563.02 594.18 OFFCURVE",
"594.72 579.73 CURVE",
"413.48 400.31 LINE",
"413.48 480.65 LINE"
);
},
{
closed = 1;
nodes = (
"749.58 692.7 LINE",
"729.42 713.07 LINE",
"696.48 680.46 LINE",
"671.16 689.47 OFFCURVE",
"646.45 700.17 OFFCURVE",
"622.56 712.48 CURVE SMOOTH",
"586.62 731 OFFCURVE",
"552.56 753.15 OFFCURVE",
"521.06 778.48 CURVE",
"423.32 700.61 LINE",
"327.36 689.75 OFFCURVE",
"235.76 642.09 OFFCURVE",
"172.56 568.98 CURVE SMOOTH",
"117.1 504.83 OFFCURVE",
"83.64 421.72 OFFCURVE",
"80.56 336.98 CURVE SMOOTH",
"77.86 262.77 OFFCURVE",
"98.61 187.68 OFFCURVE",
"140.21 126.17 CURVE SMOOTH",
"181.81 64.66 OFFCURVE",
"244.12 17.46 OFFCURVE",
"314.56 -6.02 CURVE SMOOTH",
"370.78 -24.76 OFFCURVE",
"431.73 -28.66 OFFCURVE",
"490.1 -18.38 CURVE SMOOTH",
"548.47 -8.11 OFFCURVE",
"604.4 16.09 OFFCURVE",
"651.56 51.98 CURVE SMOOTH",
"703.51 91.52 OFFCURVE",
"744.85 146.08 OFFCURVE",
"764.06 208.48 CURVE SMOOTH",
"785.11 276.84 OFFCURVE",
"777.68 354.11 OFFCURVE",
"741.05 415.54 CURVE SMOOTH",
"707.02 472.62 OFFCURVE",
"648.42 514.42 OFFCURVE",
"583.51 528.3 CURVE"
);
}
);
width = 807;
}
);
note = Gdotaccent;
unicode = 0120;
},
{
color = 4;
glyphname = H;
lastChange = "2020-08-31 23:16:03 +0000";
layers = (
{
layerId = "032EDF5D-2B69-4E95-A18F-0FD11DED884D";
paths = (
{
closed = 1;
nodes = (
"71.52 616.75 LINE",
"87 643 OFFCURVE",
"121 658 OFFCURVE",
"147 658 CURVE SMOOTH",
"177 658 OFFCURVE",
"209 649 OFFCURVE",
"250 649 CURVE SMOOTH",
"310 649 OFFCURVE",
"351 687 OFFCURVE",
"414.69 758.37 CURVE",
"395.51 767.96 LINE",
"381 758 OFFCURVE",
"351 746 OFFCURVE",
"326 746 CURVE SMOOTH",
"293 746 OFFCURVE",
"246 754 OFFCURVE",
"199 754 CURVE SMOOTH",
"121 754 OFFCURVE",
"73 689 OFFCURVE",
"52.35 626.32 CURVE"
);
},
{
closed = 1;
nodes = (
"76 -35 LINE",
"113 6 OFFCURVE",
"165 27 OFFCURVE",
"223 27 CURVE SMOOTH",
"259 27 OFFCURVE",
"303 13 OFFCURVE",
"332.5 -9.02 CURVE",
"432.17 86.65 LINE",
"426.97 89.55 OFFCURVE",
"421.67 92.26 OFFCURVE",
"416.29 94.8 CURVE",
"416.29 342.98 LINE",
"553.22 342.98 LINE",
"553.01 121.02 LINE",
"501.63 81.02 LINE",
"512.96 66.31 LINE",
"537.29 85.02 LINE",
"634.2 -3.23 LINE",
"766.5 108.97 LINE",
"752.12 123.35 LINE",
"721 96.97 LINE",
"692.5 128.78 LINE",
"692.5 670.61 LINE",
"730.25 701.22 LINE",
"712.61 722.97 LINE",
"683.17 699.09 LINE",
"607.5 760.96 LINE",
"491.58 666.88 LINE",
"492.25 639.21 LINE",
"526.5 665.46 LINE",
"553.49 639.96 LINE",
"553.32 459.96 LINE",
"416.28 459.96 LINE",
"416.28 702.46 LINE",
"387.62 702.46 LINE",
"351 661 OFFCURVE",
"338 645 OFFCURVE",
"318 631 CURVE SMOOTH",
"250 584 OFFCURVE",
"213 566 OFFCURVE",
"213 483 CURVE SMOOTH",
"212.89 455.86 LINE",
"144 453 OFFCURVE",
"96 406 OFFCURVE",
"96 349 CURVE SMOOTH",
"96 329 OFFCURVE",
"98 312 OFFCURVE",
"112.27 287.11 CURVE",
"131 287 LINE",
"131 321 OFFCURVE",
"144 345 OFFCURVE",
"187 345 CURVE SMOOTH",
"212.92 344.95 LINE",
"214 254 LINE SMOOTH",
"214 212 OFFCURVE",
"201 166 OFFCURVE",
"158.5 143.29 CURVE",
"158.5 118.73 LINE",
"269 129 OFFCURVE",
"342 187 OFFCURVE",
"341.91 303.98 CURVE SMOOTH",
"341.91 448.98 LINE",
"341.98 526.98 LINE SMOOTH",
"342 587 OFFCURVE",
"346 626 OFFCURVE",
"387.62 672.44 CURVE",
"387.62 106.4 LINE",
"360 116 OFFCURVE",
"328 122 OFFCURVE",
"288 122 CURVE SMOOTH",
"212 122 OFFCURVE",
"105 81 OFFCURVE",
"45 -35 CURVE"
);
}
);
width = 780;
},
{
associatedMasterId = "032EDF5D-2B69-4E95-A18F-0FD11DED884D";
layerId = "6CF1A329-F287-46DA-A7A6-997E18F25243";
name = "Aug 31 20, 13:33";
paths = (
{
closed = 1;
nodes = (
"343.17 748.33 LINE"
);
},
{
closed = 1;
nodes = (
"259.5 588.5 LINE"
);
},
{
closed = 1;
nodes = (
"71.52 616.75 LINE",
"78.07 627.6 OFFCURVE",
"87.23 636.86 OFFCURVE",
"97.96 643.59 CURVE SMOOTH",
"108.7 650.33 OFFCURVE",
"120.95 654.49 OFFCURVE",
"133.5 656.33 CURVE SMOOTH",
"142.43 657.63 OFFCURVE",
"151.49 657.8 OFFCURVE",
"160.5 657.33 CURVE SMOOTH",
"179.5 656.33 OFFCURVE",
"198.25 652.65 OFFCURVE",
"217.17 650.62 CURVE SMOOTH",
"236.09 648.59 OFFCURVE",
"255.34 648.33 OFFCURVE",
"274 651.99 CURVE SMOOTH",
"300.57 657.21 OFFCURVE",
"325.07 670.54 OFFCURVE",
"345.94 687.79 CURVE SMOOTH",
"366.82 705.03 OFFCURVE",
"384.79 725.46 OFFCURVE",
"403 745.5 CURVE SMOOTH",
"406.9 749.79 OFFCURVE",
"410.79 754.08 OFFCURVE",
"414.69 758.37 CURVE",
"395.51 767.96 LINE",
"379.62 757.99 OFFCURVE",
"361.68 751.38 OFFCURVE",
"343.17 748.32 CURVE SMOOTH",
"324.17 745.18 OFFCURVE",
"304.73 745.77 OFFCURVE",
"285.58 747.72 CURVE SMOOTH",
"266.42 749.67 OFFCURVE",
"247.39 752.84 OFFCURVE",
"228.17 754.15 CURVE SMOOTH",
"210.69 755.34 OFFCURVE",
"193.01 754.94 OFFCURVE",
"175.83 751.45 CURVE SMOOTH",
"158.66 747.96 OFFCURVE",
"142.1 741.36 OFFCURVE",
"127.39 731.84 CURVE SMOOTH",
"106.99 718.64 OFFCURVE",
"90.39 700.12 OFFCURVE",
"77.39 679.59 CURVE SMOOTH",
"66.87 662.97 OFFCURVE",
"58.52 645 OFFCURVE",
"52.35 626.32 CURVE"
);
},
{
closed = 1;
nodes = (
"158.5 118.73 LINE",
"197.68 122.28 OFFCURVE",
"236.39 134.23 OFFCURVE",
"269.5 155.48 CURVE SMOOTH",
"293.92 171.16 OFFCURVE",
"315.03 192.7 OFFCURVE",
"327.42 218.94 CURVE SMOOTH",
"333.62 232.06 OFFCURVE",
"337.61 246.18 OFFCURVE",
"339.69 260.54 CURVE SMOOTH",
"341.77 274.9 OFFCURVE",
"341.91 289.47 OFFCURVE",
"341.91 303.98 CURVE SMOOTH",
"341.91 448.98 LINE",
"341.98 526.98 LINE SMOOTH",
"342 555.76 OFFCURVE",
"342.25 585.06 OFFCURVE",
"351.09 612.45 CURVE SMOOTH",
"355.51 626.15 OFFCURVE",
"362 639.16 OFFCURVE",
"370.2 650.98 CURVE SMOOTH",
"375.46 658.56 OFFCURVE",
"381.4 665.62 OFFCURVE",
"387.62 672.44 CURVE",
"387.62 483.76 OFFCURVE",
"387.62 295.08 OFFCURVE",
"387.62 106.4 CURVE",
"328.31 126.61 OFFCURVE",
"262.15 126.86 OFFCURVE",
"203 105.98 CURVE SMOOTH",
"134.85 81.92 OFFCURVE",
"76.86 30.35 OFFCURVE",
"45 -34.52 CURVE",
"75.5 -34.52 LINE",
"114.22 6.45 OFFCURVE",
"171.18 29.5 OFFCURVE",
"227.5 26.98 CURVE SMOOTH",
"264.97 25.3 OFFCURVE",
"301.88 12.65 OFFCURVE",
"332.5 -9.02 CURVE",
"432.17 86.65 LINE",
"426.97 89.55 OFFCURVE",
"421.67 92.26 OFFCURVE",
"416.29 94.8 CURVE",
"416.29 177.53 OFFCURVE",
"416.29 260.25 OFFCURVE",
"416.29 342.98 CURVE",
"553.22 342.98 LINE",
"553.01 121.02 LINE",
"501.63 81.02 LINE",
"512.96 66.31 LINE",
"537.29 85.02 LINE",
"634.2 -3.23 LINE",
"766.5 108.97 LINE",
"752.12 123.35 LINE",
"721 96.97 LINE",
"692.5 128.78 LINE",
"692.5 670.61 LINE",
"730.25 701.22 LINE",
"712.61 722.97 LINE",
"683.17 699.09 LINE",
"607.5 760.96 LINE",
"491.58 666.88 LINE",
"492.25 639.21 LINE",
"526.5 665.46 LINE",
"553.49 639.96 LINE",
"553.32 459.96 LINE",
"416.28 459.96 LINE",
"416.28 540.79 OFFCURVE",
"416.28 621.63 OFFCURVE",
"416.28 702.46 CURVE",
"387.62 702.46 LINE",
"362 673.46 LINE SMOOTH",
"347.3 656.83 OFFCURVE",
"331.68 640.92 OFFCURVE",
"313.98 627.53 CURVE SMOOTH",
"296.28 614.13 OFFCURVE",
"277.05 602.81 OFFCURVE",
"259.84 588.8 CURVE SMOOTH",
"243.97 575.88 OFFCURVE",
"230.09 560.02 OFFCURVE",
"222.1 541.18 CURVE SMOOTH",
"214.11 522.34 OFFCURVE",
"212.87 501.43 OFFCURVE",
"212.88 480.96 CURVE SMOOTH",
"212.89 455.86 LINE",
"193.22 452.94 OFFCURVE",
"173.65 449.41 OFFCURVE",
"155.75 441 CURVE SMOOTH",
"141.73 434.41 OFFCURVE",
"129.1 424.77 OFFCURVE",
"119.46 412.65 CURVE SMOOTH",
"109.81 400.53 OFFCURVE",
"103.16 386.11 OFFCURVE",
"99.75 371 CURVE SMOOTH",
"93.39 342.81 OFFCURVE",
"98.21 312.37 OFFCURVE",
"112.27 287.11 CURVE",
"131.39 287.11 LINE",
"130.09 294.26 OFFCURVE",
"130.3 301.69 OFFCURVE",
"132.05 308.75 CURVE SMOOTH",
"134.99 320.65 OFFCURVE",
"142.59 331.43 OFFCURVE",
"153.13 337.69 CURVE SMOOTH",
"158.4 340.82 OFFCURVE",
"164.3 342.82 OFFCURVE",
"170.34 343.85 CURVE SMOOTH",
"176.38 344.88 OFFCURVE",
"182.54 344.95 OFFCURVE",
"188.67 344.95 CURVE SMOOTH",
"212.92 344.95 LINE",
"212.92 344.06 OFFCURVE",
"212.92 343.17 OFFCURVE",
"212.92 342.28 CURVE SMOOTH",
"212.92 312.95 OFFCURVE",
"214.61 283.63 OFFCURVE",
"213.89 254.32 CURVE SMOOTH",
"213.53 239.66 OFFCURVE",
"212.25 224.96 OFFCURVE",
"208.71 210.73 CURVE SMOOTH",
"205.17 196.5 OFFCURVE",
"199.27 182.77 OFFCURVE",
"190.59 170.96 CURVE SMOOTH",
"182.15 159.48 OFFCURVE",
"171.12 149.9 OFFCURVE",
"158.5 143.29 CURVE"
);
}
);
visible = 1;
width = 780;
}
);
note = H;
unicode = 0048;
},
{
glyphname = Hcircumflex;
layers = (
{
layerId = "032EDF5D-2B69-4E95-A18F-0FD11DED884D";
paths = (
{
closed = 1;
nodes = (
"343.17 748.33 LINE"
);
},
{
closed = 1;
nodes = (
"259.5 588.5 LINE"
);
},
{
closed = 1;
nodes = (
"269.59 846.33 LINE",
"371.59 947.33 LINE",
"480.09 846.33 LINE",
"553.56 925.25 LINE",
"429.58 1040.67 LINE",
"251.64 864.47 LINE"
);
},
{
closed = 1;
nodes = (
"71.54 616.75 LINE",
"78.09 627.6 OFFCURVE",
"87.25 636.86 OFFCURVE",
"97.98 643.59 CURVE SMOOTH",
"108.72 650.33 OFFCURVE",
"120.97 654.49 OFFCURVE",
"133.52 656.33 CURVE SMOOTH",
"142.45 657.63 OFFCURVE",
"151.51 657.8 OFFCURVE",
"160.52 657.33 CURVE SMOOTH",
"179.52 656.33 OFFCURVE",
"198.27 652.65 OFFCURVE",
"217.19 650.62 CURVE SMOOTH",
"236.11 648.59 OFFCURVE",
"255.36 648.33 OFFCURVE",
"274.02 651.99 CURVE SMOOTH",
"300.59 657.21 OFFCURVE",
"325.09 670.54 OFFCURVE",
"345.96 687.79 CURVE SMOOTH",
"366.84 705.03 OFFCURVE",
"384.81 725.46 OFFCURVE",
"403.02 745.5 CURVE SMOOTH",
"406.92 749.79 OFFCURVE",
"410.81 754.08 OFFCURVE",
"414.71 758.37 CURVE",
"395.53 767.96 LINE",
"379.64 757.99 OFFCURVE",
"361.7 751.38 OFFCURVE",
"343.19 748.32 CURVE SMOOTH",
"324.19 745.18 OFFCURVE",
"304.75 745.77 OFFCURVE",
"285.6 747.72 CURVE SMOOTH",
"266.44 749.67 OFFCURVE",
"247.41 752.84 OFFCURVE",
"228.19 754.15 CURVE SMOOTH",
"210.71 755.34 OFFCURVE",
"193.03 754.94 OFFCURVE",
"175.85 751.45 CURVE SMOOTH",
"158.68 747.96 OFFCURVE",
"142.12 741.36 OFFCURVE",
"127.41 731.84 CURVE SMOOTH",
"107.01 718.64 OFFCURVE",
"90.41 700.12 OFFCURVE",
"77.41 679.59 CURVE SMOOTH",
"66.89 662.97 OFFCURVE",
"58.54 645 OFFCURVE",
"52.37 626.32 CURVE"
);
},
{
closed = 1;
nodes = (
"158.52 118.73 LINE",
"197.7 122.28 OFFCURVE",
"236.41 134.23 OFFCURVE",
"269.52 155.48 CURVE SMOOTH",
"293.94 171.16 OFFCURVE",
"315.05 192.7 OFFCURVE",
"327.44 218.94 CURVE SMOOTH",
"333.64 232.06 OFFCURVE",
"337.63 246.18 OFFCURVE",
"339.71 260.54 CURVE SMOOTH",
"341.79 274.9 OFFCURVE",
"341.93 289.47 OFFCURVE",
"341.93 303.98 CURVE SMOOTH",
"341.93 448.98 LINE",
"342 526.98 LINE SMOOTH",
"342.02 555.76 OFFCURVE",
"342.27 585.06 OFFCURVE",
"351.11 612.45 CURVE SMOOTH",
"355.53 626.15 OFFCURVE",
"362.02 639.16 OFFCURVE",
"370.22 650.98 CURVE SMOOTH",
"375.48 658.56 OFFCURVE",
"381.42 665.62 OFFCURVE",
"387.64 672.44 CURVE",
"387.64 483.76 OFFCURVE",
"387.64 295.08 OFFCURVE",
"387.64 106.4 CURVE",
"328.33 126.61 OFFCURVE",
"262.17 126.86 OFFCURVE",
"203.02 105.98 CURVE SMOOTH",
"134.87 81.92 OFFCURVE",
"76.88 30.35 OFFCURVE",
"45.02 -34.52 CURVE",
"75.52 -34.52 LINE",
"114.24 6.45 OFFCURVE",
"171.2 29.5 OFFCURVE",
"227.52 26.98 CURVE SMOOTH",
"264.99 25.3 OFFCURVE",
"301.9 12.65 OFFCURVE",
"332.52 -9.02 CURVE",
"432.19 86.65 LINE",
"426.99 89.55 OFFCURVE",
"421.69 92.26 OFFCURVE",
"416.31 94.8 CURVE",
"416.31 177.53 OFFCURVE",
"416.31 260.25 OFFCURVE",
"416.31 342.98 CURVE",
"553.24 342.98 LINE",
"553.03 121.02 LINE",
"501.65 81.02 LINE",
"512.98 66.31 LINE",
"537.31 85.02 LINE",
"634.22 -3.23 LINE",
"766.52 108.97 LINE",
"752.14 123.35 LINE",
"721.02 96.97 LINE",
"692.52 128.78 LINE",
"692.52 670.61 LINE",
"730.27 701.22 LINE",
"712.63 722.97 LINE",
"683.19 699.09 LINE",
"607.52 760.96 LINE",
"491.6 666.88 LINE",
"492.27 639.21 LINE",
"526.52 665.46 LINE",
"553.51 639.96 LINE",
"553.34 459.96 LINE",
"416.3 459.96 LINE",
"416.3 540.79 OFFCURVE",
"416.3 621.63 OFFCURVE",
"416.3 702.46 CURVE",
"387.64 702.46 LINE",
"362.02 673.46 LINE SMOOTH",
"347.32 656.83 OFFCURVE",
"331.7 640.92 OFFCURVE",
"314 627.53 CURVE SMOOTH",
"296.3 614.13 OFFCURVE",
"277.07 602.81 OFFCURVE",
"259.86 588.8 CURVE SMOOTH",
"243.99 575.88 OFFCURVE",
"230.11 560.02 OFFCURVE",
"222.12 541.18 CURVE SMOOTH",
"214.13 522.34 OFFCURVE",
"212.89 501.43 OFFCURVE",
"212.9 480.96 CURVE SMOOTH",
"212.91 455.86 LINE",
"193.24 452.94 OFFCURVE",
"173.67 449.41 OFFCURVE",
"155.77 441 CURVE SMOOTH",
"141.75 434.41 OFFCURVE",
"129.12 424.77 OFFCURVE",
"119.48 412.65 CURVE SMOOTH",
"109.83 400.53 OFFCURVE",
"103.18 386.11 OFFCURVE",
"99.77 371 CURVE SMOOTH",
"93.41 342.81 OFFCURVE",
"98.23 312.37 OFFCURVE",
"112.29 287.11 CURVE",
"131.42 287.11 LINE",
"130.12 294.26 OFFCURVE",
"130.33 301.69 OFFCURVE",
"132.08 308.75 CURVE SMOOTH",
"135.02 320.65 OFFCURVE",
"142.62 331.43 OFFCURVE",
"153.16 337.69 CURVE SMOOTH",
"158.43 340.82 OFFCURVE",
"164.33 342.82 OFFCURVE",
"170.37 343.85 CURVE SMOOTH",
"176.41 344.88 OFFCURVE",
"182.57 344.95 OFFCURVE",
"188.7 344.95 CURVE SMOOTH",
"212.95 344.95 LINE",
"212.95 344.06 OFFCURVE",
"212.95 343.17 OFFCURVE",
"212.95 342.28 CURVE SMOOTH",
"212.95 312.95 OFFCURVE",
"214.64 283.63 OFFCURVE",
"213.92 254.32 CURVE SMOOTH",
"213.56 239.66 OFFCURVE",
"212.28 224.96 OFFCURVE",
"208.74 210.73 CURVE SMOOTH",
"205.2 196.5 OFFCURVE",
"199.3 182.77 OFFCURVE",
"190.62 170.96 CURVE SMOOTH",
"182.18 159.48 OFFCURVE",
"171.15 149.9 OFFCURVE",
"158.53 143.29 CURVE"
);
}
);
width = 780;
}
);
note = Hcircumflex;
unicode = 0124;
},
{
color = 4;
glyphname = I;
lastChange = "2020-08-31 23:16:03 +0000";
layers = (
{
layerId = "032EDF5D-2B69-4E95-A18F-0FD11DED884D";
paths = (
{
closed = 1;
nodes = (
"209 150 LINE",
"307 180 OFFCURVE",
"367 223 OFFCURVE",
"367 318 CURVE SMOOTH",
"367 539 LINE SMOOTH",
"367 691 OFFCURVE",
"440 674 OFFCURVE",
"508 762 CURVE",
"509 789 LINE",
"482 764 OFFCURVE",
"454 757 OFFCURVE",
"423 757 CURVE SMOOTH",
"364 757 OFFCURVE",
"328 781 OFFCURVE",
"262 781 CURVE SMOOTH",
"188 781 OFFCURVE",
"125 711 OFFCURVE",
"95 637 CURVE",
"118 637 LINE",
"128 662 OFFCURVE",
"158 677 OFFCURVE",
"188 677 CURVE SMOOTH",
"226 677 OFFCURVE",
"259 662 OFFCURVE",
"313 662 CURVE SMOOTH",
"335 662 OFFCURVE",
"360 667 OFFCURVE",
"380 674 CURVE",
"300 611 LINE SMOOTH",
"255 576 OFFCURVE",
"238 557 OFFCURVE",
"238 502 CURVE SMOOTH",
"238 475 LINE",
"168 470 OFFCURVE",
"110 437 OFFCURVE",
"110 361 CURVE SMOOTH",
"110 341 OFFCURVE",
"115 320 OFFCURVE",
"125 302 CURVE",
"144 302 LINE",
"144 356 OFFCURVE",
"162 366 OFFCURVE",
"238 366 CURVE",
"239 249 OFFCURVE",
"243 188 OFFCURVE",
"176 150 CURVE"
);
},
{
closed = 1;
nodes = (
"95 -96 OFFCURVE",
"43 -41 OFFCURVE",
"43 11 CURVE SMOOTH",
"43 74 OFFCURVE",
"97 132 OFFCURVE",
"159 132 CURVE SMOOTH",
"253 132 OFFCURVE",
"353 60 OFFCURVE",
"390 60 CURVE SMOOTH",
"411 60 OFFCURVE",
"423 86 OFFCURVE",
"423 120 CURVE SMOOTH",
"423 538 LINE SMOOTH",
"423 651 OFFCURVE",
"447 680 OFFCURVE",
"595 774 CURVE",
"610 757 LINE",
"574 730 OFFCURVE",
"564 697 OFFCURVE",
"564 649 CURVE SMOOTH",
"564 234 LINE",
"510 140 OFFCURVE",
"363 -20 OFFCURVE",
"295 -20 CURVE SMOOTH",
"258 -20 OFFCURVE",
"164 -3 OFFCURVE",
"138 -3 CURVE SMOOTH",
"119 -3 OFFCURVE",
"105 -21 OFFCURVE",
"105 -39 CURVE SMOOTH",
"105 -63 OFFCURVE",
"128 -83 OFFCURVE",
"155 -84 CURVE",
"155 -100 LINE"
);
}
);
width = 615;
},
{
associatedMasterId = "032EDF5D-2B69-4E95-A18F-0FD11DED884D";
layerId = "A1241E0E-178C-4695-8DF4-76B74441F74D";
name = "Aug 31 20, 15:13";
paths = (
{
closed = 1;
nodes = (
"111.03 376.72 OFFCURVE",
"110.31 369.04 OFFCURVE",
"110.31 361.36 CURVE SMOOTH",
"110.31 340.86 OFFCURVE",
"115.45 320.33 OFFCURVE",
"125.04 302.18 CURVE",
"144.17 302.18 LINE",
"142.59 310.68 OFFCURVE",
"142.78 319.51 OFFCURVE",
"144.83 327.9 CURVE SMOOTH",
"147.79 340.01 OFFCURVE",
"155 351.25 OFFCURVE",
"165.49 357.98 CURVE SMOOTH",
"170.74 361.34 OFFCURVE",
"176.69 363.54 OFFCURVE",
"182.82 364.69 CURVE SMOOTH",
"188.95 365.83 OFFCURVE",
"195.22 365.91 OFFCURVE",
"201.45 365.91 CURVE SMOOTH",
"213.64 365.91 OFFCURVE",
"225.83 365.91 OFFCURVE",
"238.02 365.91 CURVE",
"238.02 342.15 OFFCURVE",
"238.02 318.4 OFFCURVE",
"238.02 294.64 CURVE SMOOTH",
"238.02 277.19 OFFCURVE",
"237.99 259.67 OFFCURVE",
"235.57 242.39 CURVE SMOOTH",
"233.15 225.11 OFFCURVE",
"228.23 208.04 OFFCURVE",
"219.68 192.83 CURVE SMOOTH",
"209.55 174.81 OFFCURVE",
"194.3 159.64 OFFCURVE",
"176.01 150 CURVE",
"209.01 150 LINE",
"239.76 159.23 OFFCURVE",
"269.78 171.48 OFFCURVE",
"297.01 188.5 CURVE SMOOTH",
"319.35 202.46 OFFCURVE",
"339.72 220.6 OFFCURVE",
"352.16 243.82 CURVE SMOOTH",
"358.38 255.43 OFFCURVE",
"362.51 268.12 OFFCURVE",
"364.68 281.11 CURVE SMOOTH",
"366.85 294.1 OFFCURVE",
"367.01 307.33 OFFCURVE",
"367.01 320.5 CURVE SMOOTH",
"367.01 397.65 LINE",
"367.08 539 LINE SMOOTH",
"367.09 571.56 OFFCURVE",
"370.06 604.77 OFFCURVE",
"383.51 634.41 CURVE SMOOTH",
"391.93 652.97 OFFCURVE",
"404.64 669.45 OFFCURVE",
"420.06 682.77 CURVE SMOOTH",
"435.48 696.1 OFFCURVE",
"452.9 706.92 OFFCURVE",
"468.67 719.83 CURVE SMOOTH",
"483.61 732.06 OFFCURVE",
"497 746.28 OFFCURVE",
"507.5 762.47 CURVE",
"509 788.99 LINE",
"498 779 OFFCURVE",
"485 770 OFFCURVE",
"471 765 CURVE SMOOTH",
"451 757 OFFCURVE",
"429 756 OFFCURVE",
"408 757 CURVE SMOOTH",
"383 760 OFFCURVE",
"359 767 OFFCURVE",
"335 773 CURVE SMOOTH",
"311 779 OFFCURVE",
"286 783 OFFCURVE",
"262 781 CURVE SMOOTH",
"229 778 OFFCURVE",
"198 764 OFFCURVE",
"172 743 CURVE SMOOTH",
"137 716 OFFCURVE",
"111 678 OFFCURVE",
"94.5 636.99 CURVE",
"118 636.99 LINE",
"128 662 OFFCURVE",
"153 677 OFFCURVE",
"188 676.99 CURVE SMOOTH",
"209 677 OFFCURVE",
"230 672 OFFCURVE",
"251 668 CURVE SMOOTH",
"272 665 OFFCURVE",
"293 663 OFFCURVE",
"314 662.99 CURVE SMOOTH",
"336 663 OFFCURVE",
"358.77 667.34 OFFCURVE",
"380.17 674.15 CURVE",
"353.75 652.72 OFFCURVE",
"327.02 631.66 OFFCURVE",
"300 610.99 CURVE SMOOTH",
"282.45 597.56 OFFCURVE",
"264.37 583.9 OFFCURVE",
"252.59 565.2 CURVE SMOOTH",
"246.7 555.85 OFFCURVE",
"242.55 545.42 OFFCURVE",
"240.35 534.59 CURVE SMOOTH",
"238.15 523.76 OFFCURVE",
"237.96 512.64 OFFCURVE",
"237.96 501.59 CURVE SMOOTH",
"237.97 475.22 LINE",
"214.18 471.53 OFFCURVE",
"190.07 468.22 OFFCURVE",
"168.5 457.76 CURVE SMOOTH",
"154.12 450.78 OFFCURVE",
"141.26 440.55 OFFCURVE",
"131.63 427.8 CURVE SMOOTH",
"122 415.04 OFFCURVE",
"115.58 399.95 OFFCURVE",
"112.5 384.26 CURVE SMOOTH"
);
},
{
closed = 1;
nodes = (
"154.99 -99.88 LINE",
"131.01 -97.98 OFFCURVE",
"107.67 -88.69 OFFCURVE",
"88.95 -73.59 CURVE SMOOTH",
"70.24 -58.48 OFFCURVE",
"56.22 -37.6 OFFCURVE",
"49.49 -14.51 CURVE SMOOTH",
"40.57 16.1 OFFCURVE",
"44.99 50.46 OFFCURVE",
"61.9 77.49 CURVE SMOOTH",
"78.81 104.52 OFFCURVE",
"107.72 123.25 OFFCURVE",
"138.99 129.49 CURVE SMOOTH",
"172.68 136.22 OFFCURVE",
"207.73 129.17 OFFCURVE",
"240.02 117.47 CURVE SMOOTH",
"272.31 105.76 OFFCURVE",
"303.03 90.1 OFFCURVE",
"334.99 77.49 CURVE SMOOTH",
"354.12 69.94 OFFCURVE",
"373.64 63.36 OFFCURVE",
"393.49 57.99 CURVE",
"404.42 63.36 OFFCURVE",
"413.11 72.96 OFFCURVE",
"417.79 84.21 CURVE SMOOTH",
"422.47 95.45 OFFCURVE",
"422.99 107.93 OFFCURVE",
"422.99 120.11 CURVE SMOOTH",
"422.99 538.49 LINE SMOOTH",
"422.99 558.56 OFFCURVE",
"423.27 578.76 OFFCURVE",
"427 598.48 CURVE SMOOTH",
"430.73 618.21 OFFCURVE",
"437.86 637.32 OFFCURVE",
"448.36 654.43 CURVE SMOOTH",
"469.36 688.65 OFFCURVE",
"503.08 712.72 OFFCURVE",
"536.49 734.99 CURVE SMOOTH",
"594.99 773.99 LINE",
"609.99 757.49 LINE",
"592.55 746.46 OFFCURVE",
"579.17 729.36 OFFCURVE",
"571.97 710.02 CURVE SMOOTH",
"564.76 690.68 OFFCURVE",
"563.99 669.63 OFFCURVE",
"563.99 648.99 CURVE SMOOTH",
"563.99 234.11 LINE",
"541.51 195.98 OFFCURVE",
"515.71 159.8 OFFCURVE",
"486.99 126.11 CURVE SMOOTH",
"447.72 80.05 OFFCURVE",
"402.97 38.67 OFFCURVE",
"353.99 3.11 CURVE SMOOTH",
"346.54 -2.3 OFFCURVE",
"338.86 -7.48 OFFCURVE",
"330.49 -11.31 CURVE SMOOTH",
"322.12 -15.14 OFFCURVE",
"313.14 -17.62 OFFCURVE",
"304.01 -18.77 CURVE SMOOTH",
"285.74 -21.05 OFFCURVE",
"267.26 -18.28 OFFCURVE",
"249 -15.9 CURVE SMOOTH",
"157 -3.9 LINE SMOOTH",
"150.77 -3.09 OFFCURVE",
"144.47 -2.36 OFFCURVE",
"138.22 -2.99 CURVE SMOOTH",
"131.97 -3.63 OFFCURVE",
"125.81 -5.64 OFFCURVE",
"120.63 -9.2 CURVE SMOOTH",
"115.45 -12.76 OFFCURVE",
"111.32 -17.81 OFFCURVE",
"108.82 -23.57 CURVE SMOOTH",
"106.31 -29.33 OFFCURVE",
"105.41 -35.75 OFFCURVE",
"106 -42.01 CURVE SMOOTH",
"107.1 -53.74 OFFCURVE",
"113.37 -64.76 OFFCURVE",
"122.4 -72.32 CURVE SMOOTH",
"131.43 -79.89 OFFCURVE",
"143.21 -84.08 OFFCURVE",
"155 -84.01 CURVE"
);
}
);
visible = 1;
width = 615;
}
);
note = I;
unicode = 0049;
},
{
glyphname = IJ;
layers = (
{
hints = (
{
horizontal = 1;
place = "{-99.88, 15.88}";
type = Stem;
},
{
horizontal = 1;
place = "{19.04, 135.46}";
type = Stem;
},
{
horizontal = 1;
place = "{329.5, 110.99}";
type = Stem;
},
{
horizontal = 1;
place = "{523, 21}";
target = up;
type = BottomGhost;
},
{
horizontal = 1;
place = "{638.67, 110.83}";
type = Stem;
},
{
place = "{238.01, 129}";
type = Stem;
},
{
place = "{423, 141}";
type = Stem;
},
{
place = "{669.41, 53.5}";
type = Stem;
},
{
place = "{858.91, 132}";
type = Stem;
},
{
place = "{1033.91, 132}";
type = Stem;
},
{
horizontal = 1;
place = "{645, 132}";
type = Stem;
},
{
place = "{642.91, 163.5}";
type = Stem;
},
{
horizontal = 1;
place = "{365.91, 109.31}";
type = Stem;
},
{
horizontal = 1;
place = "{789, -20}";
target = down;
type = TopGhost;
},
{
horizontal = 1;
place = "{663, 118}";
type = Stem;
}
);
layerId = "032EDF5D-2B69-4E95-A18F-0FD11DED884D";
paths = (
{
closed = 1;
nodes = (
"776.81 271.66 LINE",
"775.51 278.81 OFFCURVE",
"775.72 286.24 OFFCURVE",
"777.47 293.3 CURVE SMOOTH",
"780.41 305.2 OFFCURVE",
"788.01 315.98 OFFCURVE",
"798.55 322.24 CURVE SMOOTH",
"803.82 325.37 OFFCURVE",
"809.72 327.37 OFFCURVE",
"815.76 328.4 CURVE SMOOTH",
"821.8 329.43 OFFCURVE",
"827.96 329.5 OFFCURVE",
"834.09 329.5 CURVE SMOOTH",
"842.37 329.5 OFFCURVE",
"850.64 329.5 OFFCURVE",
"858.92 329.5 CURVE",
"858.92 50 LINE SMOOTH",
"858.92 41.41 OFFCURVE",
"858.51 32.69 OFFCURVE",
"855.67 24.58 CURVE SMOOTH",
"852.84 16.47 OFFCURVE",
"847.87 9.19 OFFCURVE",
"841.67 3.25 CURVE SMOOTH",
"833.1 -4.96 OFFCURVE",
"822.36 -10.82 OFFCURVE",
"810.92 -14 CURVE",
"810.92 -47 LINE",
"860.13 -35.81 OFFCURVE",
"908.66 -16.03 OFFCURVE",
"945.92 18 CURVE SMOOTH",
"961.56 32.28 OFFCURVE",
"974.63 49.67 OFFCURVE",
"982.18 69.46 CURVE SMOOTH",
"989.73 89.25 OFFCURVE",
"990.92 110.81 OFFCURVE",
"990.92 132 CURVE SMOOTH",
"990.92 563 LINE SMOOTH",
"990.92 589.1 OFFCURVE",
"992.96 615.74 OFFCURVE",
"1003.41 639.66 CURVE SMOOTH",
"1013.86 663.58 OFFCURVE",
"1031.05 683.97 OFFCURVE",
"1049.92 702 CURVE SMOOTH",
"1073.57 724.6 OFFCURVE",
"1099.51 744.69 OFFCURVE",
"1125.92 764 CURVE",
"1103.42 784.5 LINE",
"1075.78 763.17 OFFCURVE",
"1041.29 751.3 OFFCURVE",
"1006.42 749.5 CURVE SMOOTH",
"975.45 747.9 OFFCURVE",
"944.61 753.92 OFFCURVE",
"914.42 761 CURVE SMOOTH",
"884.22 768.08 OFFCURVE",
"853.92 775.9 OFFCURVE",
"822.92 777 CURVE SMOOTH",
"788.22 778.23 OFFCURVE",
"752.6 770.25 OFFCURVE",
"724.11 750.42 CURVE SMOOTH",
"695.62 730.58 OFFCURVE",
"675.23 699.23 OFFCURVE",
"669.42 665 CURVE SMOOTH",
"664.43 635.58 OFFCURVE",
"670.11 604.46 OFFCURVE",
"685.22 578.74 CURVE SMOOTH",
"700.34 553.01 OFFCURVE",
"724.77 532.9 OFFCURVE",
"752.92 523 CURVE",
"756.92 531.33 LINE",
"745.38 535.15 OFFCURVE",
"735.33 543.31 OFFCURVE",
"729.19 553.81 CURVE SMOOTH",
"723.05 564.31 OFFCURVE",
"720.89 577.01 OFFCURVE",
"722.92 589 CURVE SMOOTH",
"725.64 605.06 OFFCURVE",
"735.75 619.37 OFFCURVE",
"749.03 628.81 CURVE SMOOTH",
"762.31 638.25 OFFCURVE",
"778.41 643.1 OFFCURVE",
"794.59 645 CURVE SMOOTH",
"832.56 649.47 OFFCURVE",
"870.72 640.22 OFFCURVE",
"908.92 638.67 CURVE SMOOTH",
"932.11 637.73 OFFCURVE",
"955.43 639.1 OFFCURVE",
"978.25 643.34 CURVE",
"943.86 618.27 OFFCURVE",
"908.71 592.85 OFFCURVE",
"882.92 559.01 CURVE SMOOTH",
"874.49 547.95 OFFCURVE",
"867.53 535.64 OFFCURVE",
"863.54 522.32 CURVE SMOOTH",
"859.55 508.99 OFFCURVE",
"858.92 494.92 OFFCURVE",
"858.92 481.01 CURVE SMOOTH",
"858.92 440.5 LINE",
"839.04 437.56 OFFCURVE",
"819.25 434.05 OFFCURVE",
"801.16 425.55 CURVE SMOOTH",
"787.14 418.96 OFFCURVE",
"774.51 409.32 OFFCURVE",
"764.87 397.2 CURVE SMOOTH",
"755.22 385.08 OFFCURVE",
"748.57 370.66 OFFCURVE",
"745.16 355.55 CURVE SMOOTH",
"738.8 327.36 OFFCURVE",
"743.62 296.92 OFFCURVE",
"757.68 271.66 CURVE"
);
},
{
closed = 1;
nodes = (
"1207.91 753 LINE",
"1190.85 724.12 OFFCURVE",
"1179.13 692.17 OFFCURVE",
"1172.83 659.22 CURVE SMOOTH",
"1166.53 626.27 OFFCURVE",
"1165.91 592.54 OFFCURVE",
"1165.91 559 CURVE SMOOTH",
"1165.91 263 LINE SMOOTH",
"1165.91 205.81 OFFCURVE",
"1163.43 147.43 OFFCURVE",
"1142.74 94.12 CURVE SMOOTH",
"1122.05 40.81 OFFCURVE",
"1084.33 -5.53 OFFCURVE",
"1036.91 -37.5 CURVE SMOOTH",
"996.83 -64.52 OFFCURVE",
"950.57 -81.97 OFFCURVE",
"902.91 -90 CURVE SMOOTH",
"844.72 -99.8 OFFCURVE",
"782.67 -95.98 OFFCURVE",
"730.01 -69.34 CURVE SMOOTH",
"703.68 -56.02 OFFCURVE",
"680.06 -36.71 OFFCURVE",
"663.82 -12.08 CURVE SMOOTH",
"647.58 12.55 OFFCURVE",
"639.07 42.75 OFFCURVE",
"642.91 72 CURVE SMOOTH",
"645.74 93.56 OFFCURVE",
"655.38 114.35 OFFCURVE",
"670.86 129.61 CURVE SMOOTH",
"686.34 144.88 OFFCURVE",
"707.67 154.3 OFFCURVE",
"729.41 154.5 CURVE SMOOTH",
"749.54 154.68 OFFCURVE",
"769.7 146.85 OFFCURVE",
"784.11 132.8 CURVE SMOOTH",
"798.51 118.74 OFFCURVE",
"806.87 98.62 OFFCURVE",
"806.41 78.5 CURVE SMOOTH",
"806.14 66.63 OFFCURVE",
"802.9 54.83 OFFCURVE",
"797.04 44.5 CURVE SMOOTH",
"791.18 34.17 OFFCURVE",
"782.71 25.33 OFFCURVE",
"772.63 19.04 CURVE SMOOTH",
"752.48 6.47 OFFCURVE",
"725.9 4.89 OFFCURVE",
"704.41 15 CURVE",
"722.49 -24.25 OFFCURVE",
"758.87 -54.37 OFFCURVE",
"800.58 -65.67 CURVE SMOOTH",
"828.69 -73.29 OFFCURVE",
"858.79 -72.75 OFFCURVE",
"886.97 -65.42 CURVE SMOOTH",
"915.16 -58.08 OFFCURVE",
"941.55 -44.16 OFFCURVE",
"963.91 -25.51 CURVE SMOOTH",
"989.35 -4.29 OFFCURVE",
"1009.46 23.44 OFFCURVE",
"1020.87 54.54 CURVE SMOOTH",
"1032.28 85.65 OFFCURVE",
"1033.91 119.36 OFFCURVE",
"1033.91 152.49 CURVE SMOOTH",
"1033.91 476.99 LINE SMOOTH",
"1033.91 508.65 OFFCURVE",
"1033.54 540.48 OFFCURVE",
"1038.26 571.79 CURVE SMOOTH",
"1042.98 603.1 OFFCURVE",
"1053.74 633.76 OFFCURVE",
"1071.95 659.66 CURVE SMOOTH",
"1098.3 697.13 OFFCURVE",
"1137.7 722.88 OFFCURVE",
"1174.62 749.99 CURVE SMOOTH",
"1181.59 755.11 OFFCURVE",
"1188.52 760.27 OFFCURVE",
"1195.41 765.49 CURVE"
);
},
{
closed = 1;
nodes = (
"111.03 376.71 OFFCURVE",
"110.31 369.03 OFFCURVE",
"110.31 361.35 CURVE SMOOTH",
"110.31 340.85 OFFCURVE",
"115.45 320.32 OFFCURVE",
"125.04 302.17 CURVE",
"144.17 302.17 LINE",
"142.59 310.67 OFFCURVE",
"142.78 319.5 OFFCURVE",
"144.83 327.89 CURVE SMOOTH",
"147.79 340 OFFCURVE",
"155 351.24 OFFCURVE",
"165.49 357.97 CURVE SMOOTH",
"170.74 361.33 OFFCURVE",
"176.69 363.53 OFFCURVE",
"182.82 364.68 CURVE SMOOTH",
"188.95 365.82 OFFCURVE",
"195.22 365.9 OFFCURVE",
"201.45 365.9 CURVE SMOOTH",
"213.64 365.9 OFFCURVE",
"225.83 365.9 OFFCURVE",
"238.02 365.9 CURVE",
"238.02 342.14 OFFCURVE",
"238.02 318.39 OFFCURVE",
"238.02 294.63 CURVE SMOOTH",
"238.02 277.18 OFFCURVE",
"237.99 259.66 OFFCURVE",
"235.57 242.38 CURVE SMOOTH",
"233.15 225.1 OFFCURVE",
"228.23 208.03 OFFCURVE",
"219.68 192.82 CURVE SMOOTH",
"209.55 174.8 OFFCURVE",
"194.3 159.63 OFFCURVE",
"176.01 149.99 CURVE",
"209.01 149.99 LINE",
"239.76 159.22 OFFCURVE",
"269.78 171.47 OFFCURVE",
"297.01 188.49 CURVE SMOOTH",
"319.35 202.45 OFFCURVE",
"339.72 220.59 OFFCURVE",
"352.16 243.81 CURVE SMOOTH",
"358.38 255.42 OFFCURVE",
"362.51 268.11 OFFCURVE",
"364.68 281.1 CURVE SMOOTH",
"366.85 294.09 OFFCURVE",
"367.01 307.32 OFFCURVE",
"367.01 320.49 CURVE SMOOTH",
"367.01 397.64 LINE",
"367.08 538.99 LINE SMOOTH",
"367.09 571.55 OFFCURVE",
"370.06 604.76 OFFCURVE",
"383.51 634.4 CURVE SMOOTH",
"391.93 652.96 OFFCURVE",
"404.64 669.44 OFFCURVE",
"420.06 682.76 CURVE SMOOTH",
"435.48 696.09 OFFCURVE",
"452.9 706.91 OFFCURVE",
"468.67 719.82 CURVE SMOOTH",
"483.61 732.05 OFFCURVE",
"497 746.27 OFFCURVE",
"507.5 762.46 CURVE",
"509 788.98 LINE",
"497.92 778.54 OFFCURVE",
"484.74 770.35 OFFCURVE",
"470.5 764.96 CURVE SMOOTH",
"450.71 757.47 OFFCURVE",
"429.08 755.56 OFFCURVE",
"408 757.48 CURVE SMOOTH",
"383.27 759.73 OFFCURVE",
"359.32 766.98 OFFCURVE",
"335.21 772.9 CURVE SMOOTH",
"311.09 778.82 OFFCURVE",
"286.25 783.09 OFFCURVE",
"261.5 780.98 CURVE SMOOTH",
"228.78 778.2 OFFCURVE",
"197.62 764.02 OFFCURVE",
"172 743.48 CURVE SMOOTH",
"137.39 715.72 OFFCURVE",
"111.28 678.05 OFFCURVE",
"94.5 636.98 CURVE",
"118 636.98 LINE",
"123.48 651.18 OFFCURVE",
"134.77 662.92 OFFCURVE",
"148.5 669.48 CURVE SMOOTH",
"160.7 675.31 OFFCURVE",
"174.48 677.2 OFFCURVE",
"188 676.98 CURVE SMOOTH",
"209.16 676.64 OFFCURVE",
"229.97 671.91 OFFCURVE",
"250.84 668.44 CURVE SMOOTH",
"271.72 664.96 OFFCURVE",
"292.84 662.54 OFFCURVE",
"314 662.98 CURVE SMOOTH",
"336.48 663.45 OFFCURVE",
"358.77 667.33 OFFCURVE",
"380.17 674.14 CURVE",
"353.75 652.71 OFFCURVE",
"327.02 631.65 OFFCURVE",
"300 610.98 CURVE SMOOTH",
"282.45 597.55 OFFCURVE",
"264.37 583.89 OFFCURVE",
"252.59 565.19 CURVE SMOOTH",
"246.7 555.84 OFFCURVE",
"242.55 545.41 OFFCURVE",
"240.35 534.58 CURVE SMOOTH",
"238.15 523.75 OFFCURVE",
"237.96 512.63 OFFCURVE",
"237.96 501.58 CURVE SMOOTH",
"237.97 475.21 LINE",
"214.18 471.52 OFFCURVE",
"190.07 468.21 OFFCURVE",
"168.5 457.75 CURVE SMOOTH",
"154.12 450.77 OFFCURVE",
"141.26 440.54 OFFCURVE",
"131.63 427.79 CURVE SMOOTH",
"122 415.03 OFFCURVE",
"115.58 399.94 OFFCURVE",
"112.5 384.25 CURVE SMOOTH"
);
},
{
closed = 1;
nodes = (
"154.99 -99.89 LINE",
"131.01 -97.99 OFFCURVE",
"107.67 -88.7 OFFCURVE",
"88.95 -73.6 CURVE SMOOTH",
"70.24 -58.49 OFFCURVE",
"56.22 -37.61 OFFCURVE",
"49.49 -14.52 CURVE SMOOTH",
"40.57 16.09 OFFCURVE",
"44.99 50.45 OFFCURVE",
"61.9 77.48 CURVE SMOOTH",
"78.81 104.51 OFFCURVE",
"107.72 123.24 OFFCURVE",
"138.99 129.48 CURVE SMOOTH",
"172.68 136.21 OFFCURVE",
"207.73 129.16 OFFCURVE",
"240.02 117.46 CURVE SMOOTH",
"272.31 105.75 OFFCURVE",
"303.03 90.09 OFFCURVE",
"334.99 77.48 CURVE SMOOTH",
"354.12 69.93 OFFCURVE",
"373.64 63.35 OFFCURVE",
"393.49 57.98 CURVE",
"404.42 63.35 OFFCURVE",
"413.11 72.95 OFFCURVE",
"417.79 84.2 CURVE SMOOTH",
"422.47 95.44 OFFCURVE",
"422.99 107.92 OFFCURVE",
"422.99 120.1 CURVE SMOOTH",
"422.99 538.48 LINE SMOOTH",
"422.99 558.55 OFFCURVE",
"423.27 578.75 OFFCURVE",
"427 598.47 CURVE SMOOTH",
"430.73 618.2 OFFCURVE",
"437.86 637.31 OFFCURVE",
"448.36 654.42 CURVE SMOOTH",
"469.36 688.64 OFFCURVE",
"503.08 712.71 OFFCURVE",
"536.49 734.98 CURVE SMOOTH",
"594.99 773.98 LINE",
"609.99 757.48 LINE",
"592.55 746.45 OFFCURVE",
"579.17 729.35 OFFCURVE",
"571.97 710.01 CURVE SMOOTH",
"564.76 690.67 OFFCURVE",
"563.99 669.62 OFFCURVE",
"563.99 648.98 CURVE SMOOTH",
"563.99 234.1 LINE",
"541.51 195.97 OFFCURVE",
"515.71 159.79 OFFCURVE",
"486.99 126.1 CURVE SMOOTH",
"447.72 80.04 OFFCURVE",
"402.97 38.66 OFFCURVE",
"353.99 3.1 CURVE SMOOTH",
"346.54 -2.31 OFFCURVE",
"338.86 -7.49 OFFCURVE",
"330.49 -11.32 CURVE SMOOTH",
"322.12 -15.15 OFFCURVE",
"313.14 -17.63 OFFCURVE",
"304.01 -18.78 CURVE SMOOTH",
"285.74 -21.06 OFFCURVE",
"267.26 -18.29 OFFCURVE",
"249 -15.91 CURVE SMOOTH",
"157 -3.91 LINE SMOOTH",
"150.77 -3.1 OFFCURVE",
"144.47 -2.37 OFFCURVE",
"138.22 -3 CURVE SMOOTH",
"131.97 -3.64 OFFCURVE",
"125.81 -5.65 OFFCURVE",
"120.63 -9.21 CURVE SMOOTH",
"115.45 -12.77 OFFCURVE",
"111.32 -17.82 OFFCURVE",
"108.82 -23.58 CURVE SMOOTH",
"106.31 -29.34 OFFCURVE",
"105.41 -35.76 OFFCURVE",
"106 -42.02 CURVE SMOOTH",
"107.1 -53.75 OFFCURVE",
"113.37 -64.77 OFFCURVE",
"122.4 -72.33 CURVE SMOOTH",
"131.43 -79.9 OFFCURVE",
"143.21 -84.09 OFFCURVE",
"155 -84.02 CURVE"
);
}
);
width = 1190;
}
);
note = IJ;
unicode = 0132;
},
{
glyphname = Iacute;
layers = (
{
layerId = "032EDF5D-2B69-4E95-A18F-0FD11DED884D";
paths = (
{
closed = 1;
nodes = (
"470.67 999 LINE",
"419.34 1038.67 LINE",
"333.67 863 LINE",
"342.34 856.33 LINE"
);
},
{
closed = 1;
nodes = (
"111.04 376.72 OFFCURVE",
"110.32 369.04 OFFCURVE",
"110.32 361.36 CURVE SMOOTH",
"110.32 340.86 OFFCURVE",
"115.46 320.33 OFFCURVE",
"125.05 302.18 CURVE",
"144.18 302.18 LINE",
"142.6 310.68 OFFCURVE",
"142.79 319.51 OFFCURVE",
"144.84 327.9 CURVE SMOOTH",
"147.8 340.01 OFFCURVE",
"155.01 351.25 OFFCURVE",
"165.5 357.98 CURVE SMOOTH",
"170.75 361.34 OFFCURVE",
"176.7 363.54 OFFCURVE",
"182.83 364.69 CURVE SMOOTH",
"188.96 365.83 OFFCURVE",
"195.23 365.91 OFFCURVE",
"201.46 365.91 CURVE SMOOTH",
"213.65 365.91 OFFCURVE",
"225.84 365.91 OFFCURVE",
"238.03 365.91 CURVE",
"238.03 342.15 OFFCURVE",
"238.03 318.4 OFFCURVE",
"238.03 294.64 CURVE SMOOTH",
"238.03 277.19 OFFCURVE",
"238 259.67 OFFCURVE",
"235.58 242.39 CURVE SMOOTH",
"233.16 225.11 OFFCURVE",
"228.24 208.04 OFFCURVE",
"219.69 192.83 CURVE SMOOTH",
"209.56 174.81 OFFCURVE",
"194.31 159.64 OFFCURVE",
"176.02 150 CURVE",
"209.02 150 LINE",
"239.77 159.23 OFFCURVE",
"269.79 171.48 OFFCURVE",
"297.02 188.5 CURVE SMOOTH",
"319.36 202.46 OFFCURVE",
"339.73 220.6 OFFCURVE",
"352.17 243.82 CURVE SMOOTH",
"358.39 255.43 OFFCURVE",
"362.52 268.12 OFFCURVE",
"364.69 281.11 CURVE SMOOTH",
"366.86 294.1 OFFCURVE",
"367.02 307.33 OFFCURVE",
"367.02 320.5 CURVE SMOOTH",
"367.02 397.65 LINE",
"367.09 539 LINE SMOOTH",
"367.1 571.56 OFFCURVE",
"370.07 604.77 OFFCURVE",
"383.52 634.41 CURVE SMOOTH",
"391.94 652.97 OFFCURVE",
"404.65 669.45 OFFCURVE",
"420.07 682.77 CURVE SMOOTH",
"435.49 696.1 OFFCURVE",
"452.91 706.92 OFFCURVE",
"468.68 719.83 CURVE SMOOTH",
"483.62 732.06 OFFCURVE",
"497.01 746.28 OFFCURVE",
"507.51 762.47 CURVE",
"509.01 788.99 LINE",
"497.93 778.55 OFFCURVE",
"484.75 770.36 OFFCURVE",
"470.51 764.97 CURVE SMOOTH",
"450.72 757.48 OFFCURVE",
"429.09 755.57 OFFCURVE",
"408.01 757.49 CURVE SMOOTH",
"383.28 759.74 OFFCURVE",
"359.33 766.99 OFFCURVE",
"335.22 772.91 CURVE SMOOTH",
"311.1 778.83 OFFCURVE",
"286.26 783.1 OFFCURVE",
"261.51 780.99 CURVE SMOOTH",
"228.79 778.21 OFFCURVE",
"197.63 764.03 OFFCURVE",
"172.01 743.49 CURVE SMOOTH",
"137.4 715.73 OFFCURVE",
"111.29 678.06 OFFCURVE",
"94.51 636.99 CURVE",
"118.01 636.99 LINE",
"123.49 651.19 OFFCURVE",
"134.78 662.93 OFFCURVE",
"148.51 669.49 CURVE SMOOTH",
"160.71 675.32 OFFCURVE",
"174.49 677.21 OFFCURVE",
"188.01 676.99 CURVE SMOOTH",
"209.17 676.65 OFFCURVE",
"229.98 671.92 OFFCURVE",
"250.85 668.45 CURVE SMOOTH",
"271.73 664.97 OFFCURVE",
"292.85 662.55 OFFCURVE",
"314.01 662.99 CURVE SMOOTH",
"336.49 663.46 OFFCURVE",
"358.78 667.34 OFFCURVE",
"380.18 674.15 CURVE",
"353.76 652.72 OFFCURVE",
"327.03 631.66 OFFCURVE",
"300.01 610.99 CURVE SMOOTH",
"282.46 597.56 OFFCURVE",
"264.38 583.9 OFFCURVE",
"252.6 565.2 CURVE SMOOTH",
"246.71 555.85 OFFCURVE",
"242.56 545.42 OFFCURVE",
"240.36 534.59 CURVE SMOOTH",
"238.16 523.76 OFFCURVE",
"237.97 512.64 OFFCURVE",
"237.97 501.59 CURVE SMOOTH",
"237.98 475.22 LINE",
"214.19 471.53 OFFCURVE",
"190.08 468.22 OFFCURVE",
"168.51 457.76 CURVE SMOOTH",
"154.13 450.78 OFFCURVE",
"141.27 440.55 OFFCURVE",
"131.64 427.8 CURVE SMOOTH",
"122.01 415.04 OFFCURVE",
"115.59 399.95 OFFCURVE",
"112.51 384.26 CURVE SMOOTH"
);
},
{
closed = 1;
nodes = (
"155 -99.88 LINE",
"131.02 -97.98 OFFCURVE",
"107.68 -88.69 OFFCURVE",
"88.96 -73.59 CURVE SMOOTH",
"70.25 -58.48 OFFCURVE",
"56.23 -37.6 OFFCURVE",
"49.5 -14.51 CURVE SMOOTH",
"40.58 16.1 OFFCURVE",
"45 50.46 OFFCURVE",
"61.91 77.49 CURVE SMOOTH",
"78.82 104.52 OFFCURVE",
"107.73 123.25 OFFCURVE",
"139 129.49 CURVE SMOOTH",
"172.69 136.22 OFFCURVE",
"207.74 129.17 OFFCURVE",
"240.03 117.47 CURVE SMOOTH",
"272.32 105.76 OFFCURVE",
"303.04 90.1 OFFCURVE",
"335 77.49 CURVE SMOOTH",
"354.13 69.94 OFFCURVE",
"373.65 63.36 OFFCURVE",
"393.5 57.99 CURVE",
"404.43 63.36 OFFCURVE",
"413.12 72.96 OFFCURVE",
"417.8 84.21 CURVE SMOOTH",
"422.48 95.45 OFFCURVE",
"423 107.93 OFFCURVE",
"423 120.11 CURVE SMOOTH",
"423 538.49 LINE SMOOTH",
"423 558.56 OFFCURVE",
"423.28 578.76 OFFCURVE",
"427.01 598.48 CURVE SMOOTH",
"430.74 618.21 OFFCURVE",
"437.87 637.32 OFFCURVE",
"448.37 654.43 CURVE SMOOTH",
"469.37 688.65 OFFCURVE",
"503.09 712.72 OFFCURVE",
"536.5 734.99 CURVE SMOOTH",
"595 773.99 LINE",
"610 757.49 LINE",
"592.56 746.46 OFFCURVE",
"579.18 729.36 OFFCURVE",
"571.98 710.02 CURVE SMOOTH",
"564.77 690.68 OFFCURVE",
"564 669.63 OFFCURVE",
"564 648.99 CURVE SMOOTH",
"564 234.11 LINE",
"541.52 195.98 OFFCURVE",
"515.72 159.8 OFFCURVE",
"487 126.11 CURVE SMOOTH",
"447.73 80.05 OFFCURVE",
"402.98 38.67 OFFCURVE",
"354 3.11 CURVE SMOOTH",
"346.55 -2.3 OFFCURVE",
"338.87 -7.48 OFFCURVE",
"330.5 -11.31 CURVE SMOOTH",
"322.13 -15.14 OFFCURVE",
"313.15 -17.62 OFFCURVE",
"304.02 -18.77 CURVE SMOOTH",
"285.75 -21.05 OFFCURVE",
"267.27 -18.28 OFFCURVE",
"249.01 -15.9 CURVE SMOOTH",
"157.01 -3.9 LINE SMOOTH",
"150.78 -3.09 OFFCURVE",
"144.48 -2.36 OFFCURVE",
"138.23 -2.99 CURVE SMOOTH",
"131.98 -3.63 OFFCURVE",
"125.82 -5.64 OFFCURVE",
"120.64 -9.2 CURVE SMOOTH",
"115.46 -12.76 OFFCURVE",
"111.33 -17.81 OFFCURVE",
"108.83 -23.57 CURVE SMOOTH",
"106.32 -29.33 OFFCURVE",
"105.42 -35.75 OFFCURVE",
"106.01 -42.01 CURVE SMOOTH",
"107.11 -53.74 OFFCURVE",
"113.38 -64.76 OFFCURVE",
"122.41 -72.32 CURVE SMOOTH",
"131.44 -79.89 OFFCURVE",
"143.22 -84.08 OFFCURVE",
"155.01 -84.01 CURVE"
);
}
);
width = 615;
}
);
note = Iacute;
unicode = 00CD;
},
{
glyphname = Ibreve;
layers = (
{
layerId = "032EDF5D-2B69-4E95-A18F-0FD11DED884D";
paths = (
{
closed = 1;
nodes = (
"296.34 883.24 OFFCURVE",
"263.81 907.7 OFFCURVE",
"240.82 939 CURVE",
"308.82 999 LINE",
"318.26 985.75 OFFCURVE",
"330.45 974.49 OFFCURVE",
"344.34 966.02 CURVE SMOOTH",
"360.62 956.09 OFFCURVE",
"379.07 949.95 OFFCURVE",
"397.92 947.09 CURVE SMOOTH",
"416.77 944.22 OFFCURVE",
"436.24 944.27 OFFCURVE",
"454.73 948.93 CURVE SMOOTH",
"464.51 951.39 OFFCURVE",
"473.99 955.29 OFFCURVE",
"482.25 961.08 CURVE SMOOTH",
"491.41 967.5 OFFCURVE",
"498.93 976.25 OFFCURVE",
"503.71 986.36 CURVE",
"529.4 973.96 LINE",
"521.78 956.94 OFFCURVE",
"512.23 940.77 OFFCURVE",
"500.81 926.02 CURVE SMOOTH",
"486.07 906.98 OFFCURVE",
"467.99 890.26 OFFCURVE",
"446.72 879 CURVE SMOOTH",
"429.49 869.88 OFFCURVE",
"410.3 864.51 OFFCURVE",
"390.84 863.33 CURVE SMOOTH",
"371.38 862.15 OFFCURVE",
"351.75 865.04 OFFCURVE",
"333.23 871.12 CURVE SMOOTH"
);
},
{
closed = 1;
nodes = (
"111.02 376.73 OFFCURVE",
"110.3 369.05 OFFCURVE",
"110.3 361.37 CURVE SMOOTH",
"110.3 340.87 OFFCURVE",
"115.44 320.34 OFFCURVE",
"125.03 302.19 CURVE",
"144.16 302.19 LINE",
"142.58 310.69 OFFCURVE",
"142.77 319.52 OFFCURVE",
"144.82 327.91 CURVE SMOOTH",
"147.78 340.02 OFFCURVE",
"154.99 351.26 OFFCURVE",
"165.48 357.99 CURVE SMOOTH",
"170.73 361.35 OFFCURVE",
"176.68 363.55 OFFCURVE",
"182.81 364.7 CURVE SMOOTH",
"188.94 365.84 OFFCURVE",
"195.21 365.92 OFFCURVE",
"201.44 365.92 CURVE SMOOTH",
"213.63 365.92 OFFCURVE",
"225.82 365.92 OFFCURVE",
"238.01 365.92 CURVE",
"238.01 342.16 OFFCURVE",
"238.01 318.41 OFFCURVE",
"238.01 294.65 CURVE SMOOTH",
"238.01 277.2 OFFCURVE",
"237.98 259.68 OFFCURVE",
"235.56 242.4 CURVE SMOOTH",
"233.14 225.12 OFFCURVE",
"228.22 208.05 OFFCURVE",
"219.67 192.84 CURVE SMOOTH",
"209.54 174.82 OFFCURVE",
"194.29 159.65 OFFCURVE",
"176 150.01 CURVE",
"209 150.01 LINE",
"239.75 159.24 OFFCURVE",
"269.77 171.49 OFFCURVE",
"297 188.51 CURVE SMOOTH",
"319.34 202.47 OFFCURVE",
"339.71 220.61 OFFCURVE",
"352.15 243.83 CURVE SMOOTH",
"358.37 255.44 OFFCURVE",
"362.5 268.13 OFFCURVE",
"364.67 281.12 CURVE SMOOTH",
"366.84 294.11 OFFCURVE",
"367 307.34 OFFCURVE",
"367 320.51 CURVE SMOOTH",
"367 397.66 LINE",
"367.07 539.01 LINE SMOOTH",
"367.08 571.57 OFFCURVE",
"370.05 604.78 OFFCURVE",
"383.5 634.42 CURVE SMOOTH",
"391.92 652.98 OFFCURVE",
"404.63 669.46 OFFCURVE",
"420.05 682.78 CURVE SMOOTH",
"435.47 696.11 OFFCURVE",
"452.89 706.93 OFFCURVE",
"468.66 719.84 CURVE SMOOTH",
"483.6 732.07 OFFCURVE",
"496.99 746.29 OFFCURVE",
"507.49 762.48 CURVE",
"508.99 789 LINE",
"497.91 778.56 OFFCURVE",
"484.73 770.37 OFFCURVE",
"470.49 764.98 CURVE SMOOTH",
"450.7 757.49 OFFCURVE",
"429.07 755.58 OFFCURVE",
"407.99 757.5 CURVE SMOOTH",
"383.26 759.75 OFFCURVE",
"359.31 767 OFFCURVE",
"335.2 772.92 CURVE SMOOTH",
"311.08 778.84 OFFCURVE",
"286.24 783.11 OFFCURVE",
"261.49 781 CURVE SMOOTH",
"228.77 778.22 OFFCURVE",
"197.61 764.04 OFFCURVE",
"171.99 743.5 CURVE SMOOTH",
"137.38 715.74 OFFCURVE",
"111.27 678.07 OFFCURVE",
"94.49 637 CURVE",
"117.99 637 LINE",
"123.47 651.2 OFFCURVE",
"134.76 662.94 OFFCURVE",
"148.49 669.5 CURVE SMOOTH",
"160.69 675.33 OFFCURVE",
"174.47 677.22 OFFCURVE",
"187.99 677 CURVE SMOOTH",
"209.15 676.66 OFFCURVE",
"229.96 671.93 OFFCURVE",
"250.83 668.46 CURVE SMOOTH",
"271.71 664.98 OFFCURVE",
"292.83 662.56 OFFCURVE",
"313.99 663 CURVE SMOOTH",
"336.47 663.47 OFFCURVE",
"358.76 667.35 OFFCURVE",
"380.16 674.16 CURVE",
"353.74 652.73 OFFCURVE",
"327.01 631.67 OFFCURVE",
"299.99 611 CURVE SMOOTH",
"282.44 597.57 OFFCURVE",
"264.36 583.91 OFFCURVE",
"252.58 565.21 CURVE SMOOTH",
"246.69 555.86 OFFCURVE",
"242.54 545.43 OFFCURVE",
"240.34 534.6 CURVE SMOOTH",
"238.14 523.77 OFFCURVE",
"237.95 512.65 OFFCURVE",
"237.95 501.6 CURVE SMOOTH",
"237.96 475.23 LINE",
"214.17 471.54 OFFCURVE",
"190.06 468.23 OFFCURVE",
"168.49 457.77 CURVE SMOOTH",
"154.11 450.79 OFFCURVE",
"141.25 440.56 OFFCURVE",
"131.62 427.81 CURVE SMOOTH",
"121.99 415.05 OFFCURVE",
"115.57 399.96 OFFCURVE",
"112.49 384.27 CURVE SMOOTH"
);
},
{
closed = 1;
nodes = (
"154.98 -99.87 LINE",
"131 -97.97 OFFCURVE",
"107.66 -88.68 OFFCURVE",
"88.94 -73.58 CURVE SMOOTH",
"70.23 -58.47 OFFCURVE",
"56.21 -37.59 OFFCURVE",
"49.48 -14.5 CURVE SMOOTH",
"40.56 16.11 OFFCURVE",
"44.98 50.47 OFFCURVE",
"61.89 77.5 CURVE SMOOTH",
"78.8 104.53 OFFCURVE",
"107.71 123.26 OFFCURVE",
"138.98 129.5 CURVE SMOOTH",
"172.67 136.23 OFFCURVE",
"207.72 129.18 OFFCURVE",
"240.01 117.48 CURVE SMOOTH",
"272.3 105.77 OFFCURVE",
"303.02 90.11 OFFCURVE",
"334.98 77.5 CURVE SMOOTH",
"354.11 69.95 OFFCURVE",
"373.63 63.37 OFFCURVE",
"393.48 58 CURVE",
"404.41 63.37 OFFCURVE",
"413.1 72.97 OFFCURVE",
"417.78 84.22 CURVE SMOOTH",
"422.46 95.46 OFFCURVE",
"422.98 107.94 OFFCURVE",
"422.98 120.12 CURVE SMOOTH",
"422.98 538.5 LINE SMOOTH",
"422.98 558.57 OFFCURVE",
"423.26 578.77 OFFCURVE",
"426.99 598.49 CURVE SMOOTH",
"430.72 618.22 OFFCURVE",
"437.85 637.33 OFFCURVE",
"448.35 654.44 CURVE SMOOTH",
"469.35 688.66 OFFCURVE",
"503.07 712.73 OFFCURVE",
"536.48 735 CURVE SMOOTH",
"594.98 774 LINE",
"609.98 757.5 LINE",
"592.54 746.47 OFFCURVE",
"579.16 729.37 OFFCURVE",
"571.96 710.03 CURVE SMOOTH",
"564.75 690.69 OFFCURVE",
"563.98 669.64 OFFCURVE",
"563.98 649 CURVE SMOOTH",
"563.98 234.12 LINE",
"541.5 195.99 OFFCURVE",
"515.7 159.81 OFFCURVE",
"486.98 126.12 CURVE SMOOTH",
"447.71 80.06 OFFCURVE",
"402.96 38.68 OFFCURVE",
"353.98 3.12 CURVE SMOOTH",
"346.53 -2.29 OFFCURVE",
"338.85 -7.47 OFFCURVE",
"330.48 -11.3 CURVE SMOOTH",
"322.11 -15.13 OFFCURVE",
"313.13 -17.61 OFFCURVE",
"304 -18.76 CURVE SMOOTH",
"285.73 -21.04 OFFCURVE",
"267.25 -18.27 OFFCURVE",
"248.99 -15.89 CURVE SMOOTH",
"156.99 -3.89 LINE SMOOTH",
"150.76 -3.08 OFFCURVE",
"144.46 -2.35 OFFCURVE",
"138.21 -2.98 CURVE SMOOTH",
"131.96 -3.62 OFFCURVE",
"125.8 -5.63 OFFCURVE",
"120.62 -9.19 CURVE SMOOTH",
"115.44 -12.75 OFFCURVE",
"111.31 -17.8 OFFCURVE",
"108.81 -23.56 CURVE SMOOTH",
"106.3 -29.32 OFFCURVE",
"105.4 -35.74 OFFCURVE",
"105.99 -42 CURVE SMOOTH",
"107.09 -53.73 OFFCURVE",
"113.36 -64.75 OFFCURVE",
"122.39 -72.31 CURVE SMOOTH",
"131.42 -79.88 OFFCURVE",
"143.2 -84.07 OFFCURVE",
"154.99 -84 CURVE"
);
}
);
width = 615;
}
);
note = Ibreve;
unicode = 012C;
},
{
glyphname = Icircumflex;
layers = (
{
layerId = "032EDF5D-2B69-4E95-A18F-0FD11DED884D";
paths = (
{
closed = 1;
nodes = (
"236.74 837.79 LINE",
"338.74 938.79 LINE",
"447.24 837.79 LINE",
"520.71 916.71 LINE",
"396.72 1032.13 LINE",
"218.78 855.93 LINE"
);
},
{
closed = 1;
nodes = (
"111.04 376.72 OFFCURVE",
"110.32 369.04 OFFCURVE",
"110.32 361.36 CURVE SMOOTH",
"110.32 340.86 OFFCURVE",
"115.46 320.33 OFFCURVE",
"125.05 302.18 CURVE",
"144.18 302.18 LINE",
"142.6 310.68 OFFCURVE",
"142.79 319.51 OFFCURVE",
"144.84 327.9 CURVE SMOOTH",
"147.8 340.01 OFFCURVE",
"155.01 351.25 OFFCURVE",
"165.5 357.98 CURVE SMOOTH",
"170.75 361.34 OFFCURVE",
"176.7 363.54 OFFCURVE",
"182.83 364.69 CURVE SMOOTH",
"188.96 365.83 OFFCURVE",
"195.23 365.91 OFFCURVE",
"201.46 365.91 CURVE SMOOTH",
"213.65 365.91 OFFCURVE",
"225.84 365.91 OFFCURVE",
"238.03 365.91 CURVE",
"238.03 342.15 OFFCURVE",
"238.03 318.4 OFFCURVE",
"238.03 294.64 CURVE SMOOTH",
"238.03 277.19 OFFCURVE",
"238 259.67 OFFCURVE",
"235.58 242.39 CURVE SMOOTH",
"233.16 225.11 OFFCURVE",
"228.24 208.04 OFFCURVE",
"219.69 192.83 CURVE SMOOTH",
"209.56 174.81 OFFCURVE",
"194.31 159.64 OFFCURVE",
"176.02 150 CURVE",
"209.02 150 LINE",
"239.77 159.23 OFFCURVE",
"269.79 171.48 OFFCURVE",
"297.02 188.5 CURVE SMOOTH",
"319.36 202.46 OFFCURVE",
"339.73 220.6 OFFCURVE",
"352.17 243.82 CURVE SMOOTH",
"358.39 255.43 OFFCURVE",
"362.52 268.12 OFFCURVE",
"364.69 281.11 CURVE SMOOTH",
"366.86 294.1 OFFCURVE",
"367.02 307.33 OFFCURVE",
"367.02 320.5 CURVE SMOOTH",
"367.02 397.65 LINE",
"367.09 539 LINE SMOOTH",
"367.1 571.56 OFFCURVE",
"370.07 604.77 OFFCURVE",
"383.52 634.41 CURVE SMOOTH",
"391.94 652.97 OFFCURVE",
"404.65 669.45 OFFCURVE",
"420.07 682.77 CURVE SMOOTH",
"435.49 696.1 OFFCURVE",
"452.91 706.92 OFFCURVE",
"468.68 719.83 CURVE SMOOTH",
"483.62 732.06 OFFCURVE",
"497.01 746.28 OFFCURVE",
"507.51 762.47 CURVE",
"509.01 788.99 LINE",
"497.93 778.55 OFFCURVE",
"484.75 770.36 OFFCURVE",
"470.51 764.97 CURVE SMOOTH",
"450.72 757.48 OFFCURVE",
"429.09 755.57 OFFCURVE",
"408.01 757.49 CURVE SMOOTH",
"383.28 759.74 OFFCURVE",
"359.33 766.99 OFFCURVE",
"335.22 772.91 CURVE SMOOTH",
"311.1 778.83 OFFCURVE",
"286.26 783.1 OFFCURVE",
"261.51 780.99 CURVE SMOOTH",
"228.79 778.21 OFFCURVE",
"197.63 764.03 OFFCURVE",
"172.01 743.49 CURVE SMOOTH",
"137.4 715.73 OFFCURVE",
"111.29 678.06 OFFCURVE",
"94.51 636.99 CURVE",
"118.01 636.99 LINE",
"123.49 651.19 OFFCURVE",
"134.78 662.93 OFFCURVE",
"148.51 669.49 CURVE SMOOTH",
"160.71 675.32 OFFCURVE",
"174.49 677.21 OFFCURVE",
"188.01 676.99 CURVE SMOOTH",
"209.17 676.65 OFFCURVE",
"229.98 671.92 OFFCURVE",
"250.85 668.45 CURVE SMOOTH",
"271.73 664.97 OFFCURVE",
"292.85 662.55 OFFCURVE",
"314.01 662.99 CURVE SMOOTH",
"336.49 663.46 OFFCURVE",
"358.78 667.34 OFFCURVE",
"380.18 674.15 CURVE",
"353.76 652.72 OFFCURVE",
"327.03 631.66 OFFCURVE",
"300.01 610.99 CURVE SMOOTH",
"282.46 597.56 OFFCURVE",
"264.38 583.9 OFFCURVE",
"252.6 565.2 CURVE SMOOTH",
"246.71 555.85 OFFCURVE",
"242.56 545.42 OFFCURVE",
"240.36 534.59 CURVE SMOOTH",
"238.16 523.76 OFFCURVE",
"237.97 512.64 OFFCURVE",
"237.97 501.59 CURVE SMOOTH",
"237.98 475.22 LINE",
"214.19 471.53 OFFCURVE",
"190.08 468.22 OFFCURVE",
"168.51 457.76 CURVE SMOOTH",
"154.13 450.78 OFFCURVE",
"141.27 440.55 OFFCURVE",
"131.64 427.8 CURVE SMOOTH",
"122.01 415.04 OFFCURVE",
"115.59 399.95 OFFCURVE",
"112.51 384.26 CURVE SMOOTH"
);
},
{
closed = 1;
nodes = (
"155 -99.88 LINE",
"131.02 -97.98 OFFCURVE",
"107.68 -88.69 OFFCURVE",
"88.96 -73.59 CURVE SMOOTH",
"70.25 -58.48 OFFCURVE",
"56.23 -37.6 OFFCURVE",
"49.5 -14.51 CURVE SMOOTH",
"40.58 16.1 OFFCURVE",
"45 50.46 OFFCURVE",
"61.91 77.49 CURVE SMOOTH",
"78.82 104.52 OFFCURVE",
"107.73 123.25 OFFCURVE",
"139 129.49 CURVE SMOOTH",
"172.69 136.22 OFFCURVE",
"207.74 129.17 OFFCURVE",
"240.03 117.47 CURVE SMOOTH",
"272.32 105.76 OFFCURVE",
"303.04 90.1 OFFCURVE",
"335 77.49 CURVE SMOOTH",
"354.13 69.94 OFFCURVE",
"373.65 63.36 OFFCURVE",
"393.5 57.99 CURVE",
"404.43 63.36 OFFCURVE",
"413.12 72.96 OFFCURVE",
"417.8 84.21 CURVE SMOOTH",
"422.48 95.45 OFFCURVE",
"423 107.93 OFFCURVE",
"423 120.11 CURVE SMOOTH",
"423 538.49 LINE SMOOTH",
"423 558.56 OFFCURVE",
"423.28 578.76 OFFCURVE",
"427.01 598.48 CURVE SMOOTH",
"430.74 618.21 OFFCURVE",
"437.87 637.32 OFFCURVE",
"448.37 654.43 CURVE SMOOTH",
"469.37 688.65 OFFCURVE",
"503.09 712.72 OFFCURVE",
"536.5 734.99 CURVE SMOOTH",
"595 773.99 LINE",
"610 757.49 LINE",
"592.56 746.46 OFFCURVE",
"579.18 729.36 OFFCURVE",
"571.98 710.02 CURVE SMOOTH",
"564.77 690.68 OFFCURVE",
"564 669.63 OFFCURVE",
"564 648.99 CURVE SMOOTH",
"564 234.11 LINE",
"541.52 195.98 OFFCURVE",
"515.72 159.8 OFFCURVE",
"487 126.11 CURVE SMOOTH",
"447.73 80.05 OFFCURVE",
"402.98 38.67 OFFCURVE",
"354 3.11 CURVE SMOOTH",
"346.55 -2.3 OFFCURVE",
"338.87 -7.48 OFFCURVE",
"330.5 -11.31 CURVE SMOOTH",
"322.13 -15.14 OFFCURVE",
"313.15 -17.62 OFFCURVE",
"304.02 -18.77 CURVE SMOOTH",
"285.75 -21.05 OFFCURVE",
"267.27 -18.28 OFFCURVE",
"249.01 -15.9 CURVE SMOOTH",
"157.01 -3.9 LINE SMOOTH",
"150.78 -3.09 OFFCURVE",
"144.48 -2.36 OFFCURVE",
"138.23 -2.99 CURVE SMOOTH",
"131.98 -3.63 OFFCURVE",
"125.82 -5.64 OFFCURVE",
"120.64 -9.2 CURVE SMOOTH",
"115.46 -12.76 OFFCURVE",
"111.33 -17.81 OFFCURVE",
"108.83 -23.57 CURVE SMOOTH",
"106.32 -29.33 OFFCURVE",
"105.42 -35.75 OFFCURVE",
"106.01 -42.01 CURVE SMOOTH",
"107.11 -53.74 OFFCURVE",
"113.38 -64.76 OFFCURVE",
"122.41 -72.32 CURVE SMOOTH",
"131.44 -79.89 OFFCURVE",
"143.22 -84.08 OFFCURVE",
"155.01 -84.01 CURVE"
);
}
);
width = 615;
}
);
note = Icircumflex;
unicode = 00CE;
},
{
glyphname = Idieresis;
layers = (
{
layerId = "032EDF5D-2B69-4E95-A18F-0FD11DED884D";
paths = (
{
closed = 1;
nodes = (
"180.88 969.47 LINE",
"272.23 878.12 LINE",
"362.11 968 LINE",
"270.76 1059.35 LINE"
);
},
{
closed = 1;
nodes = (
"410.88 969.47 LINE",
"502.23 878.12 LINE",
"592.11 968 LINE",
"500.76 1059.35 LINE"
);
},
{
closed = 1;
nodes = (
"111.03 376.73 OFFCURVE",
"110.31 369.05 OFFCURVE",
"110.31 361.37 CURVE SMOOTH",
"110.31 340.87 OFFCURVE",
"115.45 320.34 OFFCURVE",
"125.04 302.19 CURVE",
"144.17 302.19 LINE",
"142.59 310.69 OFFCURVE",
"142.78 319.52 OFFCURVE",
"144.83 327.91 CURVE SMOOTH",
"147.79 340.02 OFFCURVE",
"155 351.26 OFFCURVE",
"165.49 357.99 CURVE SMOOTH",
"170.74 361.35 OFFCURVE",
"176.69 363.55 OFFCURVE",
"182.82 364.7 CURVE SMOOTH",
"188.95 365.84 OFFCURVE",
"195.22 365.92 OFFCURVE",
"201.45 365.92 CURVE SMOOTH",
"213.64 365.92 OFFCURVE",
"225.83 365.92 OFFCURVE",
"238.02 365.92 CURVE",
"238.02 342.16 OFFCURVE",
"238.02 318.41 OFFCURVE",
"238.02 294.65 CURVE SMOOTH",
"238.02 277.2 OFFCURVE",
"237.99 259.68 OFFCURVE",
"235.57 242.4 CURVE SMOOTH",
"233.15 225.12 OFFCURVE",
"228.23 208.05 OFFCURVE",
"219.68 192.84 CURVE SMOOTH",
"209.55 174.82 OFFCURVE",
"194.3 159.65 OFFCURVE",
"176.01 150.01 CURVE",
"209.01 150.01 LINE",
"239.76 159.24 OFFCURVE",
"269.78 171.49 OFFCURVE",
"297.01 188.51 CURVE SMOOTH",
"319.35 202.47 OFFCURVE",
"339.72 220.61 OFFCURVE",
"352.16 243.83 CURVE SMOOTH",
"358.38 255.44 OFFCURVE",
"362.51 268.13 OFFCURVE",
"364.68 281.12 CURVE SMOOTH",
"366.85 294.11 OFFCURVE",
"367.01 307.34 OFFCURVE",
"367.01 320.51 CURVE SMOOTH",
"367.01 397.66 LINE",
"367.08 539.01 LINE SMOOTH",
"367.09 571.57 OFFCURVE",
"370.06 604.78 OFFCURVE",
"383.51 634.42 CURVE SMOOTH",
"391.93 652.98 OFFCURVE",
"404.64 669.46 OFFCURVE",
"420.06 682.78 CURVE SMOOTH",
"435.48 696.11 OFFCURVE",
"452.9 706.93 OFFCURVE",
"468.67 719.84 CURVE SMOOTH",
"483.61 732.07 OFFCURVE",
"497 746.29 OFFCURVE",
"507.5 762.48 CURVE",
"509 789 LINE",
"497.92 778.56 OFFCURVE",
"484.74 770.37 OFFCURVE",
"470.5 764.98 CURVE SMOOTH",
"450.71 757.49 OFFCURVE",
"429.08 755.58 OFFCURVE",
"408 757.5 CURVE SMOOTH",
"383.27 759.75 OFFCURVE",
"359.32 767 OFFCURVE",
"335.21 772.92 CURVE SMOOTH",
"311.09 778.84 OFFCURVE",
"286.25 783.11 OFFCURVE",
"261.5 781 CURVE SMOOTH",
"228.78 778.22 OFFCURVE",
"197.62 764.04 OFFCURVE",
"172 743.5 CURVE SMOOTH",
"137.39 715.74 OFFCURVE",
"111.28 678.07 OFFCURVE",
"94.5 637 CURVE",
"118 637 LINE",
"123.48 651.2 OFFCURVE",
"134.77 662.94 OFFCURVE",
"148.5 669.5 CURVE SMOOTH",
"160.7 675.33 OFFCURVE",
"174.48 677.22 OFFCURVE",
"188 677 CURVE SMOOTH",
"209.16 676.66 OFFCURVE",
"229.97 671.93 OFFCURVE",
"250.84 668.46 CURVE SMOOTH",
"271.72 664.98 OFFCURVE",
"292.84 662.56 OFFCURVE",
"314 663 CURVE SMOOTH",
"336.48 663.47 OFFCURVE",
"358.77 667.35 OFFCURVE",
"380.17 674.16 CURVE",
"353.75 652.73 OFFCURVE",
"327.02 631.67 OFFCURVE",
"300 611 CURVE SMOOTH",
"282.45 597.57 OFFCURVE",
"264.37 583.91 OFFCURVE",
"252.59 565.21 CURVE SMOOTH",
"246.7 555.86 OFFCURVE",
"242.55 545.43 OFFCURVE",
"240.35 534.6 CURVE SMOOTH",
"238.15 523.77 OFFCURVE",
"237.96 512.65 OFFCURVE",
"237.96 501.6 CURVE SMOOTH",
"237.97 475.23 LINE",
"214.18 471.54 OFFCURVE",
"190.07 468.23 OFFCURVE",
"168.5 457.77 CURVE SMOOTH",
"154.12 450.79 OFFCURVE",
"141.26 440.56 OFFCURVE",
"131.63 427.81 CURVE SMOOTH",
"122 415.05 OFFCURVE",
"115.58 399.96 OFFCURVE",
"112.5 384.27 CURVE SMOOTH"
);
},
{
closed = 1;
nodes = (
"154.99 -99.87 LINE",
"131.01 -97.97 OFFCURVE",
"107.67 -88.68 OFFCURVE",
"88.95 -73.58 CURVE SMOOTH",
"70.24 -58.47 OFFCURVE",
"56.22 -37.59 OFFCURVE",
"49.49 -14.5 CURVE SMOOTH",
"40.57 16.11 OFFCURVE",
"44.99 50.47 OFFCURVE",
"61.9 77.5 CURVE SMOOTH",
"78.81 104.53 OFFCURVE",
"107.72 123.26 OFFCURVE",
"138.99 129.5 CURVE SMOOTH",
"172.68 136.23 OFFCURVE",
"207.73 129.18 OFFCURVE",
"240.02 117.48 CURVE SMOOTH",
"272.31 105.77 OFFCURVE",
"303.03 90.11 OFFCURVE",
"334.99 77.5 CURVE SMOOTH",
"354.12 69.95 OFFCURVE",
"373.64 63.37 OFFCURVE",
"393.49 58 CURVE",
"404.42 63.37 OFFCURVE",
"413.11 72.97 OFFCURVE",
"417.79 84.22 CURVE SMOOTH",
"422.47 95.46 OFFCURVE",
"422.99 107.94 OFFCURVE",
"422.99 120.12 CURVE SMOOTH",
"422.99 538.5 LINE SMOOTH",
"422.99 558.57 OFFCURVE",
"423.27 578.77 OFFCURVE",
"427 598.49 CURVE SMOOTH",
"430.73 618.22 OFFCURVE",
"437.86 637.33 OFFCURVE",
"448.36 654.44 CURVE SMOOTH",
"469.36 688.66 OFFCURVE",
"503.08 712.73 OFFCURVE",
"536.49 735 CURVE SMOOTH",
"594.99 774 LINE",
"609.99 757.5 LINE",
"592.55 746.47 OFFCURVE",
"579.17 729.37 OFFCURVE",
"571.97 710.03 CURVE SMOOTH",
"564.76 690.69 OFFCURVE",
"563.99 669.64 OFFCURVE",
"563.99 649 CURVE SMOOTH",
"563.99 234.12 LINE",
"541.51 195.99 OFFCURVE",
"515.71 159.81 OFFCURVE",
"486.99 126.12 CURVE SMOOTH",
"447.72 80.06 OFFCURVE",
"402.97 38.68 OFFCURVE",
"353.99 3.12 CURVE SMOOTH",
"346.54 -2.29 OFFCURVE",
"338.86 -7.47 OFFCURVE",
"330.49 -11.3 CURVE SMOOTH",
"322.12 -15.13 OFFCURVE",
"313.14 -17.61 OFFCURVE",
"304.01 -18.76 CURVE SMOOTH",
"285.74 -21.04 OFFCURVE",
"267.26 -18.27 OFFCURVE",
"249 -15.89 CURVE SMOOTH",
"157 -3.89 LINE SMOOTH",
"150.77 -3.08 OFFCURVE",
"144.47 -2.35 OFFCURVE",
"138.22 -2.98 CURVE SMOOTH",
"131.97 -3.62 OFFCURVE",
"125.81 -5.63 OFFCURVE",
"120.63 -9.19 CURVE SMOOTH",
"115.45 -12.75 OFFCURVE",
"111.32 -17.8 OFFCURVE",
"108.82 -23.56 CURVE SMOOTH",
"106.31 -29.32 OFFCURVE",
"105.41 -35.74 OFFCURVE",
"106 -42 CURVE SMOOTH",
"107.1 -53.73 OFFCURVE",
"113.37 -64.75 OFFCURVE",
"122.4 -72.31 CURVE SMOOTH",
"131.43 -79.88 OFFCURVE",
"143.21 -84.07 OFFCURVE",
"155 -84 CURVE"
);
}
);
width = 615;
}
);
note = Idieresis;
unicode = 00CF;
},
